<?xml version="1.0" ?><!DOCTYPE svg  PUBLIC '-//W3C//DTD SVG 1.1//EN'  'http://www.w3.org/Graphics/SVG/1.1/DTD/svg11.dtd'><svg enable-background="new 0 0 512 512" height="512px" id="Layer_1" version="1.1" viewBox="0 0 512 512" width="512px" xml:space="preserve" xmlns="http://www.w3.org/2000/svg" xmlns:xlink="http://www.w3.org/1999/xlink"><path d="M129.116,157.539v60.53c82.088,12.598,146.196,80.478,153.017,164.306v-0.001h60.146  c-3.545-58.856-28.141-113.701-70.19-155.75C233.097,187.634,183.106,163.651,129.116,157.539z" fill="none"/><path d="M139.947,287.065c-4.983,0-9.867,0.426-14.626,1.225v68.457c3.999-3.241,9.089-5.19,14.626-5.19  c12.827,0,23.264,10.436,23.264,23.262s-10.437,23.262-23.264,23.262c-12.826,0-23.263-10.436-23.263-23.262h-0.008v-84.623v-63.253  h-64.48v147.876c0,48.465,39.287,87.752,87.751,87.752c48.465,0,87.751-39.287,87.752-87.753  C227.698,326.354,188.411,287.065,139.947,287.065z" fill="none"/><path d="M138.786,48.395c-3.232,0-6.453,0.063-9.67,0.157v60.039c3.211-0.116,6.431-0.196,9.67-0.196  c144.468,0,261.999,117.533,261.999,262c0,4.015-0.104,8.007-0.284,11.979h60.043c0.145-3.981,0.241-7.975,0.241-11.979  c0-86.009-33.494-166.871-94.312-227.688C305.657,81.889,224.796,48.395,138.786,48.395z" fill="none"/><path d="M419.112,8H93.871C47.002,8,9.009,45.994,9.009,92.862v325.241c0,46.867,37.994,84.861,84.862,84.861h325.24  c46.867,0,84.861-37.994,84.861-84.861V92.862C503.974,45.994,465.979,8,419.112,8z M139.947,462.57  c-48.464,0-87.751-39.287-87.751-87.752V226.942h64.48v63.253v84.623h0.008c0,12.826,10.437,23.262,23.263,23.262  c12.827,0,23.264-10.436,23.264-23.262s-10.437-23.262-23.264-23.262c-5.537,0-10.627,1.949-14.626,5.19V288.29  c4.759-0.799,9.643-1.225,14.626-1.225c48.465,0,87.752,39.289,87.752,87.752C227.698,423.283,188.411,462.57,139.947,462.57z   M282.133,382.374L282.133,382.374c-6.82-83.827-70.929-151.707-153.017-164.305v-60.53c53.989,6.112,103.98,30.095,142.972,69.085  c42.05,42.049,66.646,96.894,70.19,155.75H282.133z M460.544,382.375h-60.043c0.18-3.973,0.284-7.965,0.284-11.979  c0-144.467-117.531-262-261.999-262c-3.239,0-6.459,0.08-9.67,0.196V48.552c3.217-0.095,6.438-0.157,9.67-0.157  c86.01,0,166.871,33.494,227.688,94.312c60.817,60.817,94.312,141.68,94.312,227.688C460.785,374.4,460.689,378.393,460.544,382.375  z"/></svg>