<?xml version="1.0" standalone="no"?>
<svg xmlns="http://www.w3.org/2000/svg" version="1.1" viewBox='0 0 24 24'>
	<path fill="#3C5A99" d="M22.7,0c0.4,0,0.7,0.1,0.9,0.4C23.9,0.7,24,1,24,1.3v21.4c0,0.4-0.1,0.7-0.4,0.9C23.4,23.9,23,24,22.7,24
	h-6.1v-9.3h3.1l0.5-3.6h-3.6V8.8c0-0.6,0.1-1,0.4-1.3C17.2,7.2,17.6,7,18.4,7l1.9,0V3.8c-0.7-0.1-1.6-0.1-2.8-0.1
	c-1.4,0-2.6,0.4-3.4,1.2c-0.9,0.8-1.3,2-1.3,3.5v2.7H9.7v3.6h3.1V24H1.3c-0.4,0-0.7-0.1-0.9-0.4C0.1,23.3,0,23,0,22.7V1.3
	C0,1,0.1,0.7,0.4,0.4C0.6,0.1,1,0,1.3,0H22.7z"/>
</svg>