<?xml version="1.0" encoding="utf-8"?>
<svg version="1.1" xmlns="http://www.w3.org/2000/svg" viewBox="0 0 24 24">
<path fill="#1DA1F2" d="M24,4.3c-0.7,1-1.5,1.8-2.5,2.5c0,0.1,0,0.4,0,0.6c0,1.3-0.2,2.6-0.6,4c-0.4,1.3-1,2.6-1.8,3.8
	s-1.7,2.3-2.8,3.2c-1.1,0.9-2.4,1.7-3.9,2.2c-1.5,0.5-3.2,0.8-4.9,0.8c-2.8,0-5.3-0.7-7.5-2.2c0.4,0,0.8,0.1,1.2,0.1
	c2.3,0,4.3-0.7,6.1-2.1c-1.1,0-2-0.3-2.9-1S3,14.8,2.7,13.8c0.3,0.1,0.6,0.1,0.9,0.1c0.4,0,0.9-0.1,1.3-0.2
	c-1.1-0.2-2.1-0.8-2.8-1.7S1,10.1,1,8.9V8.9c0.7,0.4,1.4,0.6,2.2,0.6C2.5,9,2,8.4,1.6,7.7C1.2,7,1,6.2,1,5.4c0-0.9,0.2-1.7,0.7-2.5
	c1.2,1.5,2.7,2.7,4.5,3.6S9.8,7.9,11.8,8c-0.1-0.4-0.1-0.8-0.1-1.1c0-1.4,0.5-2.5,1.4-3.5S15.2,2,16.6,2c1.4,0,2.6,0.5,3.6,1.5
	c1.1-0.2,2.1-0.6,3.1-1.2c-0.4,1.2-1.1,2.1-2.2,2.7C22.1,5,23.1,4.7,24,4.3z"/>
</svg>
