<?xml version="1.0" encoding="utf-8"?>
<!DOCTYPE svg PUBLIC "-//W3C//DTD SVG 1.1//EN" "http://www.w3.org/Graphics/SVG/1.1/DTD/svg11.dtd">
<svg
    version="1.1"
    xmlns="http://www.w3.org/2000/svg"
    xmlns:xlink="http://www.w3.org/1999/xlink"
    x="0px"
    y="0px"
    width="410px"
	  height="410px"
    viewBox="0 0 82 82"
    enable-background="new 0 0 82 82"
    xml:space="preserve">
  <rect width="100%" height="100%" fill="white" />
  <g id="Foreground">
		<g>

			<path fill-rule="evenodd" clip-rule="evenodd" fill="none" stroke="#000000" stroke-width="2.7775" stroke-linecap="round" stroke-linejoin="round" stroke-miterlimit="3.8637" d="
				M5.644,49.543c7.767-3.82,13.123,0.731,17.063,5.984c0-8.022,0.509-11.97,0.509-19.992c0-13.152,0.445-18.719-9.167-18.719
				c-9.974,0-9.678,3.394-9.678,14.389c0,10.314,0.127,8.022,0.127,18.337"/>

			<path fill-rule="evenodd" clip-rule="evenodd" fill="none" stroke="#000000" stroke-width="2.7775" stroke-linecap="round" stroke-linejoin="round" stroke-miterlimit="3.8637" d="
				M9.973,24.673c0.127,5.603,0.51,16.211,0.51,21.814"/>

			<line fill-rule="evenodd" clip-rule="evenodd" fill="none" stroke="#000000" stroke-width="2.7775" stroke-linecap="round" stroke-linejoin="round" stroke-miterlimit="3.8637" x1="14.596" y1="22.548" x2="14.596" y2="47.761"/>

			<path fill-rule="evenodd" clip-rule="evenodd" fill="none" stroke="#000000" stroke-width="2.7775" stroke-linecap="round" stroke-linejoin="round" stroke-miterlimit="3.8637" d="
				M18.289,29.188c0.128,6.367,0.255,18.19,0.255,21.756"/>

			<path fill-rule="evenodd" clip-rule="evenodd" fill="none" stroke="#000000" stroke-width="2.7775" stroke-linecap="round" stroke-linejoin="round" stroke-miterlimit="3.8637" d="
				M8.998,17.037c14.514-6.685,21.059-8.431,35.382-13.16c0.879-0.29,3.197-0.901,4.381-0.619"/>

			<path fill-rule="evenodd" clip-rule="evenodd" fill="none" stroke="#000000" stroke-width="2.7775" stroke-linecap="round" stroke-linejoin="round" stroke-miterlimit="3.8637" d="
				M23.725,55.019c10.187-9.168,19.868-9.751,31.328-17.391"/>

			<path fill-rule="evenodd" clip-rule="evenodd" fill="none" stroke="#000000" stroke-width="2.7775" stroke-linecap="round" stroke-linejoin="round" stroke-miterlimit="3.8637" d="
				M47.413,2.993c7.682,1.175,8.021,3.186,8.021,14.196c0,7.259,0,13.309,0,20.567"/>
		</g>

		<path fill-rule="evenodd" clip-rule="evenodd" fill="none" stroke="#000000" stroke-width="2.5455" stroke-linecap="round" stroke-linejoin="round" stroke-miterlimit="3.8637" d="
			M75.791,53.838c-11.18,7.952-17.301,11.409-30.479,18.465c-6.127-6.244-9.093-8.928-16.551-13.884
			c12.667-6.508,20.564-10.1,34.235-18.026c5.871,4.271,10.047,6.367,15.016,11.299"/>
		<g>

			<path fill-rule="evenodd" clip-rule="evenodd" stroke="#000000" stroke-width="1.3887" stroke-linecap="round" stroke-linejoin="round" stroke-miterlimit="3.8637" d="
				M39.982,61.687c1.169,1.685,3.095,2.697,4.612,4.378l0.773-0.445c-0.005,0.006,3.838-2.208,4.52-2.865l0.255-2.342
				l-10.067-0.806L39.982,61.687z"/>

			<path fill-rule="evenodd" clip-rule="evenodd" fill="#3E66B0" stroke="#000000" stroke-width="1.3887" stroke-linecap="round" stroke-linejoin="round" stroke-miterlimit="3.8637" d="
				M46.369,56.047c1.117,1.735,2.494,2.28,3.759,3.927c-2.065,1.382-3.14,2.307-5.517,3.405c-0.076-0.092-4.316-4.139-4.575-4.236
				l5.942-3.526L46.369,56.047z"/>
		</g>
		<g>

			<path fill-rule="evenodd" clip-rule="evenodd" stroke="#000000" stroke-width="1.3887" stroke-linecap="round" stroke-linejoin="round" stroke-miterlimit="3.8637" d="
				M51.032,56.615c1.199,1.663,2.689,2.28,4.236,3.934l2.468-1.62c-0.004,0.008,0.894-0.509,1.564-1.179l0.213-2.346l-8.425-0.87
				L51.032,56.615z"/>

			<path fill-rule="evenodd" clip-rule="evenodd" fill="#FFF200" stroke="#000000" stroke-width="1.3887" stroke-linecap="round" stroke-linejoin="round" stroke-miterlimit="3.8637" d="
				M55.333,51.244c1.813,0.963,3.469,2.316,4.201,3.801c-0.603,1.004-2.412,2.029-4.224,3.013c-0.804-0.931-1.524-1.23-2.521-1.982
				c-0.734-0.555-1.662-0.972-1.708-1.856c-0.013-0.254,0.179-0.433,0.166-0.686C52.26,52.676,54.109,51.901,55.333,51.244z"/>
		</g>
		<g>

			<path fill-rule="evenodd" clip-rule="evenodd" stroke="#000000" stroke-width="1.3887" stroke-linecap="round" stroke-linejoin="round" stroke-miterlimit="3.8637" d="
				M60.033,50.994c1.199,1.663,2.817,2.819,4.479,3.991c0,0,1.571-1.052,2.337-1.706c0.731-0.626,1.425-0.803,2.096-1.474
				l0.213-2.347l-9.068-0.546L60.033,50.994z"/>

			<path fill-rule="evenodd" clip-rule="evenodd" fill="#ED1C24" stroke="#000000" stroke-width="1.3887" stroke-linecap="round" stroke-linejoin="round" stroke-miterlimit="3.8637" d="
				M60.103,48.477c1.567-0.843,3.256-2.154,4.668-3.073c1.573,1.188,2.693,2.396,4.369,3.62c-1.083,1.411-2.822,2.187-4.565,3.505
				C62.88,50.925,61.492,50.012,60.103,48.477z"/>
		</g>

    <g>
			<line fill-rule="evenodd" clip-rule="evenodd" fill="none" stroke="#000000" stroke-width="2.5455" stroke-linecap="round" stroke-linejoin="round" stroke-miterlimit="3.8637" x1="28.488" y1="59.805" x2="28.585" y2="64.579"/>

			<path fill-rule="evenodd" clip-rule="evenodd" fill="none" stroke="#000000" stroke-width="2.5455" stroke-linecap="round" stroke-linejoin="round" stroke-miterlimit="3.8637" d="
				M45.341,72.7c0.322,1.223,0.578,4.889,0.666,6.128"/>

			<line fill-rule="evenodd" clip-rule="evenodd" fill="none" stroke="#000000" stroke-width="2.5455" stroke-linecap="round" stroke-linejoin="round" stroke-miterlimit="3.8637" x1="78.081" y1="52.683" x2="78.524" y2="59.025"/>

			<path fill-rule="evenodd" clip-rule="evenodd" fill="none" stroke="#000000" stroke-width="2.5455" stroke-linecap="round" stroke-linejoin="round" stroke-miterlimit="3.8637" d="
				M29.093,65.314c6.678,6.504,10.675,6.531,16.456,13.745"/>

			<path fill-rule="evenodd" clip-rule="evenodd" fill="none" stroke="#000000" stroke-width="2.5455" stroke-linecap="round" stroke-linejoin="round" stroke-miterlimit="3.8637" d="
				M46.096,78.422c2.165-1.246,5.343-2.415,8.036-3.748c4.295-2.144,6.703-4.154,11.068-6.152c6.086-2.815,7.734-6.367,13.546-9.711
				"/>

			<path fill-rule="evenodd" clip-rule="evenodd" fill="none" stroke="#000000" stroke-width="2.7775" stroke-linecap="round" stroke-linejoin="round" stroke-miterlimit="3.8637" d="
				M17.577,50.776C9.098,54.324,3.619,59.723,3.619,62.638c0,4.264,3.858,5.496,8.122,5.496c5.178,0,7.745-3.308,12.922-3.308
				c1.349,0,2.175,0.087,3.48,0.521"/>
    </g>
	</g>
</svg>
