<?xml version="1.0" standalone="no"?>
<svg xmlns="http://www.w3.org/2000/svg" version="1.1" viewBox='0 0 32 32'>
	<path fill="#FF6600" d="M11.2,12.5c0-0.7,0.6-1.2,1.2-1.2H16c0.7,0,1.2,0.6,1.2,1.2c0,0.7-0.6,1.2-1.2,1.2h-3.6
	C11.7,13.7,11.2,13.1,11.2,12.5z M19.7,18.4h-7.3c-0.6,0-1.2,0.5-1.2,1.2s0.5,1.2,1.2,1.2h7.3c0.6,0,1.2-0.5,1.2-1.2
	S20.3,18.4,19.7,18.4z M32,4.8v22.4c0,2.7-2.2,4.8-4.8,4.8H4.8C2.1,32,0,29.9,0,27.2V4.8C0,2.2,2.1,0,4.8,0h22.4
	C29.8,0,32,2.1,32,4.8z M25.9,14.9c0-0.7-0.6-1.3-1.3-1.3h-1.1h0c-0.7,0-1.2-0.5-1.3-1.2l0,0c0-3.5-2.9-6.4-6.4-6.4h-3.2
	C9,6,6.2,8.9,6.2,12.4v7c0,3.5,2.9,6.4,6.4,6.4h6.9c3.5,0,6.4-2.9,6.4-6.4V14.9z"/>
</svg>