<svg version="1.1" xmlns="http://www.w3.org/2000/svg" width="311.5px" height="78.8px" viewBox="0 0 311.5 78.8">
	<path fill="none" stroke="#000000" stroke-width="4.1662" stroke-linecap="round" stroke-linejoin="round" stroke-miterlimit="3.8637" d="
		M119.6,45.1c-1.1-1.8-3.6-3.9-11-3.9c-5.8,0-10.2,5.2-10.2,11c0,5.7,4.4,8.6,10.1,8.6c17.5,0,19.4-23,19.4-40.6
		c0-13.3-4.8-11.8-4.8,0.5c0,4.3,0,6.7,0,11c0,13.1,1.7,29,12.1,29c8.2,0,12.9-4.4,12.9-12.7c0-10.5-10-10.2-10,0.3
		c0,7.8,5.3,12.4,13.1,12.4c7.5,0,13.5-4.3,13.5-11.9c0-4.3-3.1-7-7-8.6 M175.9,39.8c-6.6,2.2-11.3,7-11.3,14c0,5.5,4.2,7,9.7,7
		c2.2,0,3.2-0.5,5.4-1.1 M175.9,39.8c-6.6,2.2-11.3,7-11.3,14c0,5.5,4.2,7,9.7,7c2.2,0,3.2-0.5,5.4-1.1 M159.8,52.2
		c5,0,7.9-0.1,12.9-0.5 M187.5,42c-4.9,1.2-7.5,5.3-7.5,10.2c0,4.8,4.3,8.6,9.2,8.6c5.8,0,10.2-5.1,10.2-10.9c0-5.7-2.1-7.9-7-7.7
		c-2.2,0.3-2.6,2.6-1.1,4c1.5,1.2,3.2,1.6,5.4,1.6c4.6,0,6.2-4.9,10.8-4.9c3.8,0,5.9,4.2,5.9,8c0,3.4-0.3,5.4-0.3,8.8
		c0-2.8,0.2-4.6,0.2-7.4c0-4.6,3-8.8,7.6-8.8c2.8,0,5.4,2.4,5.4,5.3c0,5.1,0,4.4,0,9.6c0,1.5,1.6,1.9,2.7,1.9c5.7,0,7.4-5.7,9.7-10.8
		c4-8.9,4.9-15,4.9-24.8c0-17.1-7.1-15.3-7.1,1.1c0,7.8,0.1,12,2.3,19.4c1.8,6.1,1.2,15.3,7.5,15.3c2.8,0,5.6-3.7,6-7
		c0.8-6.3,0.6-6.6,0.6-12.4c0.3,5.4,0.3,3.8,0.3,6.8c0,15.3,4.6,13.1,5.9,11.2c4.7-6.5,1-17,9.1-17c3.2,0,6.1,2.8,6.1,6
		c0,4.9,0,7.6,0,12.5c-0.2-7.8,0.2-17.3,7.3-17.3c7.9,0,3,17,10.9,17c6.6,0,11.4-5.5,11.4-12.2c0-8.2-8.4-9.2-8.4,1.3
		c0,5.4,7.2,14.9,13.9,8.8 M252.7,29.3l-0.1,0.9"/>
	<g stroke="#000000" stroke-width="1.3887" stroke-linecap="round" stroke-linejoin="round" stroke-miterlimit="3.8637">
		<path d="
			M37.8,60.1c1.2,1.7,3.1,2.7,4.6,4.4l0.8-0.4c0,0,3.8-2.2,4.5-2.9l0.3-2.3L37.8,58L37.8,60.1z M48.8,55c1.2,1.7,2.7,2.3,4.2,3.9
			l2.5-1.6c0,0,0.9-0.5,1.6-1.2l0.2-2.3l-8.4-0.9L48.8,55z M57.8,49.4c1.2,1.7,2.8,2.8,4.5,4c0,0,1.6-1.1,2.3-1.7
			c0.7-0.6,1.4-0.8,2.1-1.5l0.2-2.3l-9.1-0.5L57.8,49.4z"/>
		
			<path fill="#3E66B0" d="
			M44.1,54.4c1.1,1.7,2.5,2.3,3.8,3.9c-2.1,1.4-3.1,2.3-5.5,3.4c-0.1-0.1-4.3-4.1-4.6-4.2l5.9-3.5L44.1,54.4z"/>
		
			<path fill="#FFF200" d="
			M53.1,49.6c1.8,1,3.5,2.3,4.2,3.8c-0.6,1-2.4,2-4.2,3c-0.8-0.9-1.5-1.2-2.5-2c-0.7-0.6-1.7-1-1.7-1.9c0-0.3,0.2-0.4,0.2-0.7
			C50,51.1,51.9,50.3,53.1,49.6z"/>
		
			<path fill="#ED1C24" d="
			M57.9,46.9c1.6-0.8,3.3-2.2,4.7-3.1c1.6,1.2,2.7,2.4,4.4,3.6c-1.1,1.4-2.8,2.2-4.6,3.5C60.6,49.3,59.3,48.4,57.9,46.9z"/>
		
			<path fill="none" stroke-width="2.7775"  d="
			M3.4,47.9c7.8-3.8,13.1,0.7,17.1,6c0-8,0.5-12,0.5-20c0-13.2,0.4-18.7-9.2-18.7c-10,0-9.7,3.4-9.7,14.4c0,10.3,0.1,8,0.1,18.3
			 M7.7,23.1c0.1,5.6,0.5,16.2,0.5,21.8 M12.4,20.9v25.2 M16.1,27.6c0.1,6.4,0.3,18.2,0.3,21.8 M6.8,15.4C21.3,8.7,27.8,7,42.1,2.3
			C43,2,45.3,1.4,46.5,1.7 M21.5,53.4c10.2-9.2,19.9-9.8,31.3-17.4 M45.2,1.4c7.7,1.2,8,3.2,8,14.2c0,7.3,0,13.3,0,20.6 M73.6,52.2
			c-11.2,8-17.3,11.4-30.5,18.5C37,64.5,34,61.8,26.5,56.8c12.7-6.5,20.6-10.1,34.2-18c5.9,4.3,10,6.4,15,11.3 M26.3,58.2l0.1,4.8
			 M43.1,71.1c0.3,1.2,0.6,4.9,0.7,6.1 M75.9,51.1l0.4,6.3 M26.9,63.7c6.7,6.5,10.7,6.5,16.5,13.7 M43.9,76.8c2.2-1.2,5.3-2.4,8-3.7
			c4.3-2.1,6.7-4.2,11.1-6.2c6.1-2.8,7.7-6.4,13.5-9.7 M15.3,49.2c-8.5,3.5-14,8.9-14,11.9c0,4.3,3.9,5.5,8.1,5.5
			c5.2,0,7.7-3.3,12.9-3.3c1.3,0,2.2,0.1,3.5,0.5"/>
	</g>
</svg>
