<!-- Generator: Adobe Illustrator 20.1.0, SVG Export Plug-In  -->
<svg version="1.1"
	 xmlns="http://www.w3.org/2000/svg" xmlns:xlink="http://www.w3.org/1999/xlink" xmlns:a="http://ns.adobe.com/AdobeSVGViewerExtensions/3.0/"
	 x="0px" y="0px" width="77.4px" height="78.1px" viewBox="0 0 77.4 78.1" enable-background="new 0 0 77.4 78.1"
	 xml:space="preserve">
<path stroke="#3A3A3A" stroke-width="1.3887" stroke-linecap="round" stroke-linejoin="round" stroke-miterlimit="3.8637" d="
	M37.5,59.6c1.2,1.7,3.1,2.7,4.6,4.4l0.8-0.4c0,0,3.8-2.2,4.5-2.9l0.3-2.3l-10.1-0.8L37.5,59.6z M48.5,54.6c1.2,1.7,2.7,2.3,4.2,3.9
	l2.5-1.6c0,0,0.9-0.5,1.6-1.2l0.2-2.3l-8.4-0.9L48.5,54.6z M57.5,48.9c1.2,1.7,2.8,2.8,4.5,4c0,0,1.6-1.1,2.3-1.7
	c0.7-0.6,1.4-0.8,2.1-1.5l0.2-2.3l-9.1-0.5V48.9z"/>
<path fill="#ED1C24" stroke="#3A3A3A" stroke-width="1.25" stroke-linecap="round" stroke-linejoin="round" stroke-miterlimit="3.8637" d="
	M57.6,46.4c1.6-0.8,3.3-2.2,4.7-3.1c1.6,1.2,2.7,2.4,4.4,3.6c-1.1,1.4-2.8,2.2-4.6,3.5C60.4,48.9,59,48,57.6,46.4z"/>
<path fill="none" stroke="#3A3A3A" stroke-width="2.25" stroke-linecap="round" stroke-linejoin="round" stroke-miterlimit="3.8637" d="
	M75.3,50.5c-11.2,8-19.3,12.7-32.4,19.8c-6.1-6.2-9.1-8.9-16.6-13.9c12.7-6.5,20.6-10.1,34.2-18c5.9,4.3,10,6.4,15,11.3 M26.3,56.4
	l0.3,6.9 M42.8,70.6c0.3,1.2,0.6,4.9,0.7,6.1 M75.6,49.8l0.7,7 M26.6,63.3c6.7,6.5,10.7,6.5,16.5,13.7 M43.5,76.8
	c2.2-1.2,5.4-2.8,8.1-4.2c4.3-2.1,6.7-4.2,11.1-6.2c6.1-2.8,7.7-6.4,13.5-9.7 M2,47.5c7.8-3.8,14.3,0.7,18.2,6c0-8,0.5-12,0.5-20
	c0-13.2,0.4-18.7-9.2-18.7c-10,0-9.7,3.4-9.7,14.4C1.9,39.5,2,37.2,2,47.5 M7.5,22.6C7.6,28.2,8,40.5,8,46.1 M12.1,20.5v26.4
	 M15.8,27.1c0.1,6.4,0.3,18.2,0.3,21.8 M5.7,15.5c14.5-6.7,21.8-9,36.2-13.7c0.9-0.3,3.2-0.9,4.4-0.6 M20.2,53.5
	c10.2-9.2,21.3-10.1,32.7-17.8 M46.3,1.2C53,2.3,53,4.1,53,15.1c0,7.3,0,13.3,0,20.6 M15.1,48.7c-8.5,3.5-14,8.9-14,11.9
	c0,4.3,3.9,5.5,8.1,5.5c5.2,0,7.7-3.3,12.9-3.3c1.3,0,3.1,0.1,4.4,0.5"/>
<path fill="#3E66B0" stroke="#3A3A3A" stroke-width="1.25" stroke-linecap="round" stroke-linejoin="round" stroke-miterlimit="3.8637" d="
	M43.9,54c1.1,1.7,2.5,2.3,3.8,3.9c-2.1,1.4-3.1,2.3-5.5,3.4c-0.1-0.1-4.3-4.1-4.6-4.2l5.9-3.5L43.9,54z"/>
<path fill="#FFF200" stroke="#3A3A3A" stroke-width="1.25" stroke-linecap="round" stroke-linejoin="round" stroke-miterlimit="3.8637" d="
	M52.8,49.2c1.8,1,3.5,2.3,4.2,3.8c-0.6,1-2.4,2-4.2,3c-0.8-0.9-1.5-1.2-2.5-2c-0.7-0.6-1.7-1-1.7-1.9c0-0.3,0.2-0.4,0.2-0.7
	C49.8,50.6,51.6,49.8,52.8,49.2z"/>
</svg>
