<svg xmlns="http://www.w3.org/2000/svg" width="78" height="78.8" viewBox="0 0 78 78.8">
  <g stroke="#000" stroke-width="1.3887" stroke-linecap="round" stroke-linejoin="round" stroke-miterlimit="3.8637">
    <path d="M37.9 60.1c1.2 1.7 3.1 2.7 4.6 4.4l.8-.4s3.8-2.2 4.5-2.9l.3-2.3-10.2-.9v2.1zm11-5.1c1.2 1.7 2.7 2.3 4.2 3.9l2.5-1.6s.9-.5 1.6-1.2l.2-2.3-8.4-.9-.1 2.1zm9-5.6c1.2 1.7 2.8 2.8 4.5 4 0 0 1.6-1.1 2.3-1.7.7-.6 1.4-.8 2.1-1.5l.2-2.3-9.1-.5v2z"/>
    <path fill="#3E66B0" d="M44.2 54.4c1.1 1.7 2.5 2.3 3.8 3.9-2.1 1.4-3.1 2.3-5.5 3.4-.1-.1-4.3-4.1-4.6-4.2l5.9-3.5.4.4z"/>
    <path fill="#FFF200" d="M53.2 49.6c1.8 1 3.5 2.3 4.2 3.8-.6 1-2.4 2-4.2 3-.8-.9-1.5-1.2-2.5-2-.7-.6-1.7-1-1.7-1.9 0-.3.2-.4.2-.7.9-.7 2.8-1.5 4-2.2z"/>
    <path fill="#ED1C24" d="M58 46.9c1.6-.8 3.3-2.2 4.7-3.1 1.6 1.2 2.7 2.4 4.4 3.6-1.1 1.4-2.8 2.2-4.6 3.5-1.8-1.6-3.1-2.5-4.5-4z"/>
    <path fill="none" stroke-width="2.7775" d="M3.5 47.9c7.8-3.8 13.1.7 17.1 6 0-8 .5-12 .5-20 0-13.2.4-18.7-9.2-18.7-10 0-9.7 3.4-9.7 14.4 0 10.3.1 8 .1 18.3m5.5-24.8c.1 5.6.5 16.2.5 21.8m4.2-24v25.2m3.7-18.5c.1 6.4.3 18.2.3 21.8m-9.6-34C21.4 8.7 27.9 7 42.2 2.3c.9-.3 3.2-.9 4.4-.6m-25 51.7c10.2-9.2 19.9-9.8 31.3-17.4M45.3 1.4c7.7 1.2 8 3.2 8 14.2v20.6m20.4 16c-11.2 8-17.3 11.4-30.5 18.5-6.1-6.2-9.1-8.9-16.6-13.9 12.7-6.5 20.6-10.1 34.2-18 5.9 4.3 10 6.4 15 11.3m-49.4 8.1l.1 4.8m16.7 8.1c.3 1.2.6 4.9.7 6.1M76 51.1l.4 6.3M27 63.7c6.7 6.5 10.7 6.5 16.5 13.7m.5-.6c2.2-1.2 5.3-2.4 8-3.7 4.3-2.1 6.7-4.2 11.1-6.2 6.1-2.8 7.7-6.4 13.5-9.7m-61.2-8c-8.5 3.5-14 8.9-14 11.9 0 4.3 3.9 5.5 8.1 5.5 5.2 0 7.7-3.3 12.9-3.3 1.3 0 2.2.1 3.5.5"/>
  </g>
</svg>
