<svg width="50.094mm" height="59.813mm" version="1.1" viewBox="0 0 50.094 59.813" xmlns="http://www.w3.org/2000/svg">
  <style>
    .label {
      fill: #b59054;
      font-family: Arial;
      font-size: 3.5px;
    }
  </style>
  <defs>
    <linearGradient id="linearGradient6488" x2="1" gradientTransform="matrix(121.26 70.012 -70.012 121.26 1406.4 1026.8)" gradientUnits="userSpaceOnUse">
      <stop stop-color="#c0a161" offset="0"/>
      <stop stop-color="#c0a161" offset=".2637"/>
      <stop stop-color="#c6aa6c" offset=".2784"/>
      <stop stop-color="#d4c087" offset=".3216"/>
      <stop stop-color="#decf9b" offset=".3655"/>
      <stop stop-color="#e4d9a6" offset=".41"/>
      <stop stop-color="#e6dcaa" offset=".456"/>
      <stop stop-color="#ded09b" offset=".5082"/>
      <stop stop-color="#cab074" offset=".6081"/>
      <stop stop-color="#c2a465" offset=".6429"/>
      <stop stop-color="#c0a161" offset=".8242"/>
      <stop stop-color="#c0a161" offset="1"/>
    </linearGradient>
    <linearGradient id="linearGradient6540" x2="1" gradientTransform="matrix(83.152 48.008 48.008 -83.152 1425.4 1036.8)" gradientUnits="userSpaceOnUse">
      <stop stop-color="#c0a161" offset="0"/>
      <stop stop-color="#c0a161" offset=".2637"/>
      <stop stop-color="#c6aa6c" offset=".2784"/>
      <stop stop-color="#d4c087" offset=".3216"/>
      <stop stop-color="#decf9b" offset=".3655"/>
      <stop stop-color="#e4d9a6" offset=".41"/>
      <stop stop-color="#e6dcaa" offset=".456"/>
      <stop stop-color="#ded09b" offset=".5082"/>
      <stop stop-color="#cab074" offset=".6081"/>
      <stop stop-color="#c2a465" offset=".6429"/>
      <stop stop-color="#c0a161" offset=".8242"/>
      <stop stop-color="#c0a161" offset="1"/>
    </linearGradient>
    <linearGradient id="linearGradient6644" x2="1" gradientTransform="matrix(61.981 35.785 35.785 -61.981 1441.1 1047.3)" gradientUnits="userSpaceOnUse">
      <stop stop-color="#c0a161" offset="0"/>
      <stop stop-color="#c0a161" offset=".2637"/>
      <stop stop-color="#c6aa6c" offset=".2784"/>
      <stop stop-color="#d4c087" offset=".3216"/>
      <stop stop-color="#decf9b" offset=".3655"/>
      <stop stop-color="#e4d9a6" offset=".41"/>
      <stop stop-color="#e6dcaa" offset=".456"/>
      <stop stop-color="#ded09b" offset=".5082"/>
      <stop stop-color="#cab074" offset=".6081"/>
      <stop stop-color="#c2a465" offset=".6429"/>
      <stop stop-color="#c0a161" offset=".8242"/>
      <stop stop-color="#c0a161" offset="1"/>
    </linearGradient>
    <pattern id="pattern6806" width="72" height="72" patternTransform="translate(17008 -15514)" patternUnits="userSpaceOnUse">
      <g transform="translate(-1,1)">
        <path d="m0 0h73.5" fill="none" stroke="#231f20" stroke-dasharray="2, 2" stroke-width=".3"/>
      </g>
      <g transform="translate(-1,5)">
        <path d="m0 0h73.5" fill="none" stroke="#231f20" stroke-dasharray="2, 2" stroke-width=".3"/>
      </g>
      <g transform="translate(-1,9)">
        <path d="m0 0h73.5" fill="none" stroke="#231f20" stroke-dasharray="2, 2" stroke-width=".3"/>
      </g>
      <g transform="translate(-1,13)">
        <path d="m0 0h73.5" fill="none" stroke="#231f20" stroke-dasharray="2, 2" stroke-width=".3"/>
      </g>
      <g transform="translate(-1,17)">
        <path d="m0 0h73.5" fill="none" stroke="#231f20" stroke-dasharray="2, 2" stroke-width=".3"/>
      </g>
      <g transform="translate(-1,21)">
        <path d="m0 0h73.5" fill="none" stroke="#231f20" stroke-dasharray="2, 2" stroke-width=".3"/>
      </g>
      <g transform="translate(-1,25)">
        <path d="m0 0h73.5" fill="none" stroke="#231f20" stroke-dasharray="2, 2" stroke-width=".3"/>
      </g>
      <g transform="translate(-1,29)">
        <path d="m0 0h73.5" fill="none" stroke="#231f20" stroke-dasharray="2, 2" stroke-width=".3"/>
      </g>
      <g transform="translate(-1,33)">
        <path d="m0 0h73.5" fill="none" stroke="#231f20" stroke-dasharray="2, 2" stroke-width=".3"/>
      </g>
      <g transform="translate(-1,37)">
        <path d="m0 0h73.5" fill="none" stroke="#231f20" stroke-dasharray="2, 2" stroke-width=".3"/>
      </g>
      <g transform="translate(-1,41)">
        <path d="m0 0h73.5" fill="none" stroke="#231f20" stroke-dasharray="2, 2" stroke-width=".3"/>
      </g>
      <g transform="translate(-1,45)">
        <path d="m0 0h73.5" fill="none" stroke="#231f20" stroke-dasharray="2, 2" stroke-width=".3"/>
      </g>
      <g transform="translate(-1,49.1)">
        <path d="m0 0h73.5" fill="none" stroke="#231f20" stroke-dasharray="2, 2" stroke-width=".3"/>
      </g>
      <g transform="translate(-1,53.1)">
        <path d="m0 0h73.5" fill="none" stroke="#231f20" stroke-dasharray="2, 2" stroke-width=".3"/>
      </g>
      <g transform="translate(-1,57.1)">
        <path d="m0 0h73.5" fill="none" stroke="#231f20" stroke-dasharray="2, 2" stroke-width=".3"/>
      </g>
      <g transform="translate(-1,61.1)">
        <path d="m0 0h73.5" fill="none" stroke="#231f20" stroke-dasharray="2, 2" stroke-width=".3"/>
      </g>
      <g transform="translate(-1,65.1)">
        <path d="m0 0h73.5" fill="none" stroke="#231f20" stroke-dasharray="2, 2" stroke-width=".3"/>
      </g>
      <g transform="translate(-1,69)">
        <path d="m0 0h73.5" fill="none" stroke="#231f20" stroke-dasharray="2, 2" stroke-width=".3"/>
      </g>
      <g transform="translate(1.1,3)">
        <path d="m0 0h73.4" fill="none" stroke="#231f20" stroke-dasharray="2, 2" stroke-width=".3"/>
      </g>
      <g transform="translate(1.1,7)">
        <path d="m0 0h73.4" fill="none" stroke="#231f20" stroke-dasharray="2, 2" stroke-width=".3"/>
      </g>
      <g transform="translate(1.1,11)">
        <path d="m0 0h73.4" fill="none" stroke="#231f20" stroke-dasharray="2, 2" stroke-width=".3"/>
      </g>
      <g transform="translate(1.1,15)">
        <path d="m0 0h73.4" fill="none" stroke="#231f20" stroke-dasharray="2, 2" stroke-width=".3"/>
      </g>
      <g transform="translate(1.1,19)">
        <path d="m0 0h73.4" fill="none" stroke="#231f20" stroke-dasharray="2, 2" stroke-width=".3"/>
      </g>
      <g transform="translate(1.1,23)">
        <path d="m0 0h73.4" fill="none" stroke="#231f20" stroke-dasharray="2, 2" stroke-width=".3"/>
      </g>
      <g transform="translate(1.1,27)">
        <path d="m0 0h73.4" fill="none" stroke="#231f20" stroke-dasharray="2, 2" stroke-width=".3"/>
      </g>
      <g transform="translate(1.1,31)">
        <path d="m0 0h73.4" fill="none" stroke="#231f20" stroke-dasharray="2, 2" stroke-width=".3"/>
      </g>
      <g transform="translate(1.1,35)">
        <path d="m0 0h73.4" fill="none" stroke="#231f20" stroke-dasharray="2, 2" stroke-width=".3"/>
      </g>
      <g transform="translate(1.1,39)">
        <path d="m0 0h73.4" fill="none" stroke="#231f20" stroke-dasharray="2, 2" stroke-width=".3"/>
      </g>
      <g transform="translate(1.1,43)">
        <path d="m0 0h73.4" fill="none" stroke="#231f20" stroke-dasharray="2, 2" stroke-width=".3"/>
      </g>
      <g transform="translate(1.1,47)">
        <path d="m0 0h73.4" fill="none" stroke="#231f20" stroke-dasharray="2, 2" stroke-width=".3"/>
      </g>
      <g transform="translate(1.1,51.1)">
        <path d="m0 0h73.4" fill="none" stroke="#231f20" stroke-dasharray="2, 2" stroke-width=".3"/>
      </g>
      <g transform="translate(1.1,55.1)">
        <path d="m0 0h73.4" fill="none" stroke="#231f20" stroke-dasharray="2, 2" stroke-width=".3"/>
      </g>
      <g transform="translate(1.1,59.1)">
        <path d="m0 0h73.4" fill="none" stroke="#231f20" stroke-dasharray="2, 2" stroke-width=".3"/>
      </g>
      <g transform="translate(1.1,63.1)">
        <path d="m0 0h73.4" fill="none" stroke="#231f20" stroke-dasharray="2, 2" stroke-width=".3"/>
      </g>
      <g transform="translate(1.1,67)">
        <path d="m0 0h73.4" fill="none" stroke="#231f20" stroke-dasharray="2, 2" stroke-width=".3"/>
      </g>
      <g transform="translate(1.1,71)">
        <path d="m0 0h73.4" fill="none" stroke="#231f20" stroke-dasharray="2, 2" stroke-width=".3"/>
      </g>
    </pattern>

    <path id="curve" d="M 19.81644302003174 45.28355697996826 A 20.2 20.2 0 0 0 48.38355697996826 45.28355697996826"/>
  </defs>
  <g transform="translate(-9.054 -5.947)">
    <g transform="matrix(.35278 0 0 -.35278 26.04 65.76)">
      <path d="m0 0 26.7 69.5-34.5 13.2-26.7-69.4 21.2 3.3z" fill="#77623e"/>
    </g>
    <g transform="matrix(.35278 0 0 -.35278 43.009 65.76)">
      <path d="m0 0-26.6 69.5 34.5 13.2 26.6-69.4-21.2 3.3z" fill="#77623e"/>
    </g>
    <g transform="matrix(.35278 0 0 -.35278 25.335 65.408)">
      <path d="m0 0 26.7 69.5-34.5 13.2-26.7-69.4 21.2 3.3z" fill="#1a1a1a"/>
    </g>
    <g transform="matrix(.35278 0 0 -.35278 42.303 65.408)">
      <path d="m0 0-26.6 69.5 34.5 13.2 26.6-69.4-21.2 3.3z" fill="#1a1a1a"/>
    </g>
    <g transform="matrix(.35278 0 0 -.35278 34.101 6.2998)">
      <path d="m0 0c38.66 0 70-31.34 70-70s-31.34-70-70-70-70 31.34-70 70 31.34 70 70 70z" fill="none" stroke="#77623e" stroke-width="2"/>
    </g>
    <g transform="matrix(.35278 0 0 -.35278 -483.42 405.56)">
      <path d="m1397 1061.8c0-38.659 31.341-70 70-70 38.661 0 70 31.341 70 70 0 38.661-31.339 70.001-70 70.001-38.659 0-70-31.34-70-70.001" fill="url(#linearGradient6488)"/>
    </g>
    <g transform="matrix(.35278 0 0 -.35278 34.101 7.7815)">
      <path d="m0 0c36.34 0 65.8-29.46 65.8-65.8s-29.46-65.8-65.8-65.8-65.8 29.46-65.8 65.8 29.46 65.8 65.8 65.8" fill="#1a1a1a"/>
    </g>
    <g transform="matrix(.35278 0 0 -.35278 -483.42 405.56)">
      <path d="m1419 1060.8c0-26.51 21.491-48 48-48 26.51 0 48 21.49 48 48 0 26.509-21.49 47.999-48 47.999-26.509 0-48-21.49-48-47.999" fill="url(#linearGradient6540)"/>
    </g>
    <g transform="matrix(.35278 0 0 -.35278 -483.42 405.56)">
      <path d="m1466.5 1098c-0.8-0.4-1.5-0.7-2-1s-1-0.501-1.6-0.8c-0.6-0.3-1.199-0.601-1.9-0.9-0.7-0.3-1-0.501-1.1-0.501 0 0-0.4-0.2-1.2-0.499-0.8-0.3-1.599-0.7-2.499-1-0.9-0.401-1.501-0.6-1.8-0.7-0.301-0.1-0.601-0.2-0.9-0.3-0.301-0.1-0.701-0.2-1.301-0.401-0.5-0.199-1.2-0.399-2-0.599-0.8-0.201-1.7-0.5-2.8-0.7s-1.9-0.401-2.6-0.501c-0.7-0.099-1.8-0.299-3.3-0.599-1.5-0.301-2.7-0.5-3.4-0.6-0.8-0.1-1.4-0.2-1.8-0.3s-0.7-0.1-0.8-0.201l-0.1-0.099v-1.5c0-1.001 0.1-2.7 0.2-5.1 0.099-2.4 0.099-4.201 0.2-5.2 0.1-1 0.2-2.1 0.2-3 0.1-0.9 0.2-2.301 0.3-4.2 0.2-1.8 0.299-2.9 0.299-3.3s0.201-1.101 0.401-2.3c0.2-1.2 0.4-2.1 0.499-2.7 0.201-0.601 0.401-1.501 0.701-2.8 0.3-1.301 0.6-2.301 0.9-3.201s0.5-1.7 0.8-2.499c0.2-0.7 0.5-1.3 0.6-1.7s0.3-1.001 0.599-1.6c0.301-0.6 0.401-1 0.401-1s0.1-0.301 0.4-0.9c0.3-0.6 0.5-1.1 0.6-1.4s0.3-0.601 0.5-1c0.2-0.4 0.5-0.9 0.9-1.6s0.6-1.1 0.7-1.3c0.099-0.2 0.3-0.501 0.6-1 0.3-0.5 0.5-0.8 0.5-0.9s0.1-0.401 0.4-0.7c0.3-0.3 0.399-0.6 0.5-0.7 0.1-0.1 0.2-0.3 0.4-0.6 0.1-0.3 0.3-0.5 0.4-0.7s0.2-0.401 0.4-0.6c0.2-0.2 0.3-0.4 0.4-0.501 0.1-0.1 0.2-0.2 0.3-0.399 0.1-0.2 0.2-0.4 0.4-0.601 0.1-0.199 0.3-0.399 0.4-0.599 0.1-0.201 0.3-0.4 0.4-0.6 0.2-0.2 0.4-0.401 0.6-0.701 0.2-0.299 0.4-0.599 0.5-0.7 0.1-0.1 0.5-0.499 1.1-1.199 0.6-0.701 1-1.1 1.2-1.3l1-1.001c0.5-0.499 0.7-0.699 0.8-0.799s0.4-0.301 0.9-0.8c0.501-0.501 0.8-0.8 1-0.9s0.6-0.401 1.1-0.9c0.5-0.5 0.9-0.9 1.2-1.1 0.3-0.301 0.6-0.5 1-0.9s0.701-0.6 0.9-0.8c0.2-0.201 0.4-0.4 0.6-0.5 0.2-0.2 0.4-0.3 0.5-0.4s0.5-0.301 0.9-0.6c0.4-0.2 0.7-0.4 0.9-0.5 0.2-0.101 0.4-0.2 0.7-0.4s0.5-0.3 0.6-0.4c0-0.101 0.3-0.301 0.8-0.5 0.5-0.2 0.8-0.4 1-0.5 0.2-0.101 0.4-0.201 0.6-0.201l0.3-0.099 0.2 0.099c0.2 0.1 0.5 0.2 0.9 0.401 0.5 0.2 0.8 0.4 1.1 0.499 0.3 0.1 0.5 0.2 0.6 0.301 0.1 0.1 0.2 0.2 0.4 0.3 0.1 0.2 0.3 0.3 0.5 0.399 0.2 0.1 0.4 0.201 0.5 0.301 0.2 0 0.5 0.2 0.9 0.499 0.4 0.301 0.7 0.501 0.9 0.601 0.1 0.1 0.3 0.3 0.5 0.399 0.2 0.1 0.5 0.301 0.801 0.601 0.299 0.299 0.599 0.5 0.8 0.7 0.199 0.1 0.299 0.3 0.499 0.399 0.2 0.1 0.5 0.401 1 0.801s0.8 0.7 0.9 0.8 0.401 0.399 1 0.9c0.6 0.5 1 0.8 1.101 0.9 0.099 0.1 0.499 0.399 0.9 0.9 0.399 0.499 0.999 1 1.599 1.7s1.101 1.299 1.6 1.8c0.5 0.499 0.8 0.8 0.9 1 0.1 0.199 0.3 0.499 0.5 0.7 0.2 0.2 0.3 0.499 0.5 0.7 0.1 0.2 0.301 0.5 0.5 0.699 0.2 0.201 0.3 0.401 0.4 0.601 0.1 0.199 0.201 0.399 0.401 0.6 0.099 0.2 0.299 0.4 0.499 0.7s0.401 0.5 0.5 0.699c0.1 0.2 0.3 0.401 0.5 0.801 0.201 0.4 0.4 0.6 0.5 0.8 0.1 0.199 0.3 0.6 0.7 1.199 0.4 0.701 0.6 1.001 0.7 1.201 0.101 0.2 0.3 0.7 0.8 1.499 0.5 0.8 0.7 1.301 0.8 1.401s0.301 0.6 0.7 1.4c0.4 0.799 0.7 1.5 0.9 2.1 0.2 0.599 0.501 1.1 0.6 1.499 0.1 0.401 0.4 0.901 0.6 1.6 0.2 0.701 0.4 1.201 0.5 1.601 0.1 0.299 0.2 0.7 0.3 0.9 0.1 0.199 0.2 0.399 0.2 0.6 0 0.2 0.101 0.599 0.4 1.399 0.3 0.801 0.4 1.501 0.601 2.201 0.1 0.599 0.299 1.399 0.499 2.299 0.2 0.801 0.401 1.701 0.6 2.601 0.2 0.9 0.4 1.8 0.5 2.8 0.1 0.999 0.201 2.1 0.3 3.5 0.1 1.4 0.2 3.799 0.4 7.2 0.1 3.4 0.301 6.2 0.301 8.399l0.1 3.301s-0.601 0.1-1.601 0.299c-1.099 0.201-1.6 0.301-1.6 0.301s-0.499 0.1-1.6 0.3c-1 0.099-1.7 0.199-2 0.299-0.299 0.101-1.1 0.201-2.1 0.401-0.999 0.2-1.7 0.399-1.899 0.399-0.201 0-0.701 0.1-1.401 0.301-0.7 0.1-1.5 0.3-2.199 0.499-0.701 0.2-1.301 0.401-1.8 0.501-0.501 0.2-0.9 0.3-1.201 0.399-0.3 0.1-0.599 0.2-0.8 0.3-0.2 0-0.699 0.201-1.5 0.501-0.8 0.299-1.4 0.5-1.799 0.7-0.501 0.1-1 0.399-1.801 0.7-0.7 0.3-1.1 0.499-1.2 0.499s-0.9 0.401-2.4 1.1c-1.5 0.7-2.4 1.201-2.699 1.301-0.2 0.1-0.801 0.399-1.601 0.8l-1.199 0.599h-0.301l0.1 0.201z" fill="url(#linearGradient6644)"/>
    </g>
    <g transform="matrix(.35278 0 0 -.35278 34.33 18.065)">
      <path d="m0 0h0.3l2.8-1.4c0.3-0.1 1.2-0.6 2.7-1.3s2.3-1.1 2.4-1.1 0.5-0.2 1.2-0.5c0.8-0.3 1.3-0.6 1.8-0.7 0.4-0.2 1-0.4 1.8-0.7s1.3-0.5 1.5-0.5c0.2-0.1 0.5-0.2 0.8-0.3s0.7-0.2 1.2-0.4c0.5-0.1 1.1-0.3 1.8-0.5s1.5-0.4 2.2-0.5c0.7-0.2 1.2-0.3 1.4-0.3s0.9-0.2 1.9-0.4 1.8-0.3 2.1-0.4 1-0.2 2-0.3c1.1-0.2 1.6-0.3 1.6-0.3s0.5-0.1 1.6-0.3c1-0.2 1.6-0.3 1.6-0.3l-0.1-3.3c0-2.2-0.2-5-0.3-8.4-0.2-3.4-0.3-5.8-0.4-7.2s-0.2-2.5-0.3-3.5-0.3-1.9-0.5-2.8-0.4-1.8-0.6-2.6c-0.2-0.9-0.4-1.7-0.5-2.3-0.2-0.7-0.3-1.4-0.6-2.2s-0.4-1.2-0.4-1.4-0.1-0.4-0.2-0.6-0.2-0.6-0.3-0.9c-0.1-0.4-0.3-0.9-0.5-1.6s-0.5-1.2-0.6-1.6-0.4-0.9-0.6-1.5-0.5-1.3-0.9-2.1-0.6-1.3-0.7-1.4-0.3-0.6-0.8-1.4-0.7-1.3-0.8-1.5-0.3-0.5-0.7-1.2c-0.4-0.6-0.6-1-0.7-1.2s-0.3-0.4-0.5-0.8-0.4-0.6-0.5-0.8-0.3-0.4-0.5-0.7-0.4-0.5-0.5-0.7c-0.2-0.2-0.3-0.4-0.4-0.6s-0.2-0.4-0.4-0.6-0.4-0.5-0.5-0.7c-0.2-0.2-0.3-0.5-0.5-0.7s-0.4-0.5-0.5-0.7-0.4-0.5-0.9-1-1-1.1-1.6-1.8-1.2-1.2-1.6-1.7-0.8-0.8-0.9-0.9-0.5-0.4-1.1-0.9-0.9-0.8-1-0.9-0.4-0.4-0.9-0.8-0.8-0.7-1-0.8-0.3-0.3-0.5-0.4c-0.2-0.2-0.5-0.4-0.8-0.7s-0.6-0.5-0.8-0.6-0.4-0.3-0.5-0.4c-0.2-0.1-0.5-0.3-0.9-0.6s-0.7-0.5-0.9-0.5c-0.1-0.1-0.3-0.2-0.5-0.3s-0.4-0.2-0.5-0.4c-0.2-0.1-0.3-0.2-0.4-0.3s-0.3-0.2-0.6-0.3-0.6-0.3-1.1-0.5c-0.4-0.2-0.7-0.3-0.9-0.4l-0.2-0.1-0.3 0.1c-0.2 0-0.4 0.1-0.6 0.2s-0.5 0.3-1 0.5-0.8 0.4-0.8 0.5c-0.1 0.1-0.3 0.2-0.6 0.4s-0.5 0.3-0.7 0.4-0.5 0.3-0.9 0.5c-0.4 0.3-0.8 0.5-0.9 0.6s-0.3 0.2-0.5 0.4c-0.2 0.1-0.4 0.3-0.6 0.5s-0.5 0.4-0.9 0.8-0.7 0.6-1 0.9c-0.3 0.2-0.7 0.6-1.2 1.1s-0.9 0.8-1.1 0.9-0.5 0.4-1 0.9-0.8 0.7-0.9 0.8l-1.8 1.8c-0.2 0.2-0.6 0.6-1.2 1.3s-1 1.1-1.1 1.2-0.3 0.4-0.5 0.7-0.4 0.5-0.6 0.7c-0.1 0.2-0.3 0.4-0.4 0.6s-0.3 0.4-0.4 0.6c-0.2 0.2-0.3 0.4-0.4 0.6s-0.2 0.3-0.3 0.4-0.2 0.3-0.4 0.5-0.3 0.4-0.4 0.6-0.3 0.4-0.4 0.7c-0.2 0.3-0.3 0.5-0.4 0.6s-0.2 0.4-0.5 0.7-0.4 0.6-0.4 0.7-0.2 0.4-0.5 0.9-0.5 0.8-0.6 1-0.3 0.6-0.7 1.3-0.7 1.2-0.9 1.6-0.4 0.7-0.5 1-0.3 0.8-0.6 1.4-0.4 0.9-0.4 0.9-0.1 0.4-0.4 1-0.5 1.2-0.6 1.6-0.4 1-0.6 1.7c-0.3 0.8-0.5 1.6-0.8 2.5s-0.6 1.9-0.9 3.2-0.5 2.2-0.7 2.8c-0.1 0.6-0.3 1.5-0.5 2.7s-0.4 1.9-0.4 2.3-0.1 1.5-0.3 3.3c-0.1 1.9-0.2 3.3-0.3 4.2 0 0.9-0.1 2-0.2 3s-0.1 2.8-0.2 5.2-0.2 4.1-0.2 5.1v1.5l0.1 0.1c0.1 0.1 0.4 0.1 0.8 0.2s1 0.2 1.8 0.3c0.7 0.1 1.9 0.3 3.4 0.6s2.6 0.5 3.3 0.6 1.5 0.3 2.6 0.5 2 0.5 2.8 0.7 1.5 0.4 2 0.6c0.6 0.2 1 0.3 1.3 0.4s0.6 0.2 0.9 0.3 0.9 0.3 1.8 0.7c0.9 0.3 1.7 0.7 2.5 1s1.2 0.5 1.2 0.5c0.1 0 0.4 0.2 1.1 0.5s1.3 0.6 1.9 0.9 1.1 0.5 1.6 0.8 1.2 0.6 2 1l1.2 0.6z" fill="none" stroke="#5b482a"/>
    </g>
    <g transform="matrix(.35278 0 0 -.35278 34.419 18.224)">
      <path d="m0 0h0.3l2.8-1.4c0.3-0.1 1.2-0.6 2.7-1.3s2.3-1.1 2.4-1.1 0.5-0.2 1.2-0.5c0.8-0.3 1.3-0.6 1.8-0.7 0.4-0.2 1-0.4 1.8-0.7s1.3-0.5 1.5-0.5c0.2-0.1 0.5-0.2 0.8-0.3s0.7-0.2 1.2-0.4c0.5-0.1 1.1-0.3 1.8-0.5s1.5-0.4 2.2-0.5c0.7-0.2 1.2-0.3 1.4-0.3s0.9-0.2 1.9-0.4 1.8-0.3 2.1-0.4 1-0.2 2-0.3c1.1-0.2 1.6-0.3 1.6-0.3s0.5-0.1 1.6-0.3c1-0.2 1.6-0.3 1.6-0.3l-0.1-3.3c0-2.2-0.2-5-0.3-8.4-0.2-3.4-0.3-5.8-0.4-7.2s-0.2-2.5-0.3-3.5-0.3-1.9-0.5-2.8-0.4-1.8-0.6-2.6c-0.2-0.9-0.4-1.7-0.5-2.3-0.2-0.7-0.3-1.4-0.6-2.2s-0.4-1.2-0.4-1.4-0.1-0.4-0.2-0.6-0.2-0.6-0.3-0.9c-0.1-0.4-0.3-0.9-0.5-1.6s-0.5-1.2-0.6-1.6-0.4-0.9-0.6-1.5-0.5-1.3-0.9-2.1-0.6-1.3-0.7-1.4-0.3-0.6-0.8-1.4-0.7-1.3-0.8-1.5-0.3-0.5-0.7-1.2c-0.4-0.6-0.6-1-0.7-1.2s-0.3-0.4-0.5-0.8-0.4-0.6-0.5-0.8-0.3-0.4-0.5-0.7-0.4-0.5-0.5-0.7c-0.2-0.2-0.3-0.4-0.4-0.6s-0.2-0.4-0.4-0.6-0.4-0.5-0.5-0.7c-0.2-0.2-0.3-0.5-0.5-0.7s-0.4-0.5-0.5-0.7-0.4-0.5-0.9-1-1-1.1-1.6-1.8-1.2-1.2-1.6-1.7-0.8-0.8-0.9-0.9-0.5-0.4-1.1-0.9-0.9-0.8-1-0.9-0.4-0.4-0.9-0.8-0.8-0.7-1-0.8-0.3-0.3-0.5-0.4c-0.2-0.2-0.5-0.4-0.8-0.7s-0.6-0.5-0.8-0.6-0.4-0.3-0.5-0.4c-0.2-0.1-0.5-0.3-0.9-0.6s-0.7-0.5-0.9-0.5c-0.1-0.1-0.3-0.2-0.5-0.3s-0.4-0.2-0.5-0.4c-0.2-0.1-0.3-0.2-0.4-0.3s-0.3-0.2-0.6-0.3-0.6-0.3-1.1-0.5c-0.4-0.2-0.7-0.3-0.9-0.4l-0.2-0.1-0.3 0.1c-0.2 0-0.4 0.1-0.6 0.2s-0.5 0.3-1 0.5-0.8 0.4-0.8 0.5c-0.1 0.1-0.3 0.2-0.6 0.4s-0.5 0.3-0.7 0.4-0.5 0.3-0.9 0.5c-0.4 0.3-0.8 0.5-0.9 0.6s-0.3 0.2-0.5 0.4c-0.2 0.1-0.4 0.3-0.6 0.5s-0.5 0.4-0.9 0.8-0.7 0.6-1 0.9c-0.3 0.2-0.7 0.6-1.2 1.1s-0.9 0.8-1.1 0.9-0.5 0.4-1 0.9-0.8 0.7-0.9 0.8l-1.8 1.8c-0.2 0.2-0.6 0.6-1.2 1.3s-1 1.1-1.1 1.2-0.3 0.4-0.5 0.7-0.4 0.5-0.6 0.7c-0.1 0.2-0.3 0.4-0.4 0.6s-0.3 0.4-0.4 0.6c-0.2 0.2-0.3 0.4-0.4 0.6s-0.2 0.3-0.3 0.4-0.2 0.3-0.4 0.5-0.3 0.4-0.4 0.6-0.3 0.4-0.4 0.7c-0.2 0.3-0.3 0.5-0.4 0.6s-0.2 0.4-0.5 0.7-0.4 0.6-0.4 0.7-0.2 0.4-0.5 0.9-0.5 0.8-0.6 1-0.3 0.6-0.7 1.3-0.7 1.2-0.9 1.6-0.4 0.7-0.5 1-0.3 0.8-0.6 1.4-0.4 0.9-0.4 0.9-0.1 0.4-0.4 1-0.5 1.2-0.6 1.6-0.4 1-0.6 1.7c-0.3 0.8-0.5 1.6-0.8 2.5s-0.6 1.9-0.9 3.2-0.5 2.2-0.7 2.8c-0.1 0.6-0.3 1.5-0.5 2.7s-0.4 1.9-0.4 2.3-0.1 1.5-0.3 3.3c-0.1 1.9-0.2 3.3-0.3 4.2 0 0.9-0.1 2-0.2 3s-0.1 2.8-0.2 5.2-0.2 4.1-0.2 5.1v1.5l0.1 0.1c0.1 0.1 0.4 0.1 0.8 0.2s1 0.2 1.8 0.3c0.7 0.1 1.9 0.3 3.4 0.6s2.6 0.5 3.3 0.6 1.5 0.3 2.6 0.5 2 0.5 2.8 0.7 1.5 0.4 2 0.6c0.6 0.2 1 0.3 1.3 0.4s0.6 0.2 0.9 0.3 0.9 0.3 1.8 0.7c0.9 0.3 1.7 0.7 2.5 1s1.2 0.5 1.2 0.5c0.1 0 0.4 0.2 1.1 0.5s1.3 0.6 1.9 0.9 1.1 0.5 1.6 0.8 1.2 0.6 2 1l1.2 0.6z" fill="url(#pattern6806)"/>
    </g>
    <g transform="matrix(.35278 0 0 -.35278 36.835 37.538)">
      <path d="m0 0-0.1 0.1c0.1 0 0.3-0.2 0.4-0.2 0.6-0.3 1.2-1.1 1.7-1.5 0.5 1.6-1.2 2.9-1.6 4.7-0.5 2-0.3 4.2-2.1 4.9 1.7-2.1 1.6-5.1 2.7-7.5-0.1-0.3-0.2-0.3-0.4-0.5v0.1c0.5 1.1-0.6 2.1-0.9 3.2-0.2 0.7-0.1 1.6-0.3 2.3s-0.9 1.4-1.4 2.2c-0.9 1.9-1 4.3-1.8 5.7-0.6 1.1-1.6 1.8-2.2 2.7 1.1-2.9 1.4-6.9 1.1-9.9-0.8 3.4 0.1 7.9-1.9 10.7-0.9 1.3-2.5 2.2-3.3 3.5 0.7-1.7 2.1-3.1 1.4-5.5-0.4 1.2-0.7 2.4-1.1 3.6-2.9 1.7-2.6 5.7-4.5 7.4 0.6-2-0.3-5.6-0.5-7.5-0.3 4.8-1.2 9.4-5.8 12.2-0.4 1.5-1.8 3.3-2.7 4.1 0.8-2.3 1.4-5.5 1.3-7.7-0.4 3-0.8 6.8-2.1 8.9 0.3-1.5 0.8-3.8 0.5-5.1-0.3 2.5-1 5.6-2 7.4 0.1-1 0.6-2.6 0.4-3.3-0.3 2-1 3.7-2.7 5.1-0.2-0.6 0.7-1.6 0.3-1.9-0.5 1.5-1.2 3.6-2.6 4.2 0.1-0.7 0.5-2 0.2-2.4 0 2.1-1.1 4.3-3.1 4.9-1.2 0.3-2.3-1.2-3.5-0.5-0.5-0.2-0.7-1.1-1.1-1.5l-0.6-2.1c0.1-4.4 2.8-7.6 4.2-11.4 0.5-0.3 0.9-0.6 1.1-0.9-0.2 0.1-0.4 0.2-0.5 0.1 0.7-1.4 1.5-2.8 2.5-4.2 0.9-1.3 1.7-2.9 2.7-4.1 1.2-1.4 2.8-2.6 4-4.2 0.4-1.8 2.8-2.6 3.2-4.4 0.4-0.4 1.1-0.6 1.3-1.1-0.2 0.1-0.4 0.2-0.5 0.1 2.9-1.9 5-4.8 8.2-6.1-0.5-0.2-1.3 0.6-1.9 0.8-1 0.3 0.7-0.5 1.1-0.8 1.3-0.8 3.4-1.5 4.3-2.3-1.3 0.1-3.1 1.5-4.5 1.8 1.4-1.2 4.2-2.3 5.4-3.1-0.5-0.2-1.3 0.3-1.8 0 2.9-1.6 5.4-2.2 7.3-1.4-0.6 0.6-1.4 1.2-2 1.8-0.6-0.2-1.7-0.5-2.2-0.2 0.7 0.1 1.5-0.1 2 0.5-3.1 2.4-5.6 5.1-8.4 7.7-1.4-0.3-3.4-0.5-5 0.6 1.8-0.4 3.4-0.6 4.9-0.3-2.7 2.7-5.1 5.5-7.5 8.3-1.5 0.3-3.8 1.1-5.3 2 1.5-0.6 3-1 4.5-1-1.9 2.3-3.7 4.7-5.4 7.1-4 5.6-7.7 11.6-10 18 1.4-2.8 2.9-5.6 4.5-8.3 0.8-1.3 1.8-2.8 3-4.5-0.6 3.1-0.3 3.5-0.2 4.5v0.1-0.1c-0.2-1.6 0.1-3.5 1-5.7 2.3-3.2 5.4-7.2 9.5-11.9 0.4-0.5 1.1-1.2 2-2.1-0.2 2.4-0.7 5-1.4 7.5 0.9-2.4 1.9-5.9 2.3-8.4 4.6-4.7 12.3-12.1 12.4-12.3 0.4-0.1 0 0.5 0 0.7 0.3 0.1 0.1-1.3 0.9-1.4l-0.1-0.1c0.1-0.1 0.3-0.2 0.4-0.3h0.1c0.7-0.5 1.2-1.1 1.9-1.6 0.2-0.1 0.2-0.2 0.2-0.2l0.1-0.1-0.1 0.1h-0.1c-0.4 0.3-0.7 0.5-1 0.8-3 2.3-17.3 16.8-17.3 16.9-6.7 7.3-11.8 15.1-16.3 22.4 6.6-13.4 17.1-26.3 29.3-37.2 2.3-2 4.7-4.2 7.2-6.2-0.7 0.4-1.6 1.3-2.2 0.9 0.8-0.5 1.6-1.1 2.4-1 2.8-2.2 5.7-4.2 8.8-5.4-2.9 3.4-7.7 5.7-10.7 8.8m-30.7 28.1c-0.6-0.2-1.4 0-2.4 0.5 0.8-0.1 1.6-0.3 2.4-0.5m10.5 1.3c0.5-0.1 1-2.6 1.5-3.6-0.6 0.6-1 2.5-1.5 3.6" fill="#b59054"/>
      <path d="m0 0-0.1 0.1c0.1 0 0.3-0.2 0.4-0.2 0.6-0.3 1.2-1.1 1.7-1.5 0.5 1.6-1.2 2.9-1.6 4.7-0.5 2-0.3 4.2-2.1 4.9 1.7-2.1 1.6-5.1 2.7-7.5-0.1-0.3-0.2-0.3-0.4-0.5v0.1c0.5 1.1-0.6 2.1-0.9 3.2-0.2 0.7-0.1 1.6-0.3 2.3s-0.9 1.4-1.4 2.2c-0.9 1.9-1 4.3-1.8 5.7-0.6 1.1-1.6 1.8-2.2 2.7 1.1-2.9 1.4-6.9 1.1-9.9-0.8 3.4 0.1 7.9-1.9 10.7-0.9 1.3-2.5 2.2-3.3 3.5 0.7-1.7 2.1-3.1 1.4-5.5-0.4 1.2-0.7 2.4-1.1 3.6-2.9 1.7-2.6 5.7-4.5 7.4 0.6-2-0.3-5.6-0.5-7.5-0.3 4.8-1.2 9.4-5.8 12.2-0.4 1.5-1.8 3.3-2.7 4.1 0.8-2.3 1.4-5.5 1.3-7.7-0.4 3-0.8 6.8-2.1 8.9 0.3-1.5 0.8-3.8 0.5-5.1-0.3 2.5-1 5.6-2 7.4 0.1-1 0.6-2.6 0.4-3.3-0.3 2-1 3.7-2.7 5.1-0.2-0.6 0.7-1.6 0.3-1.9-0.5 1.5-1.2 3.6-2.6 4.2 0.1-0.7 0.5-2 0.2-2.4 0 2.1-1.1 4.3-3.1 4.9-1.2 0.3-2.3-1.2-3.5-0.5-0.5-0.2-0.7-1.1-1.1-1.5l-0.6-2.1c0.1-4.4 2.8-7.6 4.2-11.4 0.5-0.3 0.9-0.6 1.1-0.9-0.2 0.1-0.4 0.2-0.5 0.1 0.7-1.4 1.5-2.8 2.5-4.2 0.9-1.3 1.7-2.9 2.7-4.1 1.2-1.4 2.8-2.6 4-4.2 0.4-1.8 2.8-2.6 3.2-4.4 0.4-0.4 1.1-0.6 1.3-1.1-0.2 0.1-0.4 0.2-0.5 0.1 2.9-1.9 5-4.8 8.2-6.1-0.5-0.2-1.3 0.6-1.9 0.8-1 0.3 0.7-0.5 1.1-0.8 1.3-0.8 3.4-1.5 4.3-2.3-1.3 0.1-3.1 1.5-4.5 1.8 1.4-1.2 4.2-2.3 5.4-3.1-0.5-0.2-1.3 0.3-1.8 0 2.9-1.6 5.4-2.2 7.3-1.4-0.6 0.6-1.4 1.2-2 1.8-0.6-0.2-1.7-0.5-2.2-0.2 0.7 0.1 1.5-0.1 2 0.5-3.1 2.4-5.6 5.1-8.4 7.7-1.4-0.3-3.4-0.5-5 0.6 1.8-0.4 3.4-0.6 4.9-0.3-2.7 2.7-5.1 5.5-7.5 8.3-1.5 0.3-3.8 1.1-5.3 2 1.5-0.6 3-1 4.5-1-1.9 2.3-3.7 4.7-5.4 7.1-4 5.6-7.7 11.6-10 18 1.4-2.8 2.9-5.6 4.5-8.3 0.8-1.3 1.8-2.8 3-4.5-0.6 3.1-0.3 3.5-0.2 4.5v0.1-0.1c-0.2-1.6 0.1-3.5 1-5.7 2.3-3.2 5.4-7.2 9.5-11.9 0.4-0.5 1.1-1.2 2-2.1-0.2 2.4-0.7 5-1.4 7.5 0.9-2.4 1.9-5.9 2.3-8.4 4.6-4.7 12.3-12.1 12.4-12.3 0.4-0.1 0 0.5 0 0.7 0.3 0.1 0.1-1.3 0.9-1.4l-0.1-0.1c0.1-0.1 0.3-0.2 0.4-0.3h0.1c0.7-0.5 1.2-1.1 1.9-1.6 0.2-0.1 0.2-0.2 0.2-0.2l0.1-0.1-0.1 0.1h-0.1c-0.4 0.3-0.7 0.5-1 0.8-3 2.3-17.3 16.8-17.3 16.9-6.7 7.3-11.8 15.1-16.3 22.4 6.6-13.4 17.1-26.3 29.3-37.2 2.3-2 4.7-4.2 7.2-6.2-0.7 0.4-1.6 1.3-2.2 0.9 0.8-0.5 1.6-1.1 2.4-1 2.8-2.2 5.7-4.2 8.8-5.4-2.9 3.4-7.7 5.7-10.7 8.8zm-30.7 28.1c-0.6-0.2-1.4 0-2.4 0.5 0.8-0.1 1.6-0.3 2.4-0.5zm10.5 1.3c0.5-0.1 1-2.6 1.5-3.6-0.6 0.6-1 2.5-1.5 3.6z" fill="none" stroke="#4e412c" stroke-width=".75"/>
    </g>
    <g transform="matrix(.35278 0 0 -.35278 28.298 40.607)">
      <path d="m0 0c3 1.3 6 3.2 8.8 5.4 0.7-0.1 1.6 0.5 2.4 1-0.6 0.4-1.5-0.5-2.2-0.9 2.5 2 4.9 4.2 7.2 6.2 12.2 11 22.6 23.8 29.3 37.2-4.5-7.3-9.5-15.1-16.3-22.4 0 0-14.4-14.6-17.3-16.9-0.3-0.3-0.6-0.5-1-0.8h-0.1l-0.1-0.1 0.1 0.1c-0.1 0 0 0.2 0.2 0.2 0.6 0.5 1.2 1.1 1.9 1.6h0.1c0.1 0.1 0.3 0.2 0.4 0.3 0 0-0.1 0-0.1 0.1 0.9 0.1 0.6 1.5 0.9 1.4 0.1-0.2-0.3-0.9 0-0.7 0 0.2 7.8 7.6 12.4 12.3 0.4 2.5 1.4 6 2.3 8.4-0.7-2.5-1.2-5-1.4-7.5 0.9 0.9 1.6 1.6 2 2.1 4.1 4.7 7.2 8.6 9.5 11.9 0.9 2.3 1.2 4.2 1 5.7v0.1-0.1c0.1-1.1 0.4-1.4-0.2-4.5 1.2 1.7 2.2 3.2 3 4.5 1.6 2.7 3.1 5.5 4.5 8.3-2.3-6.5-5.9-12.4-10-18-1.7-2.4-3.5-4.8-5.4-7.1 1.5 0 3 0.5 4.5 1-1.5-0.9-3.7-1.7-5.3-2-2.3-2.9-4.8-5.7-7.5-8.3 1.5-0.2 3.1-0.1 4.9 0.3-1.6-1-3.6-0.9-5-0.6-2.8-2.6-5.4-5.3-8.4-7.7 0.5-0.6 1.3-0.4 2-0.5-0.5-0.4-1.6 0-2.2 0.2-0.6-0.6-1.4-1.2-2-1.8 1.9-0.8 4.4-0.3 7.3 1.4-0.5 0.2-1.3-0.2-1.8 0 1.2 0.8 4 1.9 5.4 3.1-1.4-0.3-3.2-1.7-4.5-1.8 0.9 0.8 3 1.5 4.3 2.3 0.5 0.3 2.1 1 1.1 0.8-0.6-0.2-1.5-1-1.9-0.8 3.2 1.3 5.3 4.2 8.2 6.1-0.1 0.2-0.3 0-0.5-0.1 0.2 0.5 1 0.7 1.3 1.1 0.4 1.8 2.8 2.6 3.2 4.4 1.2 1.6 2.7 2.8 4 4.2 1 1.2 1.8 2.8 2.7 4.1s1.8 2.7 2.5 4.2c-0.1 0.2-0.3 0-0.5-0.1 0.2 0.4 0.6 0.7 1.1 0.9 1.5 3.8 4.1 7 4.2 11.4l-0.6 2.1c-0.4 0.5-0.6 1.3-1.1 1.5-1.1-0.8-2.3 0.8-3.5 0.5-2-0.6-3.1-2.8-3.1-4.9-0.4 0.4 0 1.7 0.2 2.4-1.4-0.6-2.2-2.7-2.6-4.2-0.4 0.3 0.4 1.2 0.3 1.9-1.7-1.3-2.4-3.1-2.7-5.1-0.2 0.7 0.3 2.3 0.4 3.3-1-1.7-1.8-4.8-2-7.4-0.2 1.3 0.2 3.5 0.5 5.1-1.3-2.1-1.7-5.9-2.1-8.9-0.2 2.3 0.5 5.4 1.3 7.7-0.9-0.8-2.3-2.6-2.7-4.1-4.6-2.8-5.5-7.4-5.8-12.2-0.2 1.9-1.2 5.5-0.5 7.5-2-1.7-1.6-5.7-4.5-7.4-0.4-1.2-0.7-2.5-1.1-3.6-0.7 2.4 0.7 3.8 1.4 5.5-0.8-1.2-2.4-2.2-3.3-3.5-2-2.8-1.1-7.4-1.9-10.7-0.3 3 0 7.1 1.1 9.9-0.6-0.9-1.6-1.6-2.2-2.7-0.9-1.4-0.9-3.8-1.8-5.7-0.4-0.9-1.1-1.5-1.4-2.2s-0.1-1.6-0.3-2.3c-0.3-1.1-1.5-2-0.9-3.2v-0.1c-0.3 0.1-0.4 0.1-0.4 0.5 1.1 2.4 1 5.4 2.7 7.5-1.7-0.7-1.6-2.9-2.1-4.9-0.5-1.8-2.2-3.1-1.6-4.7 0.5 0.4 1.1 1.1 1.7 1.5 0.1 0.1 0.3 0.2 0.4 0.2l-0.1-0.1c-3.4-3.2-8.2-5.5-10.7-8.8m43.4 37.3c-0.9-0.5-1.7-0.7-2.4-0.5 0.8 0.2 1.6 0.4 2.4 0.5m-14.3-2.8c0.4 1.1 1 3.5 1.5 3.6-0.6-1.1-1-3-1.5-3.6" fill="#b59054"/>
      <path d="m0 0c3 1.3 6 3.2 8.8 5.4 0.7-0.1 1.6 0.5 2.4 1-0.6 0.4-1.5-0.5-2.2-0.9 2.5 2 4.9 4.2 7.2 6.2 12.2 11 22.6 23.8 29.3 37.2-4.5-7.3-9.5-15.1-16.3-22.4 0 0-14.4-14.6-17.3-16.9-0.3-0.3-0.6-0.5-1-0.8h-0.1l-0.1-0.1 0.1 0.1c-0.1 0 0 0.2 0.2 0.2 0.6 0.5 1.2 1.1 1.9 1.6h0.1c0.1 0.1 0.3 0.2 0.4 0.3 0 0-0.1 0-0.1 0.1 0.9 0.1 0.6 1.5 0.9 1.4 0.1-0.2-0.3-0.9 0-0.7 0 0.2 7.8 7.6 12.4 12.3 0.4 2.5 1.4 6 2.3 8.4-0.7-2.5-1.2-5-1.4-7.5 0.9 0.9 1.6 1.6 2 2.1 4.1 4.7 7.2 8.6 9.5 11.9 0.9 2.3 1.2 4.2 1 5.7v0.1-0.1c0.1-1.1 0.4-1.4-0.2-4.5 1.2 1.7 2.2 3.2 3 4.5 1.6 2.7 3.1 5.5 4.5 8.3-2.3-6.5-5.9-12.4-10-18-1.7-2.4-3.5-4.8-5.4-7.1 1.5 0 3 0.5 4.5 1-1.5-0.9-3.7-1.7-5.3-2-2.3-2.9-4.8-5.7-7.5-8.3 1.5-0.2 3.1-0.1 4.9 0.3-1.6-1-3.6-0.9-5-0.6-2.8-2.6-5.4-5.3-8.4-7.7 0.5-0.6 1.3-0.4 2-0.5-0.5-0.4-1.6 0-2.2 0.2-0.6-0.6-1.4-1.2-2-1.8 1.9-0.8 4.4-0.3 7.3 1.4-0.5 0.2-1.3-0.2-1.8 0 1.2 0.8 4 1.9 5.4 3.1-1.4-0.3-3.2-1.7-4.5-1.8 0.9 0.8 3 1.5 4.3 2.3 0.5 0.3 2.1 1 1.1 0.8-0.6-0.2-1.5-1-1.9-0.8 3.2 1.3 5.3 4.2 8.2 6.1-0.1 0.2-0.3 0-0.5-0.1 0.2 0.5 1 0.7 1.3 1.1 0.4 1.8 2.8 2.6 3.2 4.4 1.2 1.6 2.7 2.8 4 4.2 1 1.2 1.8 2.8 2.7 4.1s1.8 2.7 2.5 4.2c-0.1 0.2-0.3 0-0.5-0.1 0.2 0.4 0.6 0.7 1.1 0.9 1.5 3.8 4.1 7 4.2 11.4l-0.6 2.1c-0.4 0.5-0.6 1.3-1.1 1.5-1.1-0.8-2.3 0.8-3.5 0.5-2-0.6-3.1-2.8-3.1-4.9-0.4 0.4 0 1.7 0.2 2.4-1.4-0.6-2.2-2.7-2.6-4.2-0.4 0.3 0.4 1.2 0.3 1.9-1.7-1.3-2.4-3.1-2.7-5.1-0.2 0.7 0.3 2.3 0.4 3.3-1-1.7-1.8-4.8-2-7.4-0.2 1.3 0.2 3.5 0.5 5.1-1.3-2.1-1.7-5.9-2.1-8.9-0.2 2.3 0.5 5.4 1.3 7.7-0.9-0.8-2.3-2.6-2.7-4.1-4.6-2.8-5.5-7.4-5.8-12.2-0.2 1.9-1.2 5.5-0.5 7.5-2-1.7-1.6-5.7-4.5-7.4-0.4-1.2-0.7-2.5-1.1-3.6-0.7 2.4 0.7 3.8 1.4 5.5-0.8-1.2-2.4-2.2-3.3-3.5-2-2.8-1.1-7.4-1.9-10.7-0.3 3 0 7.1 1.1 9.9-0.6-0.9-1.6-1.6-2.2-2.7-0.9-1.4-0.9-3.8-1.8-5.7-0.4-0.9-1.1-1.5-1.4-2.2s-0.1-1.6-0.3-2.3c-0.3-1.1-1.5-2-0.9-3.2v-0.1c-0.3 0.1-0.4 0.1-0.4 0.5 1.1 2.4 1 5.4 2.7 7.5-1.7-0.7-1.6-2.9-2.1-4.9-0.5-1.8-2.2-3.1-1.6-4.7 0.5 0.4 1.1 1.1 1.7 1.5 0.1 0.1 0.3 0.2 0.4 0.2l-0.1-0.1c-3.4-3.2-8.2-5.5-10.7-8.8zm43.4 37.3c-0.9-0.5-1.7-0.7-2.4-0.5 0.8 0.2 1.6 0.4 2.4 0.5zm-14.3-2.8c0.4 1.1 1 3.5 1.5 3.6-0.6-1.1-1-3-1.5-3.6z" fill="none" stroke="#4e412c" stroke-width=".75"/>
    </g>
    <g transform="matrix(.35278 0 0 -.35278 34.472 45.863)">
      <path d="m0 0-5.556 11.627 1.753 48.328 5.899 0.178 3.044-48.163z" fill="#b59054"/>
      <path d="m0 0-5.556 11.627 1.753 48.328 5.899 0.178 3.044-48.163z" fill="none" stroke="#4e412c" stroke-width=".75"/>
    </g>
    <g transform="matrix(.35278 0 0 -.35278 33.307 23.039)">
      <path d="m0 0v9.9s2.5 5.8 5.8 0.1v-9.9h-5.8z" fill="#b59054"/>
      <path d="m0 0v9.9s2.5 5.8 5.8 0.1v-9.9h-5.8z" fill="none" stroke="#4e412c" stroke-width=".75"/>
    </g>
    <g transform="matrix(.35278 0 0 -.35278 34.33 45.793)">
      <path d="m0 0v60.1" fill="none" stroke="#4e412c" stroke-width=".75"/>
    </g>
    <g transform="matrix(.35278 0 0 -.35278 31.12 24.662)">
      <path d="m0 0 0.7 4.6h16.9l0.7-4.6z" fill="#b59054"/>
      <path d="m0 0 0.7 4.6h16.9l0.7-4.6z" fill="none" stroke="#4e412c" stroke-width=".75"/>
    </g>
    <g transform="matrix(.35278 0 0 -.35278 27.204 12.738)">
      <path d="m0 0c-0.4 0.3-1.3 0.6-3.4-0.2-1.6-0.6-2.4-2.4-1.8-3.7 0.5-1.3 1.9-1.4 3.4-0.8 4.4 1.7 3.6 7.1 2.7 11.2-0.7 3.1-2.2 2.3-1.5-0.6 0.3-1 0.4-1.6 0.7-2.6 0.8-3.1 2.3-6.5 5-5.8 2.2 0.5 3.2 1.8 2.9 3.8-0.4 2.5-3.3 1.8-2.8-0.7 0.4-1.8 2-2.6 4.1-2.2 2 0.3 3.5 1.5 3.3 3.3-0.1 1-1 1.6-2.2 1.8" fill="none" stroke="#b59054" stroke-linecap="round" stroke-linejoin="round" stroke-miterlimit="3.864"/>
    </g>
    <g transform="matrix(.35278 0 0 -.35278 32.814 11.221)" fill="none" stroke="#b59054" stroke-miterlimit="3.864">
      <path d="m0 0c-1.9-0.6-3.2-1.9-3-3.6 0.1-1.3 1.3-1.6 2.7-1.5 0.6 0 0.8 0.2 1.4 0.3" stroke-linecap="round" stroke-linejoin="round"/>
      <path d="m0 0c-1.9-0.6-3.2-1.9-3-3.6 0.1-1.3 1.3-1.6 2.7-1.5 0.6 0 0.8 0.2 1.4 0.3"/>
    </g>
    <g transform="matrix(.35278 0 0 -.35278 31.261 12.42)">
      <path d="m0 0c1.4 0.2 2.2 0.3 3.6 0.5" fill="none" stroke="#b59054" stroke-linecap="round" stroke-linejoin="round" stroke-miterlimit="3.864"/>
    </g>
    <g transform="matrix(.35278 0 0 -.35278 33.978 11.397)">
      <path d="m0 0c-1.4-0.3-2.2-1.3-2.1-2.5 0-1.2 1.2-2 2.4-2 1.5 0 2.8 1.1 2.9 2.5s-0.4 1.9-1.8 1.9c-0.6-0.1-0.8-0.6-0.4-1 0.4-0.3 0.9-0.4 1.5-0.4 1.3-0.1 1.8 1.1 3.1 0.9 1.1-0.1 1.5-1.2 1.4-2.1-0.1-0.8-0.3-1.3-0.4-2.1 0.1 0.7 0.2 1.1 0.3 1.8 0.2 1.1 1.2 2 2.4 1.8 0.8-0.1 1.4-0.8 1.2-1.5-0.3-1.2-0.2-1-0.5-2.2-0.1-0.4 0.3-0.5 0.6-0.6 1.4-0.3 2.2 0.9 3.1 1.9 1.6 1.8 2.3 3.1 3.1 5.3 1.3 3.9-1 4.1-2.1 0.3-0.5-1.8-0.7-2.8-0.7-4.6 0.1-1.5-0.7-3.6 0.9-4.1 0.7-0.2 1.7 0.4 2 1.1 0.7 1.4 0.7 1.5 1.2 2.7-0.4-1.3-0.2-0.9-0.5-1.6-1.2-3.5 0.1-3.4 0.5-3 1.7 1 1.7 3.7 3.8 2.9 0.8-0.3 1.3-1.3 0.9-2-0.5-1.1-0.8-1.6-1.3-2.7 0.7 1.7 1.8 3.8 3.6 2.9 2-1-1.2-3.9 0.6-4.9 1.5-0.8 3.2-0.4 4.1 0.9 1.1 1.6-0.8 3.1-2.1 0.9-0.6-1.1-0.3-4 2-3.7" fill="none" stroke="#b59054" stroke-linecap="round" stroke-linejoin="round" stroke-miterlimit="3.864"/>
    </g>
    <g transform="matrix(.35278 0 0 -.35278 40.716 11.397)">
      <path d="m0 0c0-0.1-0.1-0.1-0.1-0.2" fill="none" stroke="#b59054" stroke-linecap="round" stroke-linejoin="round" stroke-miterlimit="3.864"/>
    </g>

    <text class="label">
      <textPath href="#curve" alignment-baseline="central" startOffset="50%" text-anchor="middle">
        EDITOR ARTICOLE
      </textPath>
    </text>
  </g>
</svg>
