<svg width="50.094mm" height="59.772mm" version="1.1" viewBox="0 0 50.094 59.772" xmlns="http://www.w3.org/2000/svg">
  <defs>
    <linearGradient id="linearGradient17010" x2="1" gradientTransform="matrix(121.26 70.012 -70.012 121.26 698.11 421.49)" gradientUnits="userSpaceOnUse">
      <stop stop-color="#dee3e6" offset="0"/>
      <stop stop-color="#dee3e6" offset=".005618"/>
      <stop stop-color="#fffde5" offset=".25281"/>
      <stop stop-color="#fffde5" offset=".30313"/>
      <stop stop-color="#d6cdc1" offset=".59551"/>
      <stop stop-color="#d6cdc1" offset=".60107"/>
      <stop stop-color="#ededee" offset=".78652"/>
      <stop stop-color="#d8d5bb" offset="1"/>
    </linearGradient>
    <linearGradient id="linearGradient17054" x2="1" gradientTransform="matrix(83.152 48.008 48.008 -83.152 717.17 432.49)" gradientUnits="userSpaceOnUse">
      <stop stop-color="#dee3e6" offset="0"/>
      <stop stop-color="#dee3e6" offset=".005618"/>
      <stop stop-color="#fffde5" offset=".25281"/>
      <stop stop-color="#fffde5" offset=".30313"/>
      <stop stop-color="#d6cdc1" offset=".59551"/>
      <stop stop-color="#d6cdc1" offset=".60107"/>
      <stop stop-color="#ededee" offset=".78652"/>
      <stop stop-color="#d8d5bb" offset="1"/>
    </linearGradient>
    <linearGradient id="linearGradient17118" x2="1" gradientTransform="matrix(47.836 27.618 27.618 -47.836 735.68 459.48)" gradientUnits="userSpaceOnUse">
      <stop stop-color="#dee3e6" offset="0"/>
      <stop stop-color="#dee3e6" offset=".005618"/>
      <stop stop-color="#fffde5" offset=".25281"/>
      <stop stop-color="#fffde5" offset=".30313"/>
      <stop stop-color="#d6cdc1" offset=".59551"/>
      <stop stop-color="#d6cdc1" offset=".60107"/>
      <stop stop-color="#ededee" offset=".78652"/>
      <stop stop-color="#d8d5bb" offset="1"/>
    </linearGradient>
  </defs>
  <g transform="translate(-5.4759 -17.651)">
    <g transform="matrix(.35278 0 0 -.35278 22.392 77.423)">
      <path d="m0 0 26.7 69.5-34.5 13.2-26.7-69.4 21.2 3.3z" fill="#b5b491"/>
    </g>
    <g transform="matrix(.35278 0 0 -.35278 39.36 77.423)">
      <path d="m0 0-26.6 69.5 34.5 13.2 26.6-69.4-21.2 3.3z" fill="#b5b491"/>
    </g>
    <g transform="matrix(.35278 0 0 -.35278 21.686 77.071)">
      <path d="m0 0 26.7 69.5-34.5 13.2-26.7-69.4 21.2 3.3z" fill="#006837"/>
    </g>
    <g transform="matrix(.35278 0 0 -.35278 38.655 77.071)">
      <path d="m0 0-26.6 69.5 34.5 13.2 26.6-69.4-21.2 3.3z" fill="#006837"/>
    </g>
    <g transform="matrix(.35278 0 0 -.35278 30.523 18.004)">
      <path d="m0 0c38.66 0 70-31.34 70-70s-31.34-70-70-70-70 31.34-70 70 31.34 70 70 70z" fill="none" stroke="#b5b491" stroke-width="2"/>
    </g>
    <g transform="matrix(.35278 0 0 -.35278 -237.15 203.74)">
      <path d="m688.75 456.49c0-38.66 31.34-70 70-70 38.659 0 69.999 31.34 69.999 70s-31.34 70-69.999 70c-38.66 0-70-31.34-70-70" fill="url(#linearGradient17010)"/>
    </g>
    <g transform="matrix(.35278 0 0 -.35278 30.523 19.485)">
      <path d="m0 0c36.34 0 65.8-29.46 65.8-65.8s-29.46-65.8-65.8-65.8-65.8 29.46-65.8 65.8 29.46 65.8 65.8 65.8" fill="#006837"/>
    </g>
    <g transform="matrix(.35278 0 0 -.35278 -237.15 203.74)">
      <path d="m710.74 456.49c0-26.51 21.49-48 48.001-48 26.509 0 48 21.49 48 48s-21.491 48-48 48c-26.511 0-48.001-21.49-48.001-48" fill="url(#linearGradient17054)"/>
    </g>
    <g transform="matrix(.35278 0 0 -.35278 23.97 24.523)">
      <path d="m0 0c-0.4 0.3-1.3 0.6-3.4-0.2-1.6-0.6-2.4-2.4-1.8-3.7 0.5-1.3 1.9-1.4 3.4-0.8 4.4 1.7 3.6 7.1 2.7 11.2-0.7 3.1-2.2 2.3-1.5-0.6 0.3-1 0.4-1.6 0.7-2.6 0.8-3.1 2.3-6.5 5-5.8 2.2 0.5 3.2 1.8 2.9 3.8-0.4 2.5-3.3 1.8-2.8-0.7 0.4-1.8 2-2.6 4.1-2.2 2 0.3 3.5 1.5 3.3 3.3-0.1 1-1 1.6-2.2 1.8" fill="none" stroke="#b5b491" stroke-linecap="round" stroke-linejoin="round" stroke-miterlimit="3.864"/>
    </g>
    <g transform="matrix(.35278 0 0 -.35278 29.579 23.006)" fill="none" stroke="#b5b491" stroke-miterlimit="3.864">
      <path d="m0 0c-1.9-0.6-3.2-1.9-3-3.6 0.1-1.3 1.3-1.6 2.7-1.5 0.6 0 0.9 0.2 1.4 0.3" stroke-linecap="round" stroke-linejoin="round"/>
      <path d="m0 0c-1.9-0.6-3.2-1.9-3-3.6 0.1-1.3 1.3-1.6 2.7-1.5 0.6 0 0.9 0.2 1.4 0.3"/>
    </g>
    <g transform="matrix(.35278 0 0 -.35278 28.027 24.205)">
      <path d="m0 0c1.4 0.2 2.2 0.3 3.5 0.5" fill="none" stroke="#b5b491" stroke-linecap="round" stroke-linejoin="round" stroke-miterlimit="3.864"/>
    </g>
    <g transform="matrix(.35278 0 0 -.35278 30.743 23.182)">
      <path d="m0 0c-1.4-0.3-2.2-1.3-2.1-2.5 0-1.2 1.2-2 2.4-2 1.5 0 2.8 1.1 2.9 2.5s-0.4 1.9-1.8 1.9c-0.6-0.1-0.8-0.6-0.4-1 0.4-0.3 0.9-0.4 1.5-0.4 1.3-0.1 1.8 1.1 3.1 0.9 1.1-0.1 1.5-1.2 1.4-2.1-0.1-0.8-0.3-1.3-0.4-2.1 0.1 0.7 0.2 1.1 0.3 1.8 0.2 1.1 1.2 2 2.4 1.8 0.8-0.1 1.4-0.8 1.2-1.5-0.3-1.2-0.2-1-0.5-2.2-0.1-0.4 0.3-0.5 0.6-0.6 1.4-0.3 2.2 0.9 3.1 1.9 1.7 1.8 2.3 3.1 3.1 5.3 1.3 3.9-1 4.1-2.1 0.3-0.5-1.8-0.7-2.8-0.7-4.6 0.1-1.5-0.7-3.6 0.9-4.1 0.7-0.2 1.7 0.4 2 1.1 0.7 1.4 0.7 1.5 1.2 2.7-0.4-1.3-0.2-0.9-0.5-1.6-1.2-3.5 0.1-3.4 0.5-3 1.7 1 1.7 3.7 3.8 2.9 0.8-0.3 1.3-1.3 0.9-2-0.5-1.1-0.8-1.6-1.3-2.7 0.7 1.7 1.8 3.8 3.6 2.9 2-1-1.2-3.9 0.6-4.9 1.5-0.8 3.2-0.4 4.1 0.9 1.1 1.6-0.8 3.1-2.1 0.9-0.6-1.1-0.3-4 2-3.7" fill="none" stroke="#b5b491" stroke-linecap="round" stroke-linejoin="round" stroke-miterlimit="3.864"/>
    </g>
    <g transform="matrix(.35278 0 0 -.35278 37.481 23.182)">
      <path d="m0 0c0-0.1-0.1-0.1-0.1-0.2" fill="none" stroke="#b5b491" stroke-linecap="round" stroke-linejoin="round" stroke-miterlimit="3.864"/>
    </g>
    <g transform="matrix(.35278 0 0 -.35278 -237.15 203.74)">
      <path d="m738.1 489.29c-1.1 0-2-0.9-2-2v-28c0-1.101 0.9-2.001 2-2.001h43c1.1 0 2 0.9 2 2.001v28c0 1.1-0.9 2-2 2z" fill="url(#linearGradient17118)"/>
    </g>
    <g fill="#b5b491">
      <path d="m30.453 47.602h0.7426v0.7426h-0.7426z"/>
      <path d="m28.968 47.602h0.7426v0.7426h-0.7426z"/>
      <path d="m27.483 47.602h0.7426v0.7426h-0.7426z"/>
      <path d="m33.423 47.602h0.7426v0.7426h-0.7426z"/>
      <path d="m31.938 47.602h0.7426v0.7426h-0.7426z"/>
      <path d="m30.453 49.087h0.7426v0.7426h-0.7426z"/>
      <path d="m28.968 49.087h0.7426v0.7426h-0.7426z"/>
      <path d="m31.938 49.087h0.7426v0.7426h-0.7426z"/>
      <path d="m29.339 50.572h2.9704v0.7426h-2.9704z"/>
    </g>
    <g transform="matrix(.35278 0 0 -.35278 36.394 47.602)">
      <path d="m0 0c-0.779-3e-3 -1.529-0.296-2.105-0.821v0.821h-2.105v-2.105h1.246c-0.124-0.337-0.19-0.693-0.193-1.052v-1.053h-1.053v-2.105h1.053v-1.298l-2.081 1.248c-0.331 0.198-0.696 0.331-1.077 0.391v1.764h-2.105v-2.105h0.211c-1.158-0.616-1.773-1.921-1.508-3.206 0.148-0.766 0.594-1.443 1.24-1.88l1.691-1.229h-17.998l1.655 1.204c0.877 0.577 1.386 1.574 1.337 2.623-0.048 1.049-0.646 1.995-1.573 2.488h0.211v2.105h-2.105v-1.764c-0.381-0.059-0.747-0.192-1.077-0.391l-2.081-1.248v1.298h1.053v2.105h-1.053v1.053c-3e-3 0.359-0.069 0.715-0.193 1.052h1.246v2.105h-2.105v-0.821c-0.851 0.787-2.07 1.03-3.158 0.631v2.295h33.679v-2.294c-0.337 0.124-0.693 0.187-1.052 0.189m12.63 0c-0.777 0-1.527-0.287-2.105-0.806-1.198 1.075-3.012 1.075-4.21 0-0.856 0.776-2.072 1.014-3.158 0.617v3.346c0 0.582-0.471 1.053-1.052 1.053h-45.783c-0.871 0-1.578 0.707-1.578 1.579s0.707 1.578 1.578 1.578h10.525c1.75 4e-3 3.257 1.234 3.611 2.947l-2.064 0.421c-0.15-0.735-0.797-1.263-1.547-1.263h-10.525c-2.034 0-3.683-1.649-3.683-3.683 0-2.035 1.649-3.684 3.683-3.684h8.946v-2.294c-1.085 0.397-2.3 0.159-3.157-0.617-1.197 1.075-3.012 1.075-4.21 0-0.928 0.83-2.256 1.037-3.393 0.529-1.136-0.508-1.868-1.636-1.869-2.88v-11.578h2.105v11.578c0 0.581 0.471 1.052 1.052 1.052s1.053-0.471 1.053-1.052v-4.21c0-0.582 0.471-1.053 1.052-1.053s1.052 0.471 1.052 1.053v4.21c0 0.581 0.472 1.052 1.053 1.052s1.052-0.471 1.052-1.052v-4.21c0-0.582 0.472-1.053 1.053-1.053s1.052 0.471 1.052 1.053v4.21c0 0.581 0.472 1.052 1.053 1.052s1.052-0.471 1.052-1.052v-4.21c0-0.582 0.472-1.053 1.053-1.053s1.052 0.471 1.052 1.053v4.21c0 0.581 0.472 1.052 1.053 1.052s1.052-0.471 1.052-1.052v-6.315c1e-3 -0.38 0.205-0.73 0.535-0.916 0.33-0.187 0.735-0.181 1.06 0.014l3.674 2.203c0.302 0.182 0.683 0.168 0.971-0.035s0.429-0.557 0.359-0.902c-0.051-0.246-0.202-0.459-0.416-0.59l-4.027-2.932h-0.051v-0.037l-1.672-1.216 1.24-1.703 1.169 0.851h23.786l1.169-0.851 1.24 1.703-1.672 1.215v0.038h-0.052l-4.062 2.956c-0.395 0.27-0.506 0.803-0.251 1.208 0.255 0.404 0.784 0.535 1.198 0.295l3.674-2.203c0.325-0.197 0.732-0.204 1.063-0.017s0.536 0.538 0.535 0.919v6.315c0 0.581 0.471 1.052 1.052 1.052s1.052-0.471 1.052-1.052v-4.21c0-0.582 0.472-1.053 1.053-1.053s1.052 0.471 1.052 1.053v4.21c0 0.581 0.472 1.052 1.053 1.052s1.052-0.471 1.052-1.052v-4.21c0-0.582 0.472-1.053 1.053-1.053s1.052 0.471 1.052 1.053v4.21c0 0.581 0.472 1.052 1.053 1.052s1.052-0.471 1.052-1.052v-4.21c0-0.582 0.471-1.053 1.053-1.053 0.581 0 1.052 0.471 1.052 1.053v4.21c0 0.581 0.471 1.052 1.053 1.052 0.581 0 1.052-0.471 1.052-1.052v-11.578h2.105v11.578c0 1.743-1.413 3.157-3.157 3.157" fill="#b5b491"/>
    </g>
    <g transform="matrix(.35278 0 0 -.35278 22.656 32.008)">
      <path d="m0 0c0 1.162 0.943 2.105 2.105 2.105h42.099c1.163 0 2.105-0.943 2.105-2.105v-27.364c0-1.163-0.942-2.105-2.105-2.105h-42.099c-1.162 0-2.105 0.942-2.105 2.105zm28.009-35.784h-9.708l1.403 4.21h6.902zm-25.904 4.21h15.38l-1.403-4.21h-2.4v-2.105h18.945v2.105h-2.4l-1.403 4.21h15.38c2.325 0 4.21 1.885 4.21 4.21v27.364c0 2.325-1.885 4.21-4.21 4.21h-42.099c-2.325 0-4.21-1.885-4.21-4.21v-27.364c0-2.325 1.885-4.21 4.21-4.21" fill="#b5b491"/>
    </g>
    <path d="m24.141 32.878h13.334v0.7426h-13.334z" fill="#b5b491"/>
    <path d="m24.141 34.64h13.334v0.7426h-13.334z" fill="#b5b491"/>
    <g transform="matrix(.35278 0 0 -.35278 24.167 62.574)">
      <path d="m0 0c0.79 1.997 1.581 3.993 2.372 5.99 1.5-0.594 3.024-1.104 4.565-1.53-0.068-0.245-0.135-0.489-0.203-0.734-1.28 0.354-2.549 0.766-3.803 1.234-0.23-0.616-0.46-1.232-0.689-1.848 1.224-0.457 2.462-0.862 3.711-1.216-0.068-0.242-0.137-0.485-0.205-0.727-1.269 0.359-2.527 0.77-3.771 1.234-0.256-0.684-0.511-1.37-0.767-2.054 1.443-0.539 2.904-1.01 4.379-1.412-0.066-0.245-0.133-0.489-0.2-0.733-1.82 0.496-3.619 1.095-5.389 1.796" fill="#b5b491"/>
    </g>
    <g transform="matrix(.35278 0 0 -.35278 26.944 63.149)">
      <path d="m0 0c0.517-0.116 1.036-0.223 1.556-0.322 0.482-0.092 0.869-0.118 1.156-0.086 0.288 0.032 0.523 0.108 0.707 0.224 0.26 0.165 0.475 0.408 0.65 0.728 0.173 0.32 0.292 0.722 0.358 1.203 0.093 0.667 0.044 1.197-0.134 1.589-0.18 0.392-0.421 0.675-0.727 0.85-0.221 0.125-0.591 0.231-1.109 0.331-0.462 0.088-0.923 0.183-1.383 0.286l-1.074-4.803m-1.141-0.514c0.509 2.087 1.019 4.173 1.528 6.259 0.739-0.18 1.481-0.342 2.225-0.484 0.505-0.097 0.886-0.191 1.143-0.297 0.36-0.144 0.656-0.344 0.892-0.603 0.309-0.333 0.525-0.731 0.647-1.196 0.122-0.466 0.154-0.984 0.086-1.554-0.057-0.486-0.171-0.908-0.345-1.269-0.173-0.358-0.378-0.648-0.613-0.866-0.236-0.22-0.486-0.381-0.751-0.486-0.264-0.105-0.577-0.167-0.934-0.183-0.359-0.014-0.764 0.019-1.212 0.103-0.892 0.168-1.781 0.361-2.666 0.576" fill="#b5b491"/>
    </g>
    <g transform="matrix(.35278 0 0 -.35278 29.247 63.777)">
      <path d="M 0,0 C 0.189,2.139 0.378,4.278 0.567,6.417 0.856,6.392 1.145,6.369 1.435,6.349 1.287,4.207 1.14,2.064 0.993,-0.078 0.662,-0.055 0.331,-0.029 0,0" fill="#b5b491"/>
    </g>
    <g transform="matrix(.35278 0 0 -.35278 30.89 63.847)">
      <path d="m0 0-0.015 5.682c-0.735-2e-3 -1.469 0.013-2.203 0.047 0.012 0.253 0.024 0.507 0.035 0.76 1.736-0.079 3.476-0.058 5.21 0.065 0.018-0.253 0.036-0.506 0.054-0.759-0.737-0.052-1.474-0.086-2.211-0.102 0.041-1.894 0.083-3.787 0.125-5.681-0.332-7e-3 -0.663-0.011-0.995-0.012" fill="#b5b491"/>
    </g>
    <g transform="matrix(.35278 0 0 -.35278 32.553 62.659)">
      <path d="m0 0c0.078-0.774 0.37-1.36 0.895-1.749 0.523-0.389 1.155-0.535 1.875-0.426 0.734 0.112 1.3 0.442 1.682 0.974 0.382 0.531 0.479 1.207 0.313 2.018-0.105 0.514-0.292 0.942-0.552 1.29-0.262 0.347-0.587 0.592-0.976 0.742-0.39 0.149-0.799 0.188-1.234 0.122-0.619-0.094-1.123-0.367-1.529-0.831-0.406-0.465-0.571-1.176-0.474-2.14m-0.961-0.075c-0.086 1.066 0.156 1.924 0.689 2.585 0.534 0.662 1.243 1.047 2.159 1.187 0.601 0.092 1.162 0.045 1.7-0.142 0.537-0.188 0.989-0.497 1.357-0.938 0.366-0.441 0.626-0.974 0.767-1.601 0.144-0.639 0.13-1.241-0.056-1.808-0.185-0.568-0.529-1.039-1.034-1.404-0.504-0.365-1.087-0.599-1.736-0.698-0.703-0.107-1.354-0.044-1.939 0.185-0.584 0.226-1.038 0.587-1.361 1.067-0.323 0.479-0.501 1.005-0.546 1.567" fill="#b5b491"/>
    </g>
    <g transform="matrix(.35278 0 0 -.35278 35.274 61.985)">
      <path d="m0 0c0.645 0.176 1.287 0.365 1.926 0.568 0.408 0.131 0.713 0.275 0.915 0.429 0.203 0.155 0.332 0.337 0.391 0.545 0.058 0.209 0.051 0.412-0.019 0.607-0.103 0.287-0.3 0.482-0.585 0.589-0.287 0.108-0.664 0.082-1.141-0.073-0.679-0.219-1.361-0.422-2.047-0.609 0.187-0.686 0.373-1.371 0.56-2.056m-0.024-3.727c-0.524 2.082-1.048 4.165-1.572 6.247 0.95 0.239 1.893 0.51 2.829 0.812 0.565 0.182 1.01 0.277 1.341 0.271 0.332-4e-3 0.636-0.11 0.915-0.318 0.28-0.209 0.485-0.475 0.612-0.807 0.163-0.426 0.15-0.846-0.048-1.252-0.196-0.409-0.608-0.771-1.235-1.069 0.273-0.024 0.489-0.062 0.648-0.118 0.34-0.125 0.686-0.303 1.043-0.537 0.603-0.402 1.218-0.793 1.846-1.173-0.394-0.157-0.791-0.308-1.188-0.454-0.47 0.303-0.933 0.612-1.388 0.927-0.398 0.272-0.712 0.479-0.95 0.618-0.237 0.136-0.435 0.224-0.597 0.258-0.16 0.035-0.315 0.047-0.465 0.034-0.109-0.012-0.281-0.053-0.515-0.123-0.352-0.105-0.705-0.205-1.058-0.301 0.251-0.921 0.502-1.841 0.752-2.761-0.323-0.088-0.646-0.173-0.97-0.254" fill="#b5b491"/>
    </g>
  </g>
</svg>
