<svg width="50.094mm" height="60.069mm" version="1.1" viewBox="0 0 50.094 60.069" xmlns="http://www.w3.org/2000/svg">
  <defs>
    <linearGradient id="linearGradient15740" x2="1" gradientTransform="matrix(121.26 70.012 -70.012 121.26 873.69 623.51)" gradientUnits="userSpaceOnUse">
      <stop stop-color="#fffbcc" offset="0"/>
      <stop stop-color="#fffbcc" offset=".10611"/>
      <stop stop-color="#eed688" offset=".19345"/>
      <stop stop-color="#ebbb10" offset=".43201"/>
      <stop stop-color="#ebbb10" offset=".76914"/>
      <stop stop-color="#c3922e" offset="1"/>
    </linearGradient>
    <linearGradient id="linearGradient15784" x2="1" gradientTransform="matrix(96 0 0 -96 886.32 658.52)" gradientUnits="userSpaceOnUse">
      <stop stop-color="#fffbcc" offset="0"/>
      <stop stop-color="#fffbcc" offset=".10611"/>
      <stop stop-color="#eed688" offset=".19345"/>
      <stop stop-color="#ebbb10" offset=".43201"/>
      <stop stop-color="#ebbb10" offset=".76914"/>
      <stop stop-color="#c3922e" offset="1"/>
    </linearGradient>
    <clipPath id="clipPath15830">
      <path d="m898.79 684.53h69.978v-54.607h-69.978z"/>
    </clipPath>
  </defs>
  <g transform="translate(-7.5935 -4.6508)">
    <g transform="matrix(.35278 0 0 -.35278 24.509 64.72)">
      <path d="m0 0 26.6 69.5-34.5 13.2-26.6-69.4 21.2 3.3z" fill="#77623e"/>
    </g>
    <g transform="matrix(.35278 0 0 -.35278 41.478 64.72)">
      <path d="m0 0-26.6 69.5 34.5 13.2 26.6-69.4-21.2 3.3z" fill="#77623e"/>
    </g>
    <g transform="matrix(.35278 0 0 -.35278 23.804 64.367)">
      <path d="m0 0 26.6 69.5-34.5 13.2-26.6-69.4 21.2 3.3z" fill="#fbaa0a"/>
    </g>
    <g transform="matrix(.35278 0 0 -.35278 40.772 64.367)">
      <path d="m0 0-26.6 69.5 34.5 13.2 26.6-69.4-21.2 3.3z" fill="#fbaa0a"/>
    </g>
    <g transform="matrix(.35278 0 0 -.35278 32.641 5.0035)">
      <path d="m0 0c38.66 0 70-31.34 70-70s-31.34-70-70-70-70 31.34-70 70 31.34 70 70 70z" fill="none" stroke="#77623e" stroke-width="2"/>
    </g>
    <g transform="matrix(.35278 0 0 -.35278 -296.97 262.01)">
      <path d="m864.32 658.52c0-38.66 31.34-70 70-70s70 31.34 70 70-31.34 70.001-70 70.001-70-31.341-70-70.001" fill="url(#linearGradient15740)"/>
    </g>
    <g transform="matrix(.35278 0 0 -.35278 32.641 6.4852)">
      <path d="m0 0c36.34 0 65.8-29.46 65.8-65.8s-29.46-65.8-65.8-65.8-65.8 29.46-65.8 65.8 29.46 65.8 65.8 65.8" fill="#fbaa0a"/>
      <path d="m0 0c36.34 0 65.8-29.46 65.8-65.8s-29.46-65.8-65.8-65.8-65.8 29.46-65.8 65.8 29.46 65.8 65.8 65.8z" fill="none" stroke="#b29677" stroke-miterlimit="3.864"/>
    </g>
    <g transform="matrix(.35278 0 0 -.35278 -296.97 262.01)">
      <path d="m886.32 658.52c0-26.509 21.491-47.999 48-47.999 26.51 0 48 21.49 48 47.999 0 26.51-21.49 48-48 48-26.509 0-48-21.49-48-48" fill="url(#linearGradient15784)"/>
    </g>
    <g transform="matrix(.35278 0 0 -.35278 32.641 12.765)">
      <path d="m0 0c26.51 0 48-21.49 48-48s-21.49-48-48-48-48 21.49-48 48 21.49 48 48 48z" fill="none" stroke="#b29677" stroke-miterlimit="3.864"/>
    </g>
    <g transform="matrix(.35278 0 0 -.35278 26.035 11.592)">
      <path d="m0 0c-0.4 0.3-1.3 0.6-3.4-0.2-1.6-0.6-2.4-2.4-1.8-3.7 0.5-1.3 1.9-1.4 3.4-0.8 4.4 1.7 3.6 7 2.7 11.2-0.7 3.1-2.2 2.3-1.5-0.6 0.3-1 0.4-1.6 0.7-2.6 0.8-3.1 2.3-6.5 5-5.8 2.2 0.5 3.2 1.8 2.9 3.8-0.4 2.5-3.3 1.8-2.8-0.7 0.4-1.8 2-2.6 4.1-2.2 2 0.3 3.5 1.5 3.3 3.3-0.1 1-1 1.6-2.2 1.8" fill="none" stroke="#68573b" stroke-linecap="round" stroke-linejoin="round" stroke-miterlimit="3.864"/>
    </g>
    <g transform="matrix(.35278 0 0 -.35278 31.644 10.11)" fill="none" stroke="#68573b" stroke-miterlimit="3.864">
      <path d="m0 0c-1.9-0.6-3.2-1.9-3-3.6 0.1-1.3 1.3-1.6 2.7-1.5 0.6 0 0.8 0.2 1.4 0.3" stroke-linecap="round" stroke-linejoin="round"/>
      <path d="m0 0c-1.9-0.6-3.2-1.9-3-3.6 0.1-1.3 1.3-1.6 2.7-1.5 0.6 0 0.8 0.2 1.4 0.3"/>
    </g>
    <g transform="matrix(.35278 0 0 -.35278 30.092 11.274)">
      <path d="m0 0c1.4 0.2 2.2 0.3 3.5 0.5" fill="none" stroke="#68573b" stroke-linecap="round" stroke-linejoin="round" stroke-miterlimit="3.864"/>
    </g>
    <g transform="matrix(.35278 0 0 -.35278 32.808 10.251)">
      <path d="m0 0c-1.4-0.3-2.2-1.3-2.1-2.5 0-1.2 1.2-2 2.4-2 1.5 0 2.8 1.1 2.9 2.5s-0.4 1.9-1.8 1.9c-0.6-0.1-0.8-0.6-0.4-1 0.4-0.3 0.9-0.4 1.5-0.4 1.3-0.1 1.8 1.1 3.1 0.9 1.1-0.1 1.5-1.2 1.4-2.1-0.1-0.8-0.3-1.3-0.4-2.1 0.1 0.7 0.2 1.1 0.3 1.8 0.2 1.1 1.2 2 2.4 1.8 0.8-0.1 1.4-0.8 1.2-1.5-0.3-1.2-0.2-1-0.5-2.2-0.1-0.4 0.3-0.5 0.6-0.6 1.4-0.3 2.2 0.9 3.1 1.9 1.7 1.8 2.3 3.1 3.1 5.3 1.3 3.9-1 4.1-2.1 0.3-0.5-1.8-0.7-2.8-0.7-4.6 0.1-1.5-0.7-3.6 0.9-4.1 0.7-0.2 1.7 0.4 2 1.1 0.7 1.4 0.7 1.5 1.2 2.7-0.4-1.3-0.2-0.9-0.5-1.6-1.2-3.5 0.1-3.4 0.5-3 1.7 1 1.7 3.7 3.8 2.9 0.8-0.3 1.3-1.3 0.9-2-0.5-1.1-0.8-1.6-1.3-2.7 0.7 1.7 1.8 3.8 3.6 2.9 2-1-1.2-3.9 0.6-4.9 1.5-0.8 3.2-0.4 4.1 0.9 1.1 1.6-0.8 3.1-2.1 0.9-0.6-1.1-0.3-4 2-3.7" fill="none" stroke="#68573b" stroke-linecap="round" stroke-linejoin="round" stroke-miterlimit="3.864"/>
    </g>
    <g transform="matrix(.35278 0 0 -.35278 39.546 10.286)">
      <path d="m0 0c0-0.1-0.1-0.1-0.1-0.2" fill="none" stroke="#68573b" stroke-linecap="round" stroke-linejoin="round" stroke-miterlimit="3.864"/>
    </g>
    <g transform="matrix(.35278 0 0 -.35278 -296.97 262.01)">
      <g clip-path="url(#clipPath15830)" opacity=".85001">
        <g transform="translate(967.77 631.88)">
          <path d="m0 0c0-0.477-0.477-0.955-0.955-0.955h-66.068c-0.478 0-0.955 0.478-0.955 0.955v2.291c0 0.478 0.477 0.955 0.955 0.955h66.068c0.478 0 0.955-0.477 0.955-0.955z" fill="#fff"/>
          <path d="m0 0c0-0.477-0.477-0.955-0.955-0.955h-66.068c-0.478 0-0.955 0.478-0.955 0.955v2.291c0 0.478 0.477 0.955 0.955 0.955h66.068c0.478 0 0.955-0.477 0.955-0.955z" fill="none" stroke="#68573b" stroke-width="2"/>
        </g>
        <g transform="translate(961.18 646.77)">
          <path d="m0 0c0-1.05-0.859-1.909-1.909-1.909h-50.889c-1.05 0-1.909 0.859-1.909 1.909v34.848c0 1.051 0.859 1.91 1.909 1.91h50.889c1.05 0 1.909-0.859 1.909-1.91z" fill="#fff"/>
          <path d="m0 0c0-1.05-0.859-1.909-1.909-1.909h-50.889c-1.05 0-1.909 0.859-1.909 1.909v34.848c0 1.051 0.859 1.91 1.909 1.91h50.889c1.05 0 1.909-0.859 1.909-1.91z" fill="none" stroke="#68573b" stroke-width="2"/>
        </g>
        <path d="m909.25 680.19h49.17v-32.08h-49.17z" fill="#fff" stroke="#68573b" stroke-width=".75"/>
        <g transform="translate(967.49 635.79)">
          <path d="m0 0c0.382-0.477 0.191-0.955-0.382-0.955h-66.451c-0.572 0-0.763 0.478-0.381 0.955 2.005 2.864 4.01 5.728 6.014 8.688 0.382 0.478 1.051 0.955 1.528 0.955h52.225c0.477 0 1.146-0.477 1.528-0.955 1.909-2.864 3.914-5.728 5.919-8.688" fill="#fff"/>
          <path d="m0 0c0.382-0.477 0.191-0.955-0.382-0.955h-66.451c-0.572 0-0.763 0.478-0.381 0.955 2.005 2.864 4.01 5.728 6.014 8.688 0.382 0.478 1.051 0.955 1.528 0.955h52.225c0.477 0 1.146-0.477 1.528-0.955 1.909-2.864 3.914-5.728 5.919-8.688z" fill="none" stroke="#68573b" stroke-width="2"/>
        </g>
        <g transform="translate(958.89 641.04)">
          <path d="m0 0c0.286-0.477 0.095-0.955-0.477-0.955h-49.075c-0.572 0-0.763 0.478-0.477 0.955 0.286 0.573 0.668 1.241 0.955 1.814 0.286 0.477 0.955 0.955 1.432 0.955h45.351c0.477 0 1.145-0.478 1.432-0.955 0.191-0.573 0.477-1.146 0.859-1.814" fill="#fff"/>
          <path d="m0 0c0.286-0.477 0.095-0.955-0.477-0.955h-49.075c-0.572 0-0.763 0.478-0.477 0.955 0.286 0.573 0.668 1.241 0.955 1.814 0.286 0.477 0.955 0.955 1.432 0.955h45.351c0.477 0 1.145-0.478 1.432-0.955 0.191-0.573 0.477-1.146 0.859-1.814z" fill="none" stroke="#68573b" stroke-width=".75"/>
        </g>
        <g transform="translate(943.04 637.32)">
          <path d="m0 0c0.095-0.477-0.286-0.955-0.764-0.955h-16.899c-0.573 0-0.859 0.478-0.764 0.955v0.191c0.096 0.477 0.573 0.955 1.146 0.955h16.231c0.477 0 1.05-0.478 1.146-0.955-0.096 0-0.096-0.096-0.096-0.191" fill="#fff"/>
          <path d="m0 0c0.095-0.477-0.286-0.955-0.764-0.955h-16.899c-0.573 0-0.859 0.478-0.764 0.955v0.191c0.096 0.477 0.573 0.955 1.146 0.955h16.231c0.477 0 1.05-0.478 1.146-0.955-0.096 0-0.096-0.096-0.096-0.191z" fill="none" stroke="#68573b" stroke-width=".75"/>
        </g>
      </g>
    </g>
    <g transform="matrix(.35278 0 0 -.35278 45.067 27.764)">
      <path d="m0 0c-9.28-4.821-18.801-6.99-28.081-6.628-1.084 6.749-3.013 12.413-5.544 16.872 8.798 3.616 17.355 9.883 25.068 18.68 3.857-8.436 6.87-18.077 8.557-28.924" fill="#c3bcb1"/>
      <path d="m0 0c-9.28-4.821-18.801-6.99-28.081-6.628-1.084 6.749-3.013 12.413-5.544 16.872 8.798 3.616 17.355 9.883 25.068 18.68 3.857-8.436 6.87-18.077 8.557-28.924z" fill="none" stroke="#68573b" stroke-width="2"/>
    </g>
    <g transform="matrix(.35278 0 0 -.35278 35.203 29.975)">
      <path d="m0 0c3.013 2.651 5.905 6.026 8.436 10.244" fill="#c3bcb1" stroke="#68573b" stroke-width="2"/>
    </g>
    <g transform="matrix(.35278 0 0 -.35278 44.897 27.594)">
      <path d="m0 0c-3.857 3.013-7.834 5.544-11.811 7.472" fill="#c3bcb1" stroke="#68573b" stroke-width="2"/>
    </g>
    <g transform="matrix(.35278 0 0 -.35278 33.29 24.15)">
      <path d="m0 0c6.146-1.567 12.172-4.7 17.957-9.28" fill="#c3bcb1" stroke="#68573b" stroke-width="2"/>
    </g>
    <g transform="matrix(.35278 0 0 -.35278 42.048 17.73)">
      <path d="m0 0c-0.844-10.485-3.133-19.765-6.267-27.478" fill="#c3bcb1" stroke="#68573b" stroke-width="2"/>
    </g>
    <g transform="matrix(.35278 0 0 -.35278 17.842 43.236)">
      <path d="m0 0c0.2-0.3 0.5-0.5 0.7-0.8 0.7-0.8 1.5-0.9 2-0.5 0.6 0.5 0.3 1.3-0.3 2l-0.7 0.7c-0.6-0.4-1.2-0.9-1.7-1.4m1.4 2.6c0.4-0.3 0.9-0.8 1.3-1.3 0.7-0.7 1-1.3 1.1-1.9 0.1-0.5-0.1-0.9-0.4-1.2-0.6-0.6-1.4-0.5-2.1-0.1 0.3-0.5 0.2-1.1-0.1-1.7-0.4-0.8-0.7-1.3-0.7-1.6l-0.8 0.8c0 0.2 0.3 0.7 0.7 1.4 0.4 0.8 0.4 1.3-0.2 2-0.2 0.2-0.4 0.5-0.6 0.7-0.7-0.6-1.3-1.2-2-1.7-0.2 0.3-0.5 0.5-0.7 0.8 1.5 1.2 3 2.5 4.5 3.8" fill="#68573b"/>
    </g>
    <g transform="matrix(.35278 0 0 -.35278 20.064 45.564)">
      <path d="m0 0c-0.8 0.6-1.5 1.3-2.2 1.9-0.5-0.5-1-1.1-1.5-1.6 0.8-0.8 1.7-1.5 2.6-2.2-0.1-0.2-0.3-0.3-0.4-0.5-1.2 0.9-2.3 1.9-3.4 2.9 1.4 1.5 2.8 3 4.1 4.4 0.9-0.9 1.9-1.7 2.9-2.5-0.1-0.2-0.3-0.3-0.4-0.5-0.8 0.6-1.5 1.3-2.2 1.9-0.4-0.5-0.9-0.9-1.3-1.4 0.7-0.7 1.5-1.3 2.2-1.9-0.1-0.2-0.3-0.3-0.4-0.5" fill="#68573b"/>
    </g>
    <g transform="matrix(.35278 0 0 -.35278 20.1 46.446)">
      <path d="m0 0c0.2-0.4 0.6-1 1.2-1.4 0.8-0.6 1.6-0.6 1.9-0.1s0.2 1-0.5 1.8c-0.8 1-1.1 1.9-0.5 2.5 0.6 0.7 1.7 0.7 2.8 0 0.6-0.4 0.9-0.8 1.1-1.1-0.2-0.1-0.4-0.3-0.6-0.4-0.1 0.2-0.4 0.6-0.9 1-0.8 0.6-1.4 0.4-1.6 0.1-0.3-0.5-0.2-0.9 0.5-1.8 0.8-1 1.1-1.8 0.6-2.5-0.5-0.8-1.7-1-3.2 0.1-0.6 0.4-1.2 1.1-1.4 1.5l0.6 0.3" fill="#68573b"/>
    </g>
    <g transform="matrix(.35278 0 0 -.35278 22.463 47.152)">
      <path d="m0 0c0.2-0.1 0.4-0.3 0.6-0.5 1-0.6 1.8-0.5 2.2 0.3 0.4 0.7 0 1.4-0.9 1.8-0.3 0.2-0.6 0.3-0.8 0.4-0.3-0.7-0.7-1.3-1.1-2m0.7 3c0.4-0.2 0.9-0.4 1.5-0.8 0.8-0.4 1.2-0.9 1.5-1.4 0.2-0.4 0.2-0.9 0-1.4-0.3-0.5-0.6-0.8-1.1-0.9-0.6-0.2-1.5 0-2.3 0.5-0.2 0.1-0.5 0.3-0.6 0.4l-1.2-2.1c-0.3 0.2-0.6 0.3-0.9 0.5 1 1.8 2.1 3.5 3.1 5.2" fill="#68573b"/>
    </g>
    <g transform="matrix(.35278 0 0 -.35278 24.156 48.069)">
      <path d="m0 0c-0.6-1.2-0.3-2.6 1.2-3.2 1.4-0.6 2.7 0.2 3.1 1.5 0.4 1.1 0.2 2.6-1.2 3.1s-2.5-0.2-3.1-1.4m5.2-2.1c-0.7-2-2.6-2.5-4.4-1.7-1.9 0.8-2.6 2.6-1.8 4.2 0.9 1.7 2.6 2.2 4.3 1.5 1.8-0.7 2.5-2.3 1.9-4" fill="#68573b"/>
    </g>
    <g transform="matrix(.35278 0 0 -.35278 26.097 49.974)">
      <path d="m0 0c0.6 1.9 1.3 3.8 1.9 5.8 0.3-0.1 0.6-0.2 0.9-0.3 0.4-1.2 0.8-2.4 1.3-3.6 0.3-0.8 0.6-1.5 0.8-2.2 0.1 0.8 0.3 1.5 0.5 2.5 0.2 0.8 0.4 1.6 0.6 2.5 0.3-0.1 0.5-0.1 0.8-0.2-0.4-2-0.9-3.9-1.3-5.9-0.3 0.1-0.6 0.1-1 0.2l-1.5 3.6c-0.3 0.8-0.5 1.6-0.7 2.3-0.2-0.7-0.4-1.4-0.7-2.4-0.3-0.8-0.5-1.7-0.8-2.5-0.2 0-0.5 0.1-0.8 0.2" fill="#68573b"/>
    </g>
    <g transform="matrix(.35278 0 0 -.35278 28.637 50.327)">
      <path d="m0 0c0.4-0.3 1-0.6 1.6-0.7 1-0.2 1.6 0.2 1.7 0.8s-0.3 0.9-1.2 1.4c-1.1 0.5-1.7 1.2-1.5 2 0.2 0.9 1.2 1.4 2.5 1.2 0.7-0.1 1.2-0.3 1.4-0.5l-0.3-0.6c-0.2 0.1-0.6 0.4-1.2 0.5-0.9 0.1-1.4-0.3-1.4-0.7-0.1-0.6 0.3-0.9 1.2-1.4 1.1-0.6 1.7-1.1 1.6-2s-1.1-1.7-2.8-1.4c-0.7 0.1-1.5 0.4-1.8 0.7 0 0.3 0.1 0.5 0.2 0.7" fill="#68573b"/>
    </g>
    <g transform="matrix(.35278 0 0 -.35278 31.918 50.115)">
      <path d="m0 0-0.6 1.8c-0.1 0.4-0.2 0.8-0.3 1.1-0.1-0.4-0.3-0.7-0.4-1.1-0.3-0.6-0.5-1.1-0.8-1.7 0.6-0.1 1.4-0.1 2.1-0.1m-2.4-0.5-0.9-1.8c-0.3 0-0.7 0.1-1 0.1 1.1 1.9 2 3.9 2.9 5.8 0.3 0 0.7 0 1-0.1 0.7-2.1 1.4-4.1 2.3-6.1h-1c-0.3 0.6-0.5 1.3-0.7 1.9-0.9 0.1-1.8 0.1-2.6 0.2" fill="#68573b"/>
    </g>
    <g transform="matrix(.35278 0 0 -.35278 33.364 50.821)">
      <path d="m0 0h0.8c1 0 1.9 0.4 1.8 1.3-0.1 0.8-0.9 1.1-1.9 1h-0.8c0-0.7 0.1-1.5 0.1-2.3m-0.1 2.9h0.8c1 0 1.5 0.5 1.4 1.1-0.1 0.7-0.7 0.9-1.6 0.9-0.4 0-0.6-0.1-0.8-0.1 0.1-0.6 0.2-1.2 0.2-1.9m-1 2.5c0.4 0.1 1 0.1 1.6 0.2 0.9 0 1.4 0 1.9-0.3 0.4-0.2 0.6-0.5 0.7-1 0.1-0.6-0.3-1.1-1.1-1.4 0.7-0.1 1.5-0.5 1.6-1.4 0.1-0.5-0.2-0.9-0.5-1.3-0.5-0.4-1.3-0.7-2.5-0.7h-1.5c-0.1 1.9-0.1 3.9-0.2 5.9" fill="#68573b"/>
    </g>
    <g transform="matrix(.35278 0 0 -.35278 35.234 48.704)">
      <path d="m0 0c0.3-2 0.6-4 0.8-6-0.3 0-0.6-0.1-1-0.1-0.2 2-0.5 4-0.7 6 0.3 0 0.6 0 0.9 0.1" fill="#68573b"/>
    </g>
    <g transform="matrix(.35278 0 0 -.35278 35.798 48.633)">
      <path d="m0 0c0.3 0 0.6 0.1 0.9 0.2 0.3-1.8 0.7-3.5 1-5.3 1 0.2 2.1 0.4 3.1 0.7 0.1-0.2 0.1-0.4 0.2-0.6-1.4-0.3-2.7-0.6-4.1-0.8-0.4 1.8-0.8 3.8-1.1 5.8" fill="#68573b"/>
    </g>
    <g transform="matrix(.35278 0 0 -.35278 39.784 48.704)">
      <path d="m0 0c-0.9-0.3-1.8-0.6-2.6-0.9 0.2-0.7 0.5-1.4 0.7-2.1 1 0.3 2 0.7 3.1 1.1 0.1-0.2 0.2-0.4 0.2-0.6-1.3-0.5-2.7-1-4-1.4-0.6 1.9-1.2 3.9-1.8 5.8 1.2 0.4 2.3 0.8 3.5 1.2 0.1-0.2 0.2-0.4 0.2-0.6-0.9-0.3-1.8-0.7-2.7-1l0.6-1.8c0.9 0.3 1.7 0.6 2.6 0.9 0.1-0.2 0.1-0.4 0.2-0.6" fill="#68573b"/>
    </g>
    <g transform="matrix(.35278 0 0 -.35278 41.054 48.21)">
      <path d="m0 0c0.1-0.2 0.2-0.4 0.2-0.5-0.8-0.4-1.6-0.7-2.5-1.1-0.1 0.2-0.1 0.4-0.2 0.5 0.9 0.3 1.7 0.7 2.5 1.1" fill="#68573b"/>
    </g>
    <g transform="matrix(.35278 0 0 -.35278 43.348 46.975)">
      <path d="m0 0c-0.5 0.7-1.1 1.5-1.5 2.2 0.2-0.7 0.3-1.5 0.4-2.4 0.1-1.1 0.3-2.1 0.4-3.2-0.2-0.1-0.4-0.3-0.7-0.4-0.8 0.6-1.7 1.3-2.5 2-0.7 0.6-1.3 1.2-1.8 1.7 0.3-0.7 0.7-1.6 1.1-2.5 0.3-0.8 0.7-1.6 1-2.4-0.3-0.1-0.6-0.3-0.8-0.4-0.7 1.9-1.5 3.8-2.2 5.7 0.3 0.2 0.7 0.3 1 0.5 0.8-0.7 1.6-1.4 2.5-2 0.6-0.5 1.2-1 1.7-1.4-0.1 0.6-0.2 1.3-0.4 2.2-0.1 1.1-0.3 2.1-0.4 3.2 0.3 0.2 0.6 0.4 1 0.6 1.2-1.6 2.5-3.2 3.7-4.8-0.3-0.2-0.5-0.4-0.8-0.5-0.6 0.5-1.1 1.2-1.7 1.9" fill="#68573b"/>
    </g>
    <g transform="matrix(.35278 0 0 -.35278 45.217 45.705)">
      <path d="m0 0c-0.6 0.3-1.1 0.6-1.7 0.9-0.4 0.2-0.7 0.4-1 0.6 0.1-0.3 0.3-0.7 0.4-1.1 0.2-0.6 0.3-1.2 0.5-1.8 0.6 0.5 1.2 0.9 1.8 1.4m-1.6-2c0.2-0.7 0.3-1.3 0.5-2l-0.9-0.6c-0.4 2.2-0.9 4.3-1.5 6.4 0.3 0.2 0.6 0.4 0.9 0.7 1.9-1.1 3.8-2.1 5.8-3-0.3-0.2-0.6-0.5-0.8-0.7-0.6 0.3-1.2 0.6-1.9 0.9-0.7-0.6-1.4-1.2-2.1-1.7" fill="#68573b"/>
    </g>
    <g transform="matrix(.35278 0 0 -.35278 45.499 43.8)">
      <path d="m0 0c1.4-1.5 2.8-2.9 4.2-4.4-0.3-0.2-0.5-0.5-0.8-0.7-1.4 1.5-2.7 3-4.1 4.5 0.2 0.2 0.4 0.4 0.7 0.6" fill="#68573b"/>
    </g>
    <g transform="matrix(.35278 0 0 -.35278 45.923 43.377)">
      <path d="m0 0 0.7 0.7c1.3-1.3 2.6-2.5 3.9-3.8 0.8 0.8 1.6 1.7 2.3 2.6 0.2-0.1 0.3-0.3 0.5-0.4-1-1.2-2-2.3-3.1-3.3-1.4 1.4-2.9 2.8-4.3 4.2" fill="#68573b"/>
    </g>
  </g>
</svg>
