<svg width="50.094mm" height="60.054mm" version="1.1" viewBox="0 0 50.094 60.054" xmlns="http://www.w3.org/2000/svg">
  <defs>
    <linearGradient id="linearGradient13944" x2="1" gradientTransform="matrix(121.26 70.012 -70.012 121.26 341.02 825.13)" gradientUnits="userSpaceOnUse">
      <stop stop-color="#8b878d" offset="0"/>
      <stop stop-color="#8b878d" offset=".014778"/>
      <stop stop-color="#8b878d" offset=".29484"/>
      <stop stop-color="#f3f4f4" offset=".52247"/>
      <stop stop-color="#807b80" offset=".79551"/>
      <stop stop-color="#807b80" offset=".89118"/>
      <stop stop-color="#807b80" offset="1"/>
    </linearGradient>
    <linearGradient id="linearGradient13986" x2="1" gradientTransform="matrix(83.152 48.008 48.008 -83.152 360.07 835.14)" gradientUnits="userSpaceOnUse">
      <stop stop-color="#8b878d" offset="0"/>
      <stop stop-color="#8b878d" offset=".014778"/>
      <stop stop-color="#8b878d" offset=".29484"/>
      <stop stop-color="#f3f4f4" offset=".52247"/>
      <stop stop-color="#807b80" offset=".79551"/>
      <stop stop-color="#807b80" offset=".89118"/>
      <stop stop-color="#807b80" offset="1"/>
    </linearGradient>
  </defs>
  <g transform="translate(-.72948 -20.504)">
    <g transform="matrix(.35278 0 0 -.35278 17.645 80.208)">
      <path d="m0 0 26.6 69.5-34.5 13.2-26.6-69.4 21.2 3.3z" fill="#5d5e61"/>
      <path d="m0 0 26.6 69.5-34.5 13.2-26.6-69.4 21.2 3.3z" fill="none" stroke="#5d5e61"/>
    </g>
    <g transform="matrix(.35278 0 0 -.35278 34.614 80.208)">
      <path d="m0 0-26.6 69.5 34.5 13.2 26.6-69.4-21.2 3.3z" fill="#5d5e61"/>
    </g>
    <g transform="matrix(.35278 0 0 -.35278 16.94 79.855)">
      <path d="m0 0 26.6 69.5-34.5 13.2-26.6-69.4 21.2 3.3z" fill="#00f"/>
    </g>
    <g transform="matrix(.35278 0 0 -.35278 33.908 79.855)">
      <path d="m0 0-26.6 69.5 34.5 13.2 26.6-69.4-21.2 3.3z" fill="#00f"/>
    </g>
    <g transform="matrix(.35278 0 0 -.35278 25.777 20.857)">
      <path d="m0 0c38.66 0 70-31.34 70-70s-31.34-70-70-70-70 31.34-70 70 31.34 70 70 70z" fill="none" stroke="#5d5e61" stroke-width="2"/>
    </g>
    <g transform="matrix(.35278 0 0 -.35278 -115.92 348.99)">
      <path d="m331.65 860.14c0-38.661 31.34-70 69.999-70 38.661 0 70.001 31.339 70.001 70 0 38.659-31.34 69.999-70.001 69.999-38.659 0-69.999-31.34-69.999-69.999" fill="url(#linearGradient13944)"/>
    </g>
    <g transform="matrix(.35278 0 0 -.35278 25.777 22.339)">
      <path d="m0 0c36.34 0 65.8-29.46 65.8-65.8s-29.46-65.8-65.8-65.8-65.8 29.46-65.8 65.8 29.46 65.8 65.8 65.8" fill="#00f"/>
    </g>
    <g transform="matrix(.35278 0 0 -.35278 -115.92 348.99)">
      <path d="m353.65 859.14c0-26.509 21.49-48 47.999-48 26.511 0 48.001 21.491 48.001 48 0 26.51-21.49 48.001-48.001 48.001-26.509 0-47.999-21.491-47.999-48.001" fill="url(#linearGradient13986)"/>
    </g>
    <g transform="matrix(.35278 0 0 -.35278 14.858 62.886)">
      <path d="m0 0c0.1-0.1 0.3-0.3 0.6-0.4 0.9-0.5 1.7-0.4 2.1 0.3s0 1.3-0.8 1.8c-0.3 0.2-0.6 0.3-0.7 0.4-0.4-0.8-0.8-1.4-1.2-2.1m0.7 2.9c0.4-0.2 0.9-0.4 1.5-0.7 0.7-0.4 1.2-0.9 1.4-1.3s0.2-0.9-0.1-1.4-0.6-0.8-1.1-0.9c-0.6-0.2-1.4 0-2.2 0.4-0.2 0.1-0.4 0.3-0.6 0.4l-1.2-2.1c-0.3 0.2-0.5 0.3-0.8 0.5 1 1.7 2.1 3.4 3.1 5.1" fill="#a3a3a3"/>
    </g>
    <g transform="matrix(.35278 0 0 -.35278 16.587 63.768)">
      <path d="m0 0c0.3-0.1 0.5-0.3 0.8-0.4 0.9-0.4 1.6-0.2 1.8 0.4 0.3 0.7-0.1 1.3-0.9 1.6-0.4 0.2-0.6 0.3-0.8 0.3-0.3-0.5-0.6-1.2-0.9-1.9m0.4 2.9c0.4-0.1 1-0.3 1.5-0.6 0.8-0.4 1.3-0.7 1.5-1.2 0.2-0.4 0.2-0.8 0-1.3-0.3-0.7-1-1-1.8-0.9 0.4-0.4 0.5-0.9 0.4-1.5-0.1-0.9-0.2-1.5-0.1-1.7-0.3 0.1-0.6 0.2-0.9 0.4 0 0.2 0 0.7 0.1 1.5 0.1 0.9-0.1 1.3-0.8 1.6-0.3 0.1-0.5 0.2-0.8 0.4-0.4-0.8-0.8-1.6-1.1-2.4-0.3 0.1-0.6 0.3-0.8 0.4 1.1 1.7 1.9 3.5 2.8 5.3" fill="#a3a3a3"/>
    </g>
    <g transform="matrix(.35278 0 0 -.35278 18.21 64.544)">
      <path d="m0 0c-0.5-1.2-0.1-2.6 1.2-3.1 1.4-0.5 2.5 0.4 2.9 1.7 0.3 1.2 0 2.5-1.3 3-1.2 0.5-2.3-0.3-2.8-1.6m5-1.5c-0.5-2-2.3-2.7-4-2.1-1.8 0.6-2.6 2.3-1.9 4 0.7 1.8 2.4 2.5 4 1.9 1.7-0.6 2.4-2.1 1.9-3.8" fill="#a3a3a3"/>
    </g>
    <g transform="matrix(.35278 0 0 -.35278 21.984 66.555)">
      <path d="m0 0c-0.4-0.1-1.2-0.1-2.2 0.1s-1.8 0.6-2.4 1.4c-0.5 0.6-0.6 1.5-0.4 2.4 0.5 1.7 2.1 2.7 4.2 2.2 0.7-0.1 1.3-0.4 1.5-0.6l-0.3-0.6c-0.3 0.2-0.7 0.4-1.3 0.5-1.5 0.3-2.7-0.3-3.1-1.8s0.4-2.6 2-3c0.6-0.1 1-0.1 1.2-0.1l0.3 1.8c-0.4 0.1-0.9 0.2-1.3 0.3 0 0.2 0.1 0.4 0.1 0.6 0.7-0.1 1.4-0.3 2.2-0.4-0.2-0.9-0.3-1.8-0.5-2.8" fill="#a3a3a3"/>
    </g>
    <g transform="matrix(.35278 0 0 -.35278 22.937 65.638)">
      <path d="m0 0c0.3 0 0.6-0.1 0.9-0.1 0.9-0.1 1.5 0.3 1.6 1 0.1 0.8-0.5 1.2-1.4 1.3h-0.8c-0.1-0.8-0.2-1.5-0.3-2.2m-0.4 2.8c0.4 0 1 0 1.6-0.1 0.9-0.1 1.4-0.3 1.8-0.7 0.3-0.3 0.4-0.7 0.4-1.2-0.1-0.8-0.7-1.3-1.4-1.4 0.5-0.2 0.8-0.7 0.9-1.3 0.2-0.9 0.3-1.5 0.4-1.7-0.3 0-0.6 0-0.9 0.1-0.1 0.2-0.2 0.7-0.3 1.5-0.1 0.9-0.4 1.2-1.2 1.3-0.3 0-0.5 0.1-0.8 0.1-0.1-0.9-0.2-1.7-0.3-2.6-0.3 0-0.6 0.1-0.9 0.1 0.1 2 0.4 4 0.7 5.9" fill="#a3a3a3"/>
    </g>
    <g transform="matrix(.35278 0 0 -.35278 25.689 66.096)">
      <path d="m0 0-0.6 1.8c-0.1 0.4-0.2 0.8-0.3 1.1-0.1-0.4-0.2-0.7-0.4-1.1-0.2-0.6-0.5-1.2-0.7-1.7 0.7 0 1.3 0 2-0.1m-2.2-0.5c-0.3-0.6-0.5-1.3-0.8-1.9-0.3 0-0.6 0-0.9 0.1 0.9 2 1.8 4 2.5 6h1c0.7-2 1.5-4 2.3-6.1h-1c-0.3 0.6-0.5 1.3-0.7 1.9-0.8-0.1-1.6 0-2.4 0" fill="#a3a3a3"/>
    </g>
    <g transform="matrix(.35278 0 0 -.35278 28.687 65.814)">
      <path d="m0 0c-0.2 0.8-0.4 1.8-0.4 2.6-0.1-0.7-0.3-1.5-0.5-2.4-0.3-1-0.6-2-0.9-3.1-0.2 0-0.5 0-0.7-0.1-0.5 0.9-0.9 1.9-1.3 2.8-0.4 0.8-0.7 1.6-0.9 2.3v-5.3h-0.9c0.1 2 0.1 4.1 0.2 6.1 0.3 0 0.7 0 1 0.1 0.4-1 0.9-1.9 1.3-2.8 0.3-0.7 0.6-1.4 0.9-2 0.1 0.6 0.3 1.3 0.5 2.1 0.3 1 0.6 2 0.8 3 0.3 0 0.7 0.1 1 0.1 0.4-2 0.9-4 1.3-5.9-0.3 0-0.6-0.1-0.9-0.1-0.1 0.8-0.3 1.7-0.5 2.6" fill="#a3a3a3"/>
    </g>
    <g transform="matrix(.35278 0 0 -.35278 30.698 65.497)">
      <path d="m0 0c-0.3 0.5-0.7 1-1 1.6-0.2 0.4-0.4 0.7-0.6 1 0-0.4 0-0.8-0.1-1.1-0.1-0.6-0.2-1.2-0.3-1.9 0.7 0.1 1.3 0.2 2 0.4m-2-1.1c-0.1-0.7-0.2-1.3-0.3-2-0.3-0.1-0.6-0.1-0.9-0.2 0.4 2.1 0.8 4.3 1.1 6.4 0.3 0.1 0.6 0.1 1 0.2 1.2-1.8 2.4-3.6 3.7-5.3-0.3-0.1-0.6-0.2-0.9-0.2-0.4 0.6-0.8 1.1-1.2 1.7-1-0.3-1.8-0.5-2.5-0.6" fill="#a3a3a3"/>
    </g>
    <g transform="matrix(.35278 0 0 -.35278 31.827 64.156)">
      <path d="m0 0c-0.6-0.2-1.3-0.4-1.9-0.5-0.1 0.2-0.1 0.4-0.2 0.6 1.5 0.4 3 0.9 4.5 1.4 0.1-0.2 0.2-0.4 0.2-0.6-0.6-0.2-1.2-0.4-1.9-0.6 0.6-1.7 1.1-3.4 1.7-5.1-0.3-0.1-0.6-0.2-0.9-0.3-0.4 1.7-1 3.4-1.5 5.1" fill="#a3a3a3"/>
    </g>
    <g transform="matrix(.35278 0 0 -.35278 33.52 64.474)">
      <path d="m0 0c0.5-1.2 1.6-2 3-1.4 1.3 0.6 1.6 2 1 3.2-0.5 1.1-1.7 1.9-2.9 1.4-1.4-0.6-1.6-1.9-1.1-3.2m4.8 2.2c0.9-1.9 0.1-3.5-1.6-4.3-1.7-0.7-3.4 0-4 1.7-0.7 1.8 0.1 3.4 1.7 4.1 1.5 0.8 3.1 0.1 3.9-1.5" fill="#a3a3a3"/>
    </g>
    <g transform="matrix(.35278 0 0 -.35278 35.849 63.31)">
      <path d="m0 0c0.3 0.1 0.5 0.3 0.8 0.4 0.8 0.5 1.1 1.2 0.8 1.8-0.4 0.7-1.1 0.7-1.9 0.2-0.4-0.2-0.6-0.4-0.7-0.5 0.3-0.6 0.7-1.2 1-1.9m-2 2c0.3 0.3 0.9 0.6 1.4 0.9 0.8 0.4 1.4 0.6 1.9 0.5 0.4-0.1 0.8-0.3 1-0.7 0.4-0.7 0.2-1.4-0.3-2 0.5 0.1 1-0.1 1.5-0.5 0.6-0.6 1.1-1 1.3-1.1-0.3-0.2-0.6-0.3-0.8-0.5-0.2 0.1-0.6 0.5-1.1 1-0.6 0.6-1.1 0.7-1.8 0.3-0.2-0.1-0.5-0.3-0.7-0.4 0.4-0.8 0.8-1.5 1.2-2.3-0.3-0.1-0.5-0.3-0.8-0.4-1 1.7-1.9 3.5-2.8 5.2" fill="#a3a3a3"/>
    </g>
    <g transform="matrix(.35278 0 0 -.35278 18.191 50.557)">
      <path d="m0 0h0.5c1.3-0.2 2.4-1.1 3.4-2.5 1.1-1.4 2-3.4 3.1-5.6 0.8-1.7 2.5-3.6 4-5.5s2.6-3.8 2.4-5.3c-0.2-2.5-1.6-3.9-3.8-4.4s-5.1 0-8 1.5c-3.2 1.7-7.1 1.5-9.6 2.1-1.2 0.3-2 0.6-2.4 1.4s-0.4 2 0.4 4.1c0.4 1.2 0.1 2.5-0.1 3.7s-0.3 2.4 0.1 3.1c0.5 1 1.3 1.4 2.3 1.8s2.1 0.6 3.1 1.5c0.8 0.9 1.5 2 2.2 2.8 0.8 0.8 1.4 1.3 2.4 1.3m36.2 0.2c0.1-2.1 1.1-4.2 2.9-4.6 2-0.5 4.8 1.2 6 2.5h0.7c1.1 0 1.9 0 2.8-0.8 0.7-0.6 1-1.7 1.3-2.9s0.5-2.6 1.4-3.6c1.6-1.8 2.2-3.1 2.1-3.9 0-0.8-0.6-1.4-1.7-2-2.1-1.3-5.8-2.4-8.2-5.3-2.1-2.5-4.6-3.8-6.8-4s-4.1 0.7-5.3 3c-0.7 1.3-0.4 3.4 0.2 5.7s1.4 4.5 1.6 6.4c0.1 2.4 0.3 4.5 0.7 6.1s1 2.7 2.1 3.3c0.1 0 0.1 0 0.2 0.1m2.5 3c0.6 0 1.4-0.2 2.2-0.6 2.2-1 2.9-1.9 2.3-3.2-0.5-1-2.7-2.5-4.2-2.1s-2.3 2.6-2 4.3c0.1 1.1 0.8 1.6 1.7 1.6m-9.9 27.3c1.2-4.8 4-11.6 5.8-15 1-1.8 2.9-5.6 3.7-10.1 0.5 0 1.1-0.1 1.7-0.2 2.2 5.6-1.8 11.6-3.6 13.3-0.7 0.7-0.8 1-0.4 1 2-1.7 4.6-5.3 5.5-9.2 0.4-1.8 0.5-3.7 0.1-5.6 0.2-0.1 0.5-0.2 0.7-0.3 3.5-1.7 4.7-3.1 4.1-5.1h-0.7c0.5 1.6-0.6 2.8-3.6 4.1-3.1 1.3-5.5 1.2-5.9-1.5 0-0.1 0-0.3-0.1-0.4-0.2-0.1-0.5-0.2-0.7-0.3-1.4-0.8-2.2-2.2-2.7-4-0.4-1.8-0.6-3.9-0.7-6.2-0.1-1.2-0.6-2.8-1.1-4.5-5-3.6-12-5.1-17.9-1.1-0.4 0.6-0.9 1.3-1.3 1.9-0.3 0.4-0.6 0.8-0.9 1.2 0.6 0 1.1 0.1 1.5 0.3 0.5 0.2 0.9 0.6 1.1 1.1 0.4 1 0 2.3-1.2 3.9s-3.1 3.3-6 5.1c-2.1 1.3-3.3 2.9-3.8 4.7-0.6 1.7-0.5 3.6 0 5.5 0.8 3.6 2.9 7.1 4.3 9.3 0.4 0.3 0.1-0.5-1.4-3.3-1.3-2.5-3.8-8.3-0.4-12.9 0.1 3.2 0.9 6.5 2.2 9.6 1.9 4.3 5.8 11.7 6.2 17.6 0.2-0.1 0.7-0.5 1-0.6 0.7-0.4 1.3-1.1 2-1.6 0.7-0.6 1.6-1.1 2.9-1.1 1.6-0.1 2.7 0.4 3.7 0.9 1 0.6 1.7 1.2 2.5 1.4 1.5 0.2 2.7 1 3.4 2.1m-1.6 2.1c-0.5 0-1-0.3-1.6-0.6s-1.2-0.7-1.9-1.1c-1.4-0.8-3.1-1.6-4.7-1.6s-2.9 0.8-3.9 1.5c-0.5 0.4-0.9 0.8-1.2 1.1-0.2 0.1-0.3 0.3-0.4 0.4s-0.2 0.2-0.5 0.2v-0.7s0.1 0 0.1-0.1c0.1-0.1 0.2-0.2 0.4-0.3 0.3-0.3 0.7-0.7 1.2-1.1 1-0.8 2.5-1.7 4.3-1.7s3.5 0.8 5 1.7c0.7 0.4 1.4 0.8 1.9 1.1 0.6 0.3 1 0.5 1.3 0.5zm-7.7 4.6c1.1 0 2.4-0.4 4.1-1.4 1-0.6 1.8-0.7 3.5-1.5 0.9-0.4 1.4-0.8 1.6-1.3s0.3-1 0-1.6c-0.4-1.1-1.7-2.3-3.6-2.8-0.9-0.3-1.7-0.9-2.6-1.5-0.9-0.5-2-1-3.4-0.9-1.2 0.1-1.9 0.5-2.6 1s-1.2 1.2-2.1 1.7c-1.3 0.8-2.1 1.6-2.3 2.4s0 1.4 0.7 1.9c0.7 0.6 1.3 0.9 1.6 1.2s0.5 0.3 0.6 0.5c0.6 0.5 1.5 1.5 2.8 2 0.6 0.2 1.1 0.3 1.7 0.3m-4.5 5.6c0.5 0 0.9-0.2 1.3-0.5 0.5-0.4 0.8-0.9 1.1-1.6s0.5-1.4 0.5-2.2v-1c-0.1 0-0.2-0.1-0.3-0.1-0.5-0.2-1-0.4-1.4-0.7v0.9c0 0.4-0.1 0.8-0.3 1.1-0.2 0.4-0.3 0.6-0.6 0.8-0.2 0.2-0.4 0.3-0.6 0.3h-0.1c-0.2 0-0.4-0.1-0.6-0.4-0.2-0.2-0.3-0.5-0.4-0.9s-0.1-0.8-0.1-1.2 0.1-0.8 0.3-1.1c0.2-0.4 0.3-0.6 0.6-0.8l0.1-0.1c-0.2-0.2-0.3-0.3-0.5-0.4-0.1-0.1-0.3-0.2-0.4-0.3-0.4 0.4-0.7 0.8-0.9 1.4-0.3 0.7-0.5 1.4-0.5 2.2s0 1.5 0.3 2.2c0.2 0.7 0.5 1.2 1 1.7 0.4 0.4 0.9 0.6 1.4 0.7zm9.8 0.8c0.7 0 1.3-0.2 2-0.7 0.6-0.5 1.1-1 1.5-1.9 0.4-0.8 0.5-1.6 0.6-2.5v-0.1c0-0.9-0.2-1.7-0.5-2.6-0.2-0.5-0.4-0.9-0.7-1.2-0.1 0-0.2 0.1-0.3 0.1-0.7 0.3-1.3 0.5-1.7 0.7 0.2 0.2 0.3 0.4 0.4 0.7 0.2 0.4 0.3 0.9 0.3 1.4v0.1c0 0.5-0.1 0.9-0.2 1.4-0.2 0.5-0.3 0.8-0.6 1.1s-0.6 0.4-0.9 0.4-0.6-0.1-0.9-0.3-0.5-0.6-0.7-1-0.3-0.9-0.3-1.4v-0.1c0-0.3 0-0.5 0.1-0.8-0.6 0.3-1.2 0.5-1.8 0.7 0 0.2-0.1 0.5-0.1 0.8v0.1c0 0.9 0.1 1.7 0.5 2.6 0.4 0.8 0.8 1.4 1.4 1.9 0.6 0.4 1.2 0.6 1.9 0.6m-1.7 11.1c-0.5 0-1.1 0-1.6-0.1-14.1-1.1-10.4-16.1-10.6-21.1-0.3-3.7-1-6.5-3.5-10.1-3-3.5-7.1-9.2-9.1-15.1-0.9-2.8-1.4-5.6-1-8.3-0.1-0.1-0.3-0.2-0.4-0.4-0.9-0.9-1.5-2-2.2-2.8-0.7-0.7-1.6-0.9-2.7-1.3s-2.2-0.9-2.9-2.3c-0.6-1.2-0.4-2.5-0.3-3.8s0.4-2.4 0.1-3.3c-0.8-2.3-0.9-3.8-0.4-5 0.6-1.1 1.8-1.6 3.1-1.9 2.7-0.6 6.4-0.4 9.3-2l0.5 0.6-0.2-0.5c3.1-1.6 6.2-2.2 8.8-1.6 1.8 0.4 3.3 1.5 4.1 3.2 2 0 4.1 0.8 7.6 1 2.3 0.2 5.3-0.8 8.6-0.6 0.1-0.4 0.2-0.7 0.4-1 1.3-2.6 3.7-3.8 6.3-3.6s5.3 1.7 7.6 4.4l-0.4 0.3 0.4-0.3c2.1 2.6 5.6 3.6 8 5 1.2 0.7 2.1 1.6 2.2 2.9s-0.7 2.7-2.4 4.6c-0.6 0.6-0.8 1.8-1.1 3.1s-0.6 2.6-1.7 3.5c-0.4 0.4-0.8 0.6-1.3 0.8 1.4 4.3 0.9 8.5-0.6 12.4-1.8 4.7-4.9 8.8-7.3 11.6-2.7 3.4-5.3 6.6-5.2 11.3-0.1 7 0.6 20.4-12.1 20.4" fill="#666"/>
    </g>
    <g transform="matrix(.35278 0 0 -.35278 19.086 27.397)">
      <path d="m0 0c-0.4 0.3-1.3 0.6-3.4-0.2-1.6-0.6-2.4-2.4-1.8-3.7 0.5-1.3 1.9-1.4 3.4-0.8 4.4 1.7 3.6 7.1 2.7 11.2-0.7 3.1-2.2 2.3-1.5-0.6 0.3-1 0.4-1.6 0.7-2.6 0.8-3.1 2.3-6.5 5-5.8 2.2 0.5 3.2 1.8 2.9 3.8-0.4 2.5-3.3 1.8-2.8-0.7 0.4-1.8 2-2.6 4.1-2.2 2 0.3 3.5 1.5 3.3 3.3-0.1 1-1 1.6-2.2 1.8" fill="none" stroke="#a3a3a3" stroke-linecap="round" stroke-linejoin="round" stroke-miterlimit="3.864"/>
    </g>
    <g transform="matrix(.35278 0 0 -.35278 24.695 25.88)" fill="none" stroke="#a3a3a3" stroke-miterlimit="3.864">
      <path d="m0 0c-1.9-0.6-3.2-1.9-3-3.6 0.1-1.3 1.3-1.6 2.7-1.5 0.6 0 0.9 0.2 1.4 0.3" stroke-linecap="round" stroke-linejoin="round"/>
      <path d="m0 0c-1.9-0.6-3.2-1.9-3-3.6 0.1-1.3 1.3-1.6 2.7-1.5 0.6 0 0.9 0.2 1.4 0.3"/>
    </g>
    <g transform="matrix(.35278 0 0 -.35278 23.143 27.079)">
      <path d="m0 0c1.4 0.2 2.2 0.3 3.6 0.5" fill="none" stroke="#a3a3a3" stroke-linecap="round" stroke-linejoin="round" stroke-miterlimit="3.864"/>
    </g>
    <g transform="matrix(.35278 0 0 -.35278 25.86 26.056)">
      <path d="m0 0c-1.4-0.3-2.2-1.3-2.1-2.5 0-1.2 1.2-2 2.4-2 1.5 0 2.8 1.1 2.9 2.5s-0.4 1.9-1.8 1.9c-0.6-0.1-0.8-0.6-0.4-1 0.4-0.3 0.9-0.4 1.5-0.4 1.3-0.1 1.8 1.1 3.1 0.9 1.1-0.1 1.5-1.2 1.4-2.1-0.1-0.8-0.3-1.3-0.4-2.1 0.1 0.7 0.2 1.1 0.3 1.8 0.2 1.1 1.2 2 2.4 1.8 0.8-0.1 1.4-0.8 1.2-1.5-0.3-1.2-0.2-1-0.5-2.2-0.1-0.4 0.3-0.5 0.6-0.6 1.4-0.3 2.2 0.9 3.1 1.9 1.7 1.8 2.3 3.1 3.1 5.3 1.3 3.9-1 4.1-2.1 0.3-0.5-1.8-0.7-2.8-0.7-4.6 0.1-1.5-0.7-3.6 0.9-4.1 0.7-0.2 1.7 0.4 2 1.1 0.7 1.4 0.7 1.5 1.2 2.7-0.4-1.3-0.2-0.9-0.5-1.6-1.2-3.5 0.1-3.4 0.5-3 1.7 1 1.7 3.7 3.8 2.9 0.8-0.3 1.3-1.3 0.9-2-0.5-1.1-0.8-1.6-1.3-2.7 0.7 1.7 1.8 3.8 3.6 2.9 2-1-1.2-3.9 0.6-4.9 1.5-0.8 3.2-0.4 4.1 0.9 1.1 1.6-0.8 3.1-2.1 0.9-0.6-1.1-0.3-4 2-3.7" fill="none" stroke="#a3a3a3" stroke-linecap="round" stroke-linejoin="round" stroke-miterlimit="3.864"/>
    </g>
    <g transform="matrix(.35278 0 0 -.35278 32.598 26.091)">
      <path d="m0 0c0-0.1-0.1-0.1-0.1-0.2" fill="none" stroke="#a3a3a3" stroke-linecap="round" stroke-linejoin="round" stroke-miterlimit="3.864"/>
    </g>
  </g>
</svg>
