<svg width="50.094mm" height="59.999mm" version="1.1" viewBox="0 0 50.094 59.999" xmlns="http://www.w3.org/2000/svg">
  <defs>
    <linearGradient id="linearGradient5992" x2="1" gradientTransform="matrix(121.26 70.012 -70.012 121.26 1228.8 1026.8)" gradientUnits="userSpaceOnUse">
      <stop stop-color="#c0a161" offset="0"/>
      <stop stop-color="#c0a161" offset=".2637"/>
      <stop stop-color="#c6aa6c" offset=".2784"/>
      <stop stop-color="#d4c087" offset=".3216"/>
      <stop stop-color="#decf9b" offset=".3655"/>
      <stop stop-color="#e4d9a6" offset=".41"/>
      <stop stop-color="#e6dcaa" offset=".456"/>
      <stop stop-color="#ded09b" offset=".5082"/>
      <stop stop-color="#cab074" offset=".6081"/>
      <stop stop-color="#c2a465" offset=".6429"/>
      <stop stop-color="#c0a161" offset=".8242"/>
      <stop stop-color="#c0a161" offset="1"/>
    </linearGradient>
    <linearGradient id="linearGradient6044" x2="1" gradientTransform="matrix(83.152 48.008 48.008 -83.152 1247.9 1037.8)" gradientUnits="userSpaceOnUse">
      <stop stop-color="#c0a161" offset="0"/>
      <stop stop-color="#c0a161" offset=".2637"/>
      <stop stop-color="#c6aa6c" offset=".2784"/>
      <stop stop-color="#d4c087" offset=".3216"/>
      <stop stop-color="#decf9b" offset=".3655"/>
      <stop stop-color="#e4d9a6" offset=".41"/>
      <stop stop-color="#e6dcaa" offset=".456"/>
      <stop stop-color="#ded09b" offset=".5082"/>
      <stop stop-color="#cab074" offset=".6081"/>
      <stop stop-color="#c2a465" offset=".6429"/>
      <stop stop-color="#c0a161" offset=".8242"/>
      <stop stop-color="#c0a161" offset="1"/>
    </linearGradient>
  </defs>
  <g transform="translate(-18.109 -1.6921)">
    <g transform="matrix(.35278 0 0 -.35278 35.174 61.691)">
      <path d="m0 0 26.6 69.5-34.5 13.2-26.6-69.4 21.2 3.3z" fill="#77623e"/>
    </g>
    <g transform="matrix(.35278 0 0 -.35278 52.143 61.691)">
      <path d="m0 0-26.6 69.5 34.5 13.2 26.6-69.4-21.2 3.3z" fill="#77623e"/>
    </g>
    <g transform="matrix(.35278 0 0 -.35278 34.469 61.338)">
      <path d="m0 0 26.6 69.5-34.5 13.2-26.6-69.4 21.2 3.3z" fill="#3b5998"/>
    </g>
    <g transform="matrix(.35278 0 0 -.35278 51.437 61.338)">
      <path d="m0 0-26.6 69.5 34.5 13.2 26.6-69.4-21.2 3.3z" fill="#3b5998"/>
    </g>
    <g transform="matrix(.35278 0 0 -.35278 43.156 2.0449)">
      <path d="m0 0c38.66 0 70-31.34 70-70s-31.34-70-70-70-70 31.34-70 70 31.34 70 70 70z" fill="none" stroke="#77623e" stroke-width="2"/>
    </g>
    <g transform="matrix(.35278 0 0 -.35278 -411.73 401.31)">
      <path d="m1219.4 1061.8c0-38.659 31.339-70 70-70 38.659 0 70 31.341 70 70 0 38.661-31.341 70.001-70 70.001-38.661 0-70-31.34-70-70.001" fill="url(#linearGradient5992)"/>
    </g>
    <g transform="matrix(.35278 0 0 -.35278 43.156 3.5266)">
      <path d="m0 0c36.34 0 65.8-29.46 65.8-65.8s-29.46-65.8-65.8-65.8-65.8 29.46-65.8 65.8 29.46 65.8 65.8 65.8" fill="#3b5998"/>
    </g>
    <g transform="matrix(.35278 0 0 -.35278 -411.73 401.31)">
      <path d="m1241.4 1061.8c0-26.509 21.49-47.999 48-47.999 26.509 0 48 21.49 48 47.999 0 26.51-21.491 48.001-48 48.001-26.51 0-48-21.491-48-48.001" fill="url(#linearGradient6044)"/>
    </g>
    <g transform="matrix(.35278 0 0 -.35278 27.025 39.184)">
      <path d="m0 0c0.3 0.6 0.6 1.1 0.9 1.7 0.2 0.4 0.4 0.7 0.7 1-0.4-0.1-0.7-0.2-1.1-0.3-0.6-0.1-1.3-0.2-1.9-0.3 0.5-0.8 0.9-1.4 1.4-2.1m-2 1.9c-0.7-0.1-1.4-0.2-2.1-0.3-0.2 0.3-0.4 0.7-0.6 1 2.2 0.2 4.4 0.6 6.6 1 0.2-0.3 0.5-0.7 0.7-1-1.1-1.9-2.1-3.9-3.1-5.9-0.2 0.3-0.5 0.6-0.7 0.9 0.3 0.6 0.6 1.3 1 1.9-0.7 0.7-1.3 1.5-1.8 2.4" fill="#b59054"/>
    </g>
    <g transform="matrix(.35278 0 0 -.35278 28.613 42.182)">
      <path d="m0 0c-0.4 0.2-1.1 0.6-1.8 1.3-1.6 1.7-1.9 3.8-0.4 5.1 1.5 1.2 3.5 0.8 5.1-0.9 0.6-0.7 1-1.2 1.1-1.4l-0.6-0.3c-0.2 0.4-0.5 0.8-0.9 1.3-1.2 1.3-2.7 1.6-3.9 0.5-1.1-1-1.1-2.5 0.3-4 0.5-0.5 1-0.9 1.4-1-0.2-0.2-0.3-0.4-0.3-0.6" fill="#b59054"/>
    </g>
    <g transform="matrix(.35278 0 0 -.35278 30.588 41.512)">
      <path d="m0 0c-0.6 0.5-1.1 1-1.7 1.5l0.5 0.5c1.3-1.3 2.7-2.5 4.1-3.6-0.1-0.2-0.3-0.4-0.4-0.5-0.6 0.5-1.2 0.9-1.8 1.4-1.2-1.4-2.3-2.8-3.5-4.1-0.3 0.2-0.5 0.5-0.8 0.7 1.2 1.3 2.4 2.7 3.6 4.1" fill="#b59054"/>
    </g>
    <g transform="matrix(.35278 0 0 -.35278 32.14 42.464)">
      <path d="m0 0c-1.2-1.6-2.4-3.3-3.5-4.9-0.3 0.2-0.6 0.4-0.8 0.6 1.2 1.6 2.4 3.2 3.6 4.9 0.2-0.2 0.4-0.4 0.7-0.6" fill="#b59054"/>
    </g>
    <g transform="matrix(.35278 0 0 -.35278 31.964 44.934)">
      <path d="m0 0c0.3 2.2 0.8 4.3 1.3 6.4 0.3-0.2 0.6-0.4 0.8-0.6-0.2-1-0.5-2.1-0.7-3.1-0.2-0.9-0.3-1.6-0.5-2.4 0.6 0.5 1.2 1 1.9 1.5 0.9 0.6 1.7 1.3 2.6 2 0.3-0.2 0.6-0.3 0.9-0.5-1.7-1.4-3.5-2.7-5.4-3.9l-0.9 0.6" fill="#b59054"/>
    </g>
    <g transform="matrix(.35278 0 0 -.35278 34.751 44.052)">
      <path d="m0 0-2.7-5.4c-0.3 0.2-0.6 0.3-0.9 0.5 0.9 1.8 1.9 3.6 2.8 5.4 0.3-0.2 0.5-0.4 0.8-0.5" fill="#b59054"/>
    </g>
    <g transform="matrix(.35278 0 0 -.35278 34.504 45.922)">
      <path d="m0 0c0.3-0.4 0.8-0.8 1.5-1.1 1-0.4 1.7-0.2 1.9 0.3s-0.1 1-0.9 1.7c-1 0.8-1.5 1.6-1.1 2.4 0.4 0.9 1.5 1.1 2.8 0.6 0.7-0.3 1.1-0.6 1.3-0.9l-0.5-0.5c-0.2 0.2-0.6 0.5-1.2 0.8-0.9 0.4-1.4 0.1-1.6-0.3-0.2-0.5 0.1-1 0.9-1.6 1-0.8 1.4-1.5 1.1-2.4s-1.5-1.3-3.2-0.6c-0.7 0.3-1.4 0.8-1.7 1.2 0.3 0.1 0.5 0.2 0.7 0.4" fill="#b59054"/>
    </g>
    <g transform="matrix(.35278 0 0 -.35278 37.397 45.357)">
      <path d="m0 0c-0.7 0.2-1.4 0.5-2.1 0.7 0.1 0.2 0.2 0.4 0.2 0.6 1.6-0.6 3.3-1.1 5-1.5-0.1-0.2-0.1-0.4-0.2-0.6l-2.1 0.6c-0.5-1.7-1-3.4-1.6-5.2-0.3 0.1-0.7 0.2-1 0.3 0.7 1.6 1.3 3.3 1.8 5.1" fill="#b59054"/>
    </g>
    <g transform="matrix(.35278 0 0 -.35278 39.725 46.804)">
      <path d="m0 0c0.2-0.1 0.5-0.1 0.8-0.2 1.1-0.2 1.9 0.2 2 1s-0.5 1.3-1.5 1.4c-0.4 0.1-0.7 0.1-0.9 0.1-0.1-0.7-0.2-1.5-0.4-2.3m-0.3 3.1c0.4 0 1-0.1 1.7-0.2 0.9-0.1 1.5-0.4 1.9-0.8 0.3-0.3 0.5-0.8 0.5-1.3-0.1-0.5-0.3-1-0.7-1.2-0.6-0.4-1.4-0.5-2.3-0.3-0.3 0-0.5 0.1-0.8 0.2-0.1-0.8-0.3-1.6-0.4-2.4-0.3 0.1-0.7 0.1-1 0.2 0.3 1.8 0.7 3.8 1.1 5.8" fill="#b59054"/>
    </g>
    <g transform="matrix(.35278 0 0 -.35278 42.83 47.192)">
      <path d="m0 0c-1 0-1.9 0.1-2.9 0.1-0.1-0.7-0.1-1.5-0.2-2.2 1.1-0.1 2.2-0.1 3.3-0.2v-0.7c-1.5 0-2.9 0.1-4.4 0.2l0.6 6c1.3-0.1 2.5-0.2 3.8-0.2v-0.7c-1 0-1.9 0.1-2.9 0.1 0-0.6-0.1-1.3-0.1-1.9 0.9-0.1 1.9-0.1 2.8-0.1v-0.4" fill="#b59054"/>
    </g>
    <g transform="matrix(.35278 0 0 -.35278 45.052 45.992)">
      <path d="m0 0c1.3 0.1 2.5 0.3 3.7 0.5 0-0.2 0.1-0.4 0.1-0.6-1-0.1-1.9-0.3-2.9-0.4 0.1-0.7 0.1-1.3 0.2-2 0.9 0.1 1.8 0.2 2.8 0.4 0-0.2 0.1-0.4 0.1-0.6-0.9-0.1-1.9-0.3-2.8-0.4l0.3-2.7c-0.3 0-0.7-0.1-1-0.1-0.2 1.9-0.4 3.9-0.5 5.9" fill="#b59054"/>
    </g>
    <g transform="matrix(.35278 0 0 -.35278 48.333 46.698)">
      <path d="m0 0c-0.4 0.5-0.8 1-1.1 1.5-0.2 0.3-0.4 0.7-0.6 1 0-0.4-0.1-0.8-0.1-1.1-0.1-0.6-0.2-1.2-0.3-1.9 0.7 0.1 1.4 0.3 2.1 0.5m-2.3-1.2c-0.1-0.7-0.3-1.4-0.4-2-0.3-0.1-0.7-0.1-1-0.2 0.5 2.1 1 4.3 1.3 6.4 0.4 0.1 0.7 0.2 1.1 0.2 1.3-1.8 2.6-3.5 4-5.2-0.3-0.1-0.7-0.2-1-0.3-0.4 0.5-0.9 1.1-1.3 1.6-0.9-0.1-1.8-0.3-2.7-0.5" fill="#b59054"/>
    </g>
    <g transform="matrix(.35278 0 0 -.35278 51.508 46.521)">
      <path d="m0 0c-0.3-0.3-0.9-0.7-1.8-1-2.1-0.8-4-0.2-4.6 1.7-0.5 1.8 0.5 3.5 2.6 4.2 0.8 0.3 1.4 0.4 1.7 0.4v-0.7c-0.4 0-0.9-0.1-1.4-0.3-1.6-0.6-2.3-1.8-1.9-3.3 0.4-1.4 1.8-2 3.6-1.3 0.6 0.2 1.1 0.5 1.4 0.8 0.1-0.2 0.2-0.4 0.4-0.5" fill="#b59054"/>
    </g>
    <g transform="matrix(.35278 0 0 -.35278 52.813 44.899)">
      <path d="m0 0c-0.9-0.5-1.7-0.9-2.6-1.3 0.3-0.7 0.6-1.3 0.9-2l3 1.5 0.3-0.6c-1.3-0.7-2.7-1.3-4-1.9-0.8 1.9-1.6 3.7-2.5 5.6 1.2 0.5 2.3 1.1 3.5 1.7l0.3-0.6c-0.9-0.5-1.8-0.9-2.7-1.3 0.3-0.6 0.5-1.2 0.8-1.7 0.9 0.4 1.7 0.8 2.6 1.3 0.2-0.3 0.3-0.5 0.4-0.7" fill="#b59054"/>
    </g>
    <g transform="matrix(.35278 0 0 -.35278 54.048 45.11)">
      <path d="m0 0 0.8 0.4c0.9 0.5 1.6 1.3 1.1 2.1-0.5 0.7-1.4 0.5-2.3-0.1-0.2-0.1-0.5-0.3-0.7-0.4 0.3-0.7 0.7-1.4 1.1-2m-1.5 2.5c0.3 0.1 0.5 0.3 0.8 0.5 0.9 0.5 1.2 1.2 0.8 1.7-0.4 0.6-1.1 0.5-1.9 0-0.4-0.2-0.6-0.4-0.7-0.5 0.4-0.6 0.7-1.2 1-1.7m-2 1.7c0.3 0.3 0.8 0.6 1.4 1 0.8 0.5 1.4 0.7 1.9 0.7 0.4 0 0.8-0.2 1.1-0.6 0.3-0.5 0.2-1.2-0.3-1.8 0.7 0.3 1.7 0.3 2.2-0.4 0.3-0.4 0.3-0.9 0.1-1.4-0.2-0.6-0.9-1.3-2-1.9-0.6-0.4-1.1-0.6-1.4-0.7-1.1 1.6-2.1 3.3-3 5.1" fill="#b59054"/>
    </g>
    <g transform="matrix(.35278 0 0 -.35278 55.353 43.241)">
      <path d="m0 0c0.8-1 2.2-1.5 3.5-0.4 1.3 1 1.2 2.5 0.3 3.6-0.8 0.9-2.2 1.3-3.4 0.3-1.3-1-1.2-2.5-0.4-3.5m4.6 3.8c1.4-1.5 0.9-3.5-0.7-4.8-1.7-1.4-3.6-1.2-4.7 0.3-1.1 1.6-0.6 3.4 0.9 4.6 1.4 1.3 3.2 1.3 4.5-0.1" fill="#b59054"/>
    </g>
    <g transform="matrix(.35278 0 0 -.35278 57.505 41.406)">
      <path d="m0 0c0.9-0.9 2.4-1.1 3.6 0.1 1.2 1.3 0.9 2.7-0.1 3.6-0.9 0.8-2.4 1-3.5-0.2-1.2-1.2-0.9-2.6 0-3.5m4.1 4.6c1.6-1.3 1.3-3.4-0.1-5-1.5-1.6-3.5-1.7-4.7-0.4-1.3 1.4-1.1 3.3 0.3 4.8 1.3 1.5 3.1 1.7 4.5 0.6" fill="#b59054"/>
    </g>
    <g transform="matrix(.35278 0 0 -.35278 58.458 38.725)">
      <path d="m0 0c0.2 0.3 0.4 0.5 0.6 0.8 0.8-0.6 1.6-1.2 2.3-1.8-0.1 0.3-0.1 0.6-0.1 0.9-0.1 1.1-0.3 2.2-0.5 3.3 0.2 0.3 0.5 0.7 0.7 1.1 0.2-1.3 0.4-2.6 0.5-3.9 1.6 0.2 3.1 0.4 4.7 0.8-0.2-0.4-0.5-0.8-0.7-1.1-1.4-0.2-2.7-0.4-4-0.6 0-0.3 0-0.7 0.1-1 0.6-0.5 1.2-0.9 1.8-1.4-0.2-0.3-0.4-0.6-0.7-0.9-1.5 1.3-3.1 2.5-4.7 3.8" fill="#b59054"/>
    </g>
    <g transform="matrix(.35278 0 0 -.35278 46.816 25.39)">
      <path d="m0 0c0 0.1 0.2 0.1 0.3 0.2 0.2 0 0.2 0.1 0.3 0.1 0.2 0.1 0.5 0.1 0.7 0.2 3.3 1 6.4 2 9.7 2.9 0.3 0.2 0.5 0.5 0.7 0.8s0.4 0.6 0.5 0.9c0.6 2.4-0.2 6.9-1.5 8.9-0.1 0.1-0.2 0.2-0.2 0.3-0.3 0.3-0.7 0.5-1.1 0.8-0.1 0.1-0.3 0.1-0.4 0.2-3.8-0.2-7.7-0.3-11.5-0.5-0.2 3.8-0.1 7.3 0.5 10.5 0.2 1.2 0.5 2.3 0.9 3.5 0.1 0.3 0.3 0.7 0.4 1 0.7 1.3 1.4 2.6 3.1 3.2 0.1 0 0.1 0 0.1 0.1 1 0.2 1.7 0 2.4-0.2 0.3-0.1 0.6-0.3 0.9-0.5 0.1-0.1 0.3-0.2 0.4-0.3s0.3-0.2 0.4-0.3c0.6-0.4 1-1 1.5-1.5 0.4-0.6 0.9-1.1 1.3-1.7 1.6-2.5 2.9-5.4 4-8.6s2-6.7 2.6-10.6c0.6-3.8 0.8-7.3 0.8-10.6-0.1-3.3-0.4-6.4-1.3-9.1-0.4-1.4-1-2.6-1.9-3.7-0.5-0.5-1-1-1.8-1.2-0.9-0.3-1.7-0.1-2.4 0.1-0.1 0.1-0.3 0.1-0.5 0.2s-0.3 0.2-0.5 0.2c-0.3 0.2-0.6 0.4-0.8 0.6-0.5 0.5-1 0.9-1.4 1.5-0.2 0.2-0.3 0.4-0.5 0.6s-0.4 0.4-0.5 0.6c-0.2 0.2-0.3 0.5-0.4 0.7-2.1 2.9-3.6 6.6-4.8 10.7" fill="#68573b"/>
    </g>
    <g transform="matrix(.35278 0 0 -.35278 49.744 20.451)">
      <path d="m0 0c0.6 0.2 0.9-0.2 1.2-0.5s0.5-0.7 0.7-1.1c0.7-1.6 1.2-4.1 1-5.9 0-0.2-0.1-0.4-0.1-0.7-0.1-0.5-0.2-0.9-0.5-1.3-0.1-0.1-0.2-0.2-0.4-0.2-0.5-0.1-0.8 0.3-1.1 0.5-0.2 0.3-0.5 0.7-0.7 1.1-0.8 1.5-1.2 4-1.1 5.8 0 0.5 0.1 1.1 0.3 1.6 0 0.1 0.1 0.2 0.1 0.3 0.2 0.1 0.4 0.3 0.6 0.4" fill="#68573b"/>
    </g>
    <g transform="matrix(.35278 0 0 -.35278 47.698 28.53)">
      <path d="m0 0c-0.3 0.5-0.5 1-0.7 1.4-0.1 0.2-0.1 0.4-0.2 0.5-0.6 1.4-1.2 2.7-1.7 4.2-2 5.7-3.4 13.5-3.5 19.6 0 1.5 0 3.1 0.1 4.5 0 0.8 0.1 1.4 0.2 2.2 0.1 0.3 0.1 0.7 0.2 1 0 0.2 0.1 0.3 0.1 0.5s0.1 0.4 0.1 0.5c-0.3-0.9-0.8-1.7-1.2-2.5-0.3-0.4-0.5-0.7-0.8-1.1-0.3-0.3-0.6-0.7-0.9-1-0.4-0.3-0.7-0.6-1.1-0.9-0.3-0.3-0.8-0.6-1.2-0.9-0.9-0.5-1.8-1-2.9-1.3-1-0.4-2.3-0.6-3.5-0.9s-2.3-0.6-3.5-0.9c-2.3-0.6-4.5-1.3-6.8-1.9-9-2.6-17.7-5.4-25.7-8.7-0.1 0-0.1-0.1-0.2-0.1-0.7-0.7-0.9-1.7-0.9-2.8-0.1-1.1-0.1-2.3 0.1-3.5 0.4-2.7 1.2-4.9 2.4-6.3 0.2-0.3 0.6-0.5 0.9-0.6 3-0.1 6-0.2 9.1-0.2v-0.2c0.5-0.2 0.9-0.7 1-1.4 0.5-3.2 0.5-6.4 0.5-9.6 0-2.8 0.2-5.5 0.6-8.3 0.5-3.9 0.7-8.6 2.8-12.1 3.4 0.1 6.8 0.1 10.3 0.5 2.2 0.2 3.6 1.1 4.5 2.3 0.5 0.6 0.8 1.3 0.8 2.2-0.1 0.9-0.5 1.9-0.6 2.9-0.4 2-0.9 4-1.3 6.1s-0.7 4.2-1 6.3c-0.6 4.1-1 8.1-1.3 12 2.5 0.2 5 0.4 7.6 0.5 1.3 0.1 2.6 0.2 3.8 0.4 1.3 0.1 2.7 0.4 3.9 0.4 1.3 0.1 2.4 0 3.5-0.2 0.5-0.1 1-0.3 1.5-0.4 0.2-0.1 0.5-0.1 0.7-0.3 0.3 0 0.5-0.2 0.7-0.3 0.4-0.2 0.9-0.4 1.3-0.7 0.4-0.2 0.8-0.5 1.2-0.8s0.8-0.6 1.1-0.9c0.2-0.2 0.3-0.4 0.5-0.6 0.1-0.1 0.2-0.2 0.2-0.3 0.1 0 0.1-0.1 0.1-0.1s0.1-0.2 0.1-0.1c-0.3 0.7-0.6 1.3-0.9 1.9" fill="#68573b"/>
    </g>
    <g transform="matrix(.35278 0 0 -.35278 36.162 8.5625)">
      <path d="m0 0c-0.4 0.3-1.3 0.6-3.4-0.2-1.6-0.6-2.4-2.4-1.8-3.7 0.5-1.3 1.9-1.4 3.4-0.8 4.4 1.7 3.6 7.1 2.7 11.2-0.7 3.1-2.2 2.3-1.5-0.6 0.3-1 0.4-1.6 0.7-2.6 0.8-3.1 2.3-6.5 5-5.8 2.2 0.5 3.2 1.8 2.9 3.8-0.4 2.5-3.3 1.8-2.8-0.7 0.4-1.8 2-2.6 4.1-2.2 2 0.3 3.5 1.5 3.3 3.3-0.1 1-1 1.6-2.2 1.8" fill="none" stroke="#b59054" stroke-linecap="round" stroke-linejoin="round" stroke-miterlimit="3.864"/>
    </g>
    <g transform="matrix(.35278 0 0 -.35278 41.771 7.0455)" fill="none" stroke="#b59054" stroke-miterlimit="3.864">
      <path d="m0 0c-1.9-0.6-3.2-1.9-3-3.6 0.1-1.3 1.3-1.6 2.7-1.5 0.6 0 0.8 0.2 1.4 0.3" stroke-linecap="round" stroke-linejoin="round"/>
      <path d="m0 0c-1.9-0.6-3.2-1.9-3-3.6 0.1-1.3 1.3-1.6 2.7-1.5 0.6 0 0.8 0.2 1.4 0.3"/>
    </g>
    <g transform="matrix(.35278 0 0 -.35278 40.219 8.245)">
      <path d="m0 0c1.4 0.2 2.2 0.3 3.5 0.5" fill="none" stroke="#b59054" stroke-linecap="round" stroke-linejoin="round" stroke-miterlimit="3.864"/>
    </g>
    <g transform="matrix(.35278 0 0 -.35278 42.935 7.1867)">
      <path d="m0 0c-1.4-0.3-2.2-1.3-2.1-2.5 0-1.2 1.2-2 2.4-2 1.5 0 2.8 1.1 2.9 2.5s-0.4 1.9-1.8 1.9c-0.6-0.1-0.8-0.6-0.4-1 0.4-0.3 0.9-0.4 1.5-0.4 1.3-0.1 1.8 1.1 3.1 0.9 1.1-0.1 1.5-1.2 1.4-2.1-0.1-0.8-0.3-1.3-0.4-2.1 0.1 0.7 0.2 1.1 0.3 1.8 0.2 1.1 1.2 2 2.4 1.8 0.8-0.1 1.4-0.8 1.2-1.5-0.3-1.2-0.2-1-0.5-2.2-0.1-0.4 0.3-0.5 0.6-0.6 1.4-0.3 2.2 0.9 3.1 1.9 1.7 1.8 2.3 3.1 3.1 5.3 1.3 3.9-1 4.1-2.1 0.3-0.5-1.8-0.7-2.8-0.7-4.6 0.1-1.5-0.7-3.6 0.9-4.1 0.7-0.2 1.7 0.4 2 1.1 0.7 1.4 0.7 1.5 1.2 2.7-0.4-1.3-0.2-0.9-0.5-1.6-1.2-3.5 0.1-3.4 0.5-3 1.7 1 1.7 3.7 3.8 2.9 0.8-0.3 1.3-1.3 0.9-2-0.5-1.1-0.8-1.6-1.3-2.7 0.7 1.7 1.8 3.8 3.6 2.9 2-1-1.2-3.9 0.6-4.9 1.5-0.8 3.2-0.4 4.1 0.9 1.1 1.6-0.8 3.1-2.1 0.9-0.6-1.1-0.3-4 2-3.7" fill="none" stroke="#b59054" stroke-linecap="round" stroke-linejoin="round" stroke-miterlimit="3.864"/>
    </g>
    <g transform="matrix(.35278 0 0 -.35278 49.673 7.2219)">
      <path d="m0 0c0-0.1-0.1-0.1-0.1-0.2" fill="none" stroke="#b59054" stroke-linecap="round" stroke-linejoin="round" stroke-miterlimit="3.864"/>
    </g>
  </g>
</svg>
