<svg width="50.094mm" height="59.655mm" version="1.1" viewBox="0 0 50.094 59.655" xmlns="http://www.w3.org/2000/svg">
  <defs>
    <linearGradient id="linearGradient6220" x2="1" gradientTransform="matrix(121.26 70.012 -70.012 121.26 1050.8 1026.8)" gradientUnits="userSpaceOnUse">
      <stop stop-color="#c0a161" offset="0"/>
      <stop stop-color="#c0a161" offset=".2637"/>
      <stop stop-color="#c6aa6c" offset=".2784"/>
      <stop stop-color="#d4c087" offset=".3216"/>
      <stop stop-color="#decf9b" offset=".3655"/>
      <stop stop-color="#e4d9a6" offset=".41"/>
      <stop stop-color="#e6dcaa" offset=".456"/>
      <stop stop-color="#ded09b" offset=".5082"/>
      <stop stop-color="#cab074" offset=".6081"/>
      <stop stop-color="#c2a465" offset=".6429"/>
      <stop stop-color="#c0a161" offset=".8242"/>
      <stop stop-color="#c0a161" offset="1"/>
    </linearGradient>
    <linearGradient id="linearGradient6272" x2="1" gradientTransform="matrix(83.152 48.008 48.008 -83.152 1070.9 1036.8)" gradientUnits="userSpaceOnUse">
      <stop stop-color="#c0a161" offset="0"/>
      <stop stop-color="#c0a161" offset=".2637"/>
      <stop stop-color="#c6aa6c" offset=".2784"/>
      <stop stop-color="#d4c087" offset=".3216"/>
      <stop stop-color="#decf9b" offset=".3655"/>
      <stop stop-color="#e4d9a6" offset=".41"/>
      <stop stop-color="#e6dcaa" offset=".456"/>
      <stop stop-color="#ded09b" offset=".5082"/>
      <stop stop-color="#cab074" offset=".6081"/>
      <stop stop-color="#c2a465" offset=".6429"/>
      <stop stop-color="#c0a161" offset=".8242"/>
      <stop stop-color="#c0a161" offset="1"/>
    </linearGradient>
  </defs>
  <g transform="translate(-27 -65.593)">
    <g transform="matrix(.35278 0 0 -.35278 43.757 125.25)">
      <path d="m0 0 26.7 69.5-34.5 13.2-26.6-69.4 21.2 3.3z" fill="#77623e"/>
    </g>
    <g transform="matrix(.35278 0 0 -.35278 60.761 125.25)">
      <path d="m0 0-26.7 69.5 34.5 13.2 26.6-69.4-21.1 3.3z" fill="#77623e"/>
    </g>
    <g transform="matrix(.35278 0 0 -.35278 43.051 124.89)">
      <path d="m0 0 26.7 69.5-34.5 13.2-26.6-69.4 21.2 3.3z" fill="#2a1909"/>
    </g>
    <g transform="matrix(.35278 0 0 -.35278 60.055 124.89)">
      <path d="m0 0-26.7 69.5 34.5 13.2 26.6-69.4-21.1 3.3z" fill="#2a1909"/>
    </g>
    <g transform="matrix(.35278 0 0 -.35278 52.047 65.945)">
      <path d="m0 0c38.66 0 70-31.34 70-70s-31.34-70-70-70-70 31.34-70 70 31.34 70 70 70z" fill="none" stroke="#77623e" stroke-width="2"/>
    </g>
    <g transform="matrix(.35278 0 0 -.35278 -340.34 465.1)">
      <path d="m1041.5 1061.8c0-38.659 31.34-70 69.999-70 38.66 0 70 31.341 70 70 0 38.661-31.34 70.001-70 70.001-38.659 0-69.999-31.34-69.999-70.001" fill="url(#linearGradient6220)"/>
    </g>
    <g transform="matrix(.35278 0 0 -.35278 51.765 67.321)">
      <path d="m0 0c36.34 0 65.8-29.46 65.8-65.8s-29.46-65.8-65.8-65.8-65.8 29.46-65.8 65.8 29.46 65.8 65.8 65.8" fill="#2a1909"/>
    </g>
    <g transform="matrix(.35278 0 0 -.35278 -340.34 465.1)">
      <path d="m1064.5 1060.8c0-26.51 21.49-48 48-48s48.001 21.49 48.001 48c0 26.509-21.491 47.999-48.001 47.999s-48-21.49-48-47.999" fill="url(#linearGradient6272)"/>
    </g>
    <g transform="matrix(.35278 0 0 -.35278 35.184 101.47)">
      <path d="m0 0c-0.6 1-1.2 2-1.7 3.1-0.6-0.3-1.3-0.7-1.9-1 0.6-1.2 1.3-2.4 2-3.5l-0.6-0.3c-0.9 1.5-1.8 3.1-2.5 4.7l5.4 2.7c0.7-1.4 1.4-2.7 2.2-4l-0.6-0.3c-0.6 1-1.2 2-1.7 3.1-0.6-0.3-1.1-0.6-1.7-0.9 0.5-1 1.1-2 1.7-3-0.2-0.4-0.4-0.5-0.6-0.6" fill="#b59054"/>
    </g>
    <g transform="matrix(.35278 0 0 -.35278 35.114 102.85)">
      <path d="m0 0c0.1-0.3 0.4-0.6 0.6-1 1.4-2.1 3-2.5 4.3-1.4 1.1 0.9 1.1 2.3-0.2 4.1-0.3 0.5-0.6 0.8-0.8 1-1.2-0.9-2.5-1.8-3.9-2.7m3.9 3.9c0.4-0.5 0.9-1.1 1.4-1.8 0.9-1.2 1.3-2.2 1.4-3.1s-0.2-1.7-0.9-2.3c-0.8-0.6-1.7-0.8-2.6-0.5-1 0.3-2.1 1.2-3.1 2.7-0.5 0.7-0.8 1.3-1.1 1.8 1.6 1 3.2 2.1 4.9 3.2" fill="#b59054"/>
    </g>
    <g transform="matrix(.35278 0 0 -.35278 38.501 104.01)">
      <path d="m0 0c-1.5-1.4-3-2.8-4.5-4.1-0.3 0.3-0.5 0.6-0.8 0.9 1.5 1.4 3 2.7 4.5 4.1 0.3-0.4 0.5-0.7 0.8-0.9" fill="#b59054"/>
    </g>
    <g transform="matrix(.35278 0 0 -.35278 39.171 105.07)">
      <path d="m0 0c-0.6 0.6-1.2 1.1-1.7 1.7l0.5 0.5c1.3-1.4 2.8-2.7 4.2-4-0.1-0.2-0.3-0.3-0.4-0.5-0.6 0.5-1.2 1-1.8 1.6-1.2-1.3-2.4-2.7-3.6-4-0.3 0.3-0.6 0.5-0.8 0.8 1.1 1.3 2.3 2.6 3.6 3.9" fill="#b59054"/>
    </g>
    <g transform="matrix(.35278 0 0 -.35278 39.982 106.9)">
      <path d="m0 0c-0.8-1-0.8-2.6 0.7-3.6 1.4-1 2.9-0.5 3.6 0.6 0.6 1 0.6 2.5-0.7 3.5-1.4 1-2.8 0.6-3.6-0.5m5.2-3.5c-1.1-1.8-3.2-1.8-5-0.5-1.9 1.3-2.3 3.3-1.1 4.7 1.2 1.5 3.2 1.5 4.9 0.3 1.7-1.1 2.2-2.9 1.2-4.5" fill="#b59054"/>
    </g>
    <g transform="matrix(.35278 0 0 -.35278 42.593 108.53)">
      <path d="m0 0c0.3-0.2 0.6-0.3 0.9-0.5 1-0.5 1.8-0.4 2.1 0.2 0.3 0.7-0.2 1.3-1.1 1.8-0.4 0.2-0.7 0.4-0.9 0.4-0.2-0.6-0.6-1.2-1-1.9m0.5 2.9c0.5-0.2 1.1-0.5 1.7-0.8 0.9-0.5 1.5-0.9 1.7-1.4 0.2-0.4 0.3-0.9 0.1-1.3-0.3-0.7-1.2-0.9-2-0.8 0.5-0.4 0.6-1 0.5-1.6-0.1-0.9-0.2-1.5-0.1-1.8-0.3 0.2-0.7 0.3-1 0.5 0 0.2 0 0.8 0.1 1.5 0.2 0.9-0.1 1.3-0.9 1.8-0.3 0.2-0.6 0.3-0.9 0.5-0.4-0.8-0.9-1.5-1.3-2.3-0.3 0.2-0.6 0.4-1 0.5 1.1 1.7 2.1 3.5 3.1 5.2" fill="#b59054"/>
    </g>
    <g transform="matrix(.35278 0 0 -.35278 46.756 111.31)">
      <path d="m0 0c-0.4 0-1.2 0-2.2 0.3-2.3 0.7-3.5 2.4-2.8 4.2s2.7 2.4 4.8 1.7c0.9-0.3 1.4-0.6 1.6-0.7-0.1-0.2-0.3-0.4-0.4-0.6-0.3 0.2-0.8 0.5-1.4 0.7-1.7 0.5-3.1 0.1-3.7-1.4-0.5-1.4 0.2-2.7 2.2-3.3 0.6-0.2 1.3-0.3 1.7-0.2 0.2-0.3 0.2-0.5 0.2-0.7" fill="#b59054"/>
    </g>
    <g transform="matrix(.35278 0 0 -.35278 48.096 109.51)">
      <path d="m0 0c-0.3-1.2-0.5-2.3-0.8-3.5-0.3-1.3 0.4-2.1 1.5-2.3 1.2-0.2 2.1 0.3 2.3 1.6 0.2 1.2 0.4 2.4 0.5 3.6 0.3 0 0.6-0.1 1-0.1-0.2-1.2-0.3-2.3-0.5-3.5-0.2-1.8-1.7-2.4-3.5-2.1-1.7 0.3-2.8 1.3-2.3 3.1 0.3 1.2 0.6 2.3 0.8 3.5 0.3-0.1 0.6-0.2 1-0.3" fill="#b59054"/>
    </g>
    <g transform="matrix(.35278 0 0 -.35278 50.707 112.02)">
      <path d="m0 0c-0.8 2.1-1.4 4.2-2 6.3 0.3 0 0.7-0.1 1-0.1 0.3-1 0.6-2.1 0.9-3.1 0.3-0.8 0.5-1.6 0.7-2.3 0.3 0.7 0.6 1.4 1 2.2 0.5 1 0.9 2 1.4 3h1c-0.9-2-1.9-4-3-6-0.2-0.1-0.6-0.1-1 0" fill="#b59054"/>
    </g>
    <g transform="matrix(.35278 0 0 -.35278 53.882 111.14)">
      <path d="m0 0c-0.3 0.6-0.6 1.1-0.9 1.7-0.2 0.4-0.3 0.7-0.5 1.1-0.1-0.4-0.2-0.7-0.3-1.1-0.2-0.6-0.4-1.2-0.7-1.8 0.8 0 1.6 0.1 2.4 0.1m-1.1 4.9 1.2-0.9c-0.3 0-0.5 0-0.8-0.1-0.3 0.2-0.5 0.4-0.7 0.6l-0.7-0.7h-0.8l1.1 1.1c0.2-0.1 0.4 0 0.7 0m-1.5-5.6c-0.3-0.6-0.5-1.3-0.8-1.9h-1.1c0.9 2 1.8 4.1 2.5 6.1 0.4 0 0.8 0 1.2 0.1 1-2 2.1-3.9 3.3-5.8-0.4 0-0.8-0.1-1.1-0.1-0.4 0.6-0.7 1.2-1.1 1.8-1-0.1-1.9-0.2-2.9-0.2" fill="#b59054"/>
    </g>
    <g transform="matrix(.35278 0 0 -.35278 55.222 111.88)">
      <path d="m0 0-0.9 6c0.3 0.1 0.7 0.1 1 0.2 1-0.9 2-1.7 3-2.6 0.7-0.6 1.3-1.1 1.8-1.6-0.3 0.8-0.5 1.5-0.7 2.4-0.2 0.8-0.4 1.6-0.6 2.5 0.3 0.1 0.6 0.1 0.9 0.2 0.5-2 1-3.9 1.5-5.9-0.4-0.1-0.7-0.2-1.1-0.3-1.1 0.8-2.2 1.6-3.2 2.5-0.7 0.6-1.3 1.2-1.8 1.7 0.2-0.7 0.3-1.5 0.5-2.5 0.1-0.9 0.3-1.7 0.4-2.6-0.2 0.1-0.5 0.1-0.8 0" fill="#b59054"/>
    </g>
    <g transform="matrix(.35278 0 0 -.35278 57.974 109.27)">
      <path d="m0 0c-0.7-0.2-1.5-0.5-2.2-0.7-0.1 0.2-0.1 0.4-0.2 0.6 1.8 0.5 3.5 1.1 5.3 1.7 0.1-0.2 0.2-0.4 0.2-0.6-0.7-0.3-1.4-0.5-2.2-0.8l1.8-5.1c-0.3-0.1-0.7-0.2-1-0.3-0.5 1.8-1.1 3.5-1.7 5.2" fill="#b59054"/>
    </g>
    <g transform="matrix(.35278 0 0 -.35278 59.632 108.38)">
      <path d="m0 0c0.5-1.1 1-2.2 1.4-3.3 0.5-1.2 1.5-1.5 2.5-1 1.1 0.5 1.5 1.4 0.9 2.6-0.6 1.1-1.1 2.1-1.7 3.2 0.3 0.2 0.6 0.3 0.9 0.5 0.6-1 1.1-2.1 1.7-3.1 0.9-1.6 0.1-3-1.6-3.8-1.6-0.7-3-0.6-3.8 1.2-0.5 1.1-0.9 2.2-1.4 3.3 0.5 0.1 0.8 0.2 1.1 0.4" fill="#b59054"/>
    </g>
    <g transform="matrix(.35278 0 0 -.35278 61.643 107.4)">
      <path d="m0 0c0.3 0.2 0.6 0.3 0.8 0.5 1-1.5 1.9-3.1 2.8-4.6 1 0.6 2 1.3 3 2 0.1-0.2 0.3-0.4 0.4-0.5-1.3-0.9-2.6-1.8-4-2.6-1 1.8-2 3.5-3 5.2" fill="#b59054"/>
    </g>
    <g transform="matrix(.35278 0 0 -.35278 65.029 107.43)">
      <path d="m0 0c0.2 2.3 0.3 4.5 0.2 6.7-1-0.9-2-1.8-3-2.6-0.1 0.2-0.3 0.3-0.4 0.5 1.3 1.1 2.7 2.3 3.9 3.5l0.3-0.3c0.1-2.2 0.1-4.4 0-6.7 1.2 1 2.4 2.1 3.5 3.3l0.5-0.5c-1.5-1.5-3.1-2.9-4.7-4.2l-0.3 0.3" fill="#b59054"/>
    </g>
    <g transform="matrix(.35278 0 0 -.35278 65.876 103.94)">
      <path d="m0 0c1.5-1.4 3-2.7 4.5-4.1-0.3-0.3-0.5-0.6-0.8-0.8-1.5 1.4-2.9 2.8-4.4 4.2z" fill="#b59054"/>
    </g>
    <g transform="matrix(.35278 0 0 -.35278 66.335 103.41)">
      <path d="m0 0c0.2 0.3 0.4 0.5 0.7 0.8 1.4-1.1 2.8-2.3 4.2-3.4 0.8 1 1.6 2 2.3 3.1 0.2-0.1 0.4-0.3 0.5-0.4-1-1.4-2-2.7-3.1-4-1.5 1.3-3.1 2.6-4.6 3.9" fill="#b59054"/>
    </g>
    <g transform="matrix(.35278 0 0 -.35278 69.333 101.05)">
      <path d="m0 0-1.8-3 1.8-1.2c0.7 1.1 1.4 2.3 2 3.5l0.6-0.3c-0.9-1.6-1.8-3.1-2.7-4.5-1.7 1.1-3.4 2.3-5 3.4 0.8 1.2 1.6 2.5 2.4 3.9l0.6-0.3-1.8-3c0.5-0.3 1.1-0.7 1.6-1 0.6 1 1.2 1.9 1.8 2.9 0.2-0.1 0.3-0.2 0.5-0.4" fill="#b59054"/>
    </g>
    <g transform="matrix(.35278 0 0 -.35278 68.84 99.53)">
      <path d="m0 0 5.4-2.7c-0.2-0.4-0.4-0.7-0.6-1.1-1.8 0.9-3.6 1.9-5.4 2.8 0.3 0.4 0.5 0.7 0.6 1" fill="#b59054"/>
    </g>
    <g fill="#b59054" stroke="#4e412c" stroke-width=".35278">
      <path d="m58.644 100.27h3.3161v3.3161h-3.3161z"/>
      <path d="m58.644 96.99h3.3161v3.3161h-3.3161z"/>
      <path d="m58.644 93.674h3.3161v3.3161h-3.3161z"/>
      <path d="m55.364 96.99h3.3161v3.3161h-3.3161z"/>
      <path d="m52.012 76.105h3.3161v3.3161h-3.3161z"/>
      <path d="m48.731 76.105h3.3161v3.3161h-3.3161z"/>
      <path d="m52.012 79.386h3.3161v3.3161h-3.3161z"/>
      <path d="m45.45 76.105h3.3161v3.3161h-3.3161z"/>
      <path d="m55.293 87.041h3.3161v3.3161h-3.3161z"/>
      <path d="m55.293 83.761h3.3161v3.3161h-3.3161z"/>
      <path d="m51.941 87.041h3.3161v3.3161h-3.3161z"/>
      <path d="m58.609 83.761h3.3161v3.3161h-3.3161z"/>
      <path d="m45.38 90.358h3.3161v3.3161h-3.3161z"/>
      <path d="m45.38 87.077h3.3161v3.3161h-3.3161z"/>
      <path d="m45.38 80.48h3.3161v3.3161h-3.3161z"/>
      <path d="m45.38 83.761h3.3161v3.3161h-3.3161z"/>
      <path d="m41.817 100.27h3.3161v3.3161h-3.3161z"/>
      <path d="m41.817 96.99h3.3161v3.3161h-3.3161z"/>
      <path d="m45.097 100.27h3.3161v3.3161h-3.3161z"/>
      <path d="m41.817 93.709h3.3161v3.3161h-3.3161z"/>
      <path d="m51.871 100.27h3.3161v3.3161h-3.3161z"/>
      <path d="m51.871 97.025h3.3161v3.3161h-3.3161z"/>
      <path d="m55.222 100.27h3.3161v3.3161h-3.3161z"/>
      <path d="m48.59 97.025h3.3161v3.3161h-3.3161z"/>
    </g>
    <g transform="matrix(.35278 0 0 -.35278 45.133 72.578)">
      <path d="m0 0c-0.4 0.3-1.3 0.6-3.4-0.2-1.6-0.6-2.4-2.4-1.8-3.7 0.5-1.3 1.9-1.4 3.4-0.8 4.4 1.7 3.6 7.1 2.7 11.2-0.7 3.1-2.2 2.3-1.5-0.6 0.3-1 0.4-1.6 0.7-2.6 0.8-3.1 2.3-6.5 5-5.8 2.2 0.5 3.2 1.8 2.9 3.8-0.4 2.5-3.3 1.8-2.8-0.7 0.4-1.8 2-2.6 4.1-2.2 2 0.3 3.5 1.5 3.3 3.3-0.1 1-1 1.6-2.2 1.8" fill="none" stroke="#b59054" stroke-linecap="round" stroke-linejoin="round" stroke-miterlimit="3.864"/>
    </g>
    <g transform="matrix(.35278 0 0 -.35278 50.707 71.061)" fill="none" stroke="#b59054" stroke-miterlimit="3.864">
      <path d="m0 0c-1.9-0.6-3.2-1.9-3-3.6 0.1-1.3 1.3-1.6 2.7-1.5 0.6 0 0.8 0.2 1.4 0.3" stroke-linecap="round" stroke-linejoin="round"/>
      <path d="m0 0c-1.9-0.6-3.2-1.9-3-3.6 0.1-1.3 1.3-1.6 2.7-1.5 0.6 0 0.8 0.2 1.4 0.3"/>
    </g>
    <g transform="matrix(.35278 0 0 -.35278 49.19 72.26)">
      <path d="m0 0c1.4 0.2 2.2 0.3 3.5 0.5" fill="none" stroke="#b59054" stroke-linecap="round" stroke-linejoin="round" stroke-miterlimit="3.864"/>
    </g>
    <g transform="matrix(.35278 0 0 -.35278 51.906 71.237)">
      <path d="m0 0c-1.4-0.3-2.2-1.3-2.1-2.5 0-1.2 1.2-2 2.4-2 1.5 0 2.8 1.1 2.9 2.5s-0.4 1.9-1.8 1.9c-0.6-0.1-0.8-0.6-0.4-1 0.4-0.3 0.9-0.4 1.5-0.4 1.3-0.1 1.8 1.1 3.1 0.9 1.1-0.1 1.5-1.2 1.4-2.1-0.1-0.8-0.3-1.3-0.4-2.1 0.1 0.7 0.2 1.1 0.3 1.8 0.2 1.1 1.2 2 2.4 1.8 0.8-0.1 1.4-0.8 1.2-1.5-0.3-1.2-0.2-1-0.5-2.2-0.1-0.4 0.3-0.5 0.6-0.6 1.4-0.3 2.2 0.9 3.1 1.9 1.7 1.8 2.3 3.1 3.1 5.3 1.3 3.9-1 4.1-2.1 0.3-0.5-1.8-0.7-2.8-0.7-4.6 0.1-1.5-0.7-3.6 0.9-4.1 0.7-0.2 1.7 0.4 2 1.1 0.7 1.4 0.7 1.5 1.2 2.7-0.4-1.3-0.2-0.9-0.5-1.6-1.2-3.5 0.1-3.4 0.5-3 1.7 1 1.7 3.7 3.8 2.9 0.8-0.3 1.3-1.3 0.9-2-0.5-1.1-0.8-1.6-1.3-2.7 0.7 1.7 1.8 3.8 3.6 2.9 2-1-1.2-3.9 0.6-4.9 1.5-0.8 3.2-0.4 4.1 0.9 1.1 1.6-0.8 3.1-2.1 0.9-0.6-1.1-0.3-4 2-3.7" fill="none" stroke="#b59054" stroke-linecap="round" stroke-linejoin="round" stroke-miterlimit="3.864"/>
    </g>
    <g transform="matrix(.35278 0 0 -.35278 58.644 71.237)">
      <path d="m0 0c0-0.1-0.1-0.1-0.1-0.2" fill="none" stroke="#b59054" stroke-linecap="round" stroke-linejoin="round" stroke-miterlimit="3.864"/>
    </g>
  </g>
</svg>
